<svg width="158" height="26" viewBox="0 0 158 26" fill="none" xmlns="http://www.w3.org/2000/svg">
<mask id="path-1-outside-1_92_1719" maskUnits="userSpaceOnUse" x="-0.116211" y="0" width="158" height="26" fill="black">
<rect fill="white" x="-0.116211" width="158" height="26"/>
<path d="M0.883789 12.45C0.883789 10.1906 1.57864 8.51227 2.96833 7.4149C4.35803 6.30945 6.27603 5.75671 8.72232 5.75671C10.9275 5.75671 12.6445 6.18437 13.8734 7.03966C15.1023 7.88692 15.7168 9.12152 15.7168 10.7434C15.7168 11.2033 15.6823 11.6471 15.6134 12.0748C15.556 12.5024 15.4928 12.8131 15.4239 13.0068L15.3205 13.2972H4.51881C4.65663 14.7174 5.12178 15.722 5.91425 16.311C6.7182 16.892 7.88966 17.1825 9.42867 17.1825C10.1637 17.1825 10.8758 17.122 11.5649 17.0009C12.2655 16.8799 12.7823 16.7629 13.1154 16.6499L13.5978 16.4684C14.3098 16.9122 14.6831 17.5053 14.7175 18.2476C14.6602 18.2718 14.5797 18.3081 14.4763 18.3565C14.373 18.405 14.1319 18.4897 13.7528 18.6107C13.3853 18.7317 12.9948 18.8366 12.5813 18.9254C12.1679 19.0142 11.6223 19.0949 10.9447 19.1675C10.2671 19.2482 9.57227 19.2885 8.8602 19.2885C3.54258 19.2885 0.883789 17.009 0.883789 12.45ZM4.51881 11.5301H12.0817C12.1506 11.1428 12.1851 10.7716 12.1851 10.4166C12.1851 9.60969 11.9152 8.9601 11.3754 8.4679C10.8356 7.96763 9.95127 7.71747 8.72232 7.71747C6.17266 7.71747 4.77149 8.98836 4.51881 11.5301ZM18.2664 21.794C18.2664 21.3501 18.3813 20.9306 18.611 20.5352C18.8407 20.1398 19.1393 19.7969 19.5068 19.5064C19.8744 19.224 20.2074 18.998 20.5061 18.8286C20.8046 18.6591 21.109 18.5098 21.4191 18.3807C20.9023 18.0176 20.6439 17.5375 20.6439 16.9404C20.6439 16.0367 21.2066 15.1208 22.3322 14.1929C20.1959 13.499 19.1278 12.1757 19.1278 10.2229C19.1278 8.8189 19.7193 7.72555 20.9023 6.94284C22.0967 6.1521 23.808 5.75671 26.0361 5.75671C27.6211 5.75671 28.9246 5.94631 29.9468 6.32556L34.8911 5.75671C35.0519 6.01492 35.1323 6.33766 35.1323 6.725C35.1323 7.11229 35.0519 7.44316 34.8911 7.71747L31.9624 7.62065C32.617 8.29037 32.9444 9.15781 32.9444 10.2229C32.9444 11.627 32.3529 12.7243 31.17 13.5151C29.9869 14.2978 28.2757 14.6891 26.0361 14.6891C25.5422 14.6891 25.0254 14.6609 24.4856 14.6044C24.0262 15.0401 23.7965 15.4718 23.7965 15.8995C23.7965 15.9479 23.8023 15.9964 23.8138 16.0447C23.8597 16.311 24.055 16.5329 24.3995 16.7105C24.744 16.8799 25.1805 16.9969 25.7088 17.0615C26.2371 17.126 26.8286 17.1946 27.4833 17.2672C28.1379 17.3398 28.804 17.4044 29.4816 17.4609C30.1593 17.5174 30.8196 17.6303 31.4628 17.7998C32.106 17.9612 32.6802 18.1629 33.1856 18.405C33.6909 18.639 34.0929 18.9779 34.3915 19.4216C34.7016 19.8654 34.8567 20.394 34.8567 21.0072C34.8567 22.2499 34.0469 23.2666 32.4276 24.0573C30.8082 24.8481 28.5973 25.2435 25.7949 25.2435C23.2567 25.2435 21.3674 24.9288 20.1271 24.2994C18.8866 23.6781 18.2664 22.8429 18.2664 21.794ZM21.6947 21.2977C21.6947 21.9513 22.0451 22.4798 22.7456 22.8833C23.4577 23.2867 24.5086 23.4885 25.8983 23.4885C27.6785 23.4885 29.0567 23.2827 30.0329 22.8711C31.0091 22.4677 31.4972 21.9271 31.4972 21.2493C31.4972 20.862 31.3193 20.5473 30.9632 20.3052C30.6186 20.0712 30.1305 19.8977 29.4989 19.7848C28.8787 19.6799 28.2413 19.5992 27.5866 19.5427C26.9319 19.4862 26.1912 19.4176 25.3642 19.3369C24.5373 19.2562 23.8539 19.1594 23.3142 19.0464C22.8432 19.3127 22.4528 19.6435 22.1427 20.039C21.844 20.4424 21.6947 20.862 21.6947 21.2977ZM23.4175 8.18953C22.7859 8.64137 22.47 9.31918 22.47 10.2229C22.47 11.1267 22.7859 11.8045 23.4175 12.2563C24.0607 12.7001 24.9336 12.922 26.0361 12.922C27.1387 12.922 28.0001 12.7001 28.6203 12.2563C29.2519 11.8045 29.5678 11.1267 29.5678 10.2229C29.5678 9.31918 29.2519 8.64137 28.6203 8.18953C28.0001 7.72961 27.1387 7.49963 26.0361 7.49963C24.9336 7.49963 24.0607 7.72961 23.4175 8.18953ZM37.7509 12.45C37.7509 10.1906 38.4457 8.51227 39.8354 7.4149C41.2251 6.30945 43.1431 5.75671 45.5894 5.75671C47.7946 5.75671 49.5116 6.18437 50.7405 7.03966C51.9694 7.88692 52.5838 9.12152 52.5838 10.7434C52.5838 11.2033 52.5494 11.6471 52.4805 12.0748C52.4231 12.5024 52.3599 12.8131 52.291 13.0068L52.1876 13.2972H41.3859C41.5237 14.7174 41.9889 15.722 42.7813 16.311C43.5853 16.892 44.7568 17.1825 46.2958 17.1825C47.0308 17.1825 47.7429 17.122 48.432 17.0009C49.1326 16.8799 49.6494 16.7629 49.9825 16.6499L50.4648 16.4684C51.1769 16.9122 51.5502 17.5053 51.5846 18.2476C51.5273 18.2718 51.4468 18.3081 51.3434 18.3565C51.2401 18.405 50.9989 18.4897 50.6199 18.6107C50.2524 18.7317 49.8619 18.8366 49.4484 18.9254C49.0349 19.0142 48.4894 19.0949 47.8118 19.1675C47.1342 19.2482 46.4394 19.2885 45.7273 19.2885C40.4096 19.2885 37.7509 17.009 37.7509 12.45ZM41.3859 11.5301H48.9488C49.0177 11.1428 49.0522 10.7716 49.0522 10.4166C49.0522 9.60969 48.7823 8.9601 48.2425 8.4679C47.7027 7.96763 46.8184 7.71747 45.5894 7.71747C43.0398 7.71747 41.6386 8.98836 41.3859 11.5301ZM55.5298 15.1491C55.5298 13.8177 56.0983 12.8373 57.2353 12.2079C58.3724 11.5785 60.0606 11.2639 62.3002 11.2639C63.7703 11.2639 65.1141 11.3122 66.3315 11.4091V10.4892C66.3315 9.6097 66.0501 8.948 65.4874 8.50424C64.936 8.06044 64.0058 7.83853 62.6965 7.83853C61.9614 7.83853 61.1977 7.89099 60.4052 7.99589C59.6242 8.10074 59.0213 8.20565 58.5963 8.31055L57.9588 8.4679L57.9072 8.44371C57.8842 8.41952 57.8498 8.39934 57.8038 8.38318C57.7694 8.35899 57.7234 8.32671 57.666 8.28636C57.6086 8.23792 57.5511 8.18953 57.4938 8.1411C57.4478 8.09271 57.3904 8.03218 57.3214 7.95955C57.264 7.87889 57.2066 7.79818 57.1492 7.71747C57.1147 7.65292 57.0802 7.58837 57.0458 7.52382C57.0228 7.45928 56.9999 7.39874 56.9769 7.34228C56.9654 7.28581 56.9539 7.22929 56.9424 7.17282C56.9309 7.10828 56.9252 7.05582 56.9252 7.01547C56.9252 6.96708 56.9252 6.92266 56.9252 6.88236C56.9252 6.842 56.9252 6.80973 56.9252 6.78553C56.9367 6.75326 56.9424 6.725 56.9424 6.70081V6.67657C57.0114 6.65237 57.109 6.6201 57.2353 6.57974C57.3732 6.53939 57.6545 6.46681 58.0794 6.3619C58.5159 6.24892 58.9581 6.1521 59.406 6.07139C59.8654 5.99073 60.4339 5.9181 61.1115 5.85353C61.7891 5.78898 62.4553 5.75671 63.1099 5.75671C65.5907 5.75671 67.3307 6.14402 68.3299 6.91865C69.3406 7.69328 69.8459 8.91171 69.8459 10.574V18.877C69.5933 18.99 69.1396 19.0464 68.4849 19.0464C68.2208 19.0464 67.9681 19.0343 67.7269 19.0101C67.4972 18.9779 67.3307 18.9496 67.2273 18.9254L67.0723 18.877L66.5382 17.2914C65.6194 18.6228 63.7703 19.2885 60.9909 19.2885C59.2912 19.2885 57.9531 18.9375 56.9769 18.2355C56.0121 17.5335 55.5298 16.5047 55.5298 15.1491ZM59.1648 15.1491C59.1648 16.6418 60.187 17.3883 62.2313 17.3883C63.1272 17.3883 63.8909 17.2228 64.5226 16.892C65.1543 16.5531 65.6137 16.1335 65.9008 15.6332C66.1879 15.1249 66.3315 14.5681 66.3315 13.9629V13.0915C64.7121 12.9947 63.5234 12.9462 62.7654 12.9462C61.5595 12.9462 60.6579 13.1238 60.0606 13.4788C59.4634 13.8258 59.1648 14.3825 59.1648 15.1491ZM74.8592 18.877V6.18036C75.2036 6.06737 75.7892 6.0109 76.6163 6.0109C76.9493 6.0109 77.2598 6.02702 77.547 6.05929C77.8455 6.08348 78.0579 6.11174 78.1842 6.14402L78.3733 6.18036V7.31808C79.683 6.27718 81.4633 5.75671 83.7143 5.75671C85.4481 5.75671 86.7923 6.09965 87.7457 6.78553C88.699 7.46329 89.1753 8.37108 89.1753 9.50881V18.877C88.7851 18.99 88.1994 19.0464 87.4182 19.0464C87.0619 19.0464 86.7345 19.0343 86.436 19.0101C86.1375 18.9779 85.9307 18.9496 85.8157 18.9254L85.6435 18.877V9.94453C85.6435 8.4921 84.5526 7.7659 82.3701 7.7659C81.5896 7.7659 80.8431 7.9071 80.1311 8.18953C79.4191 8.47192 78.8327 8.85926 78.3733 9.35145V18.877C77.9598 18.99 77.3741 19.0464 76.6163 19.0464C76.2486 19.0464 75.9156 19.0343 75.6171 19.0101C75.3299 18.9779 75.1351 18.9496 75.0314 18.9254L74.8592 18.877ZM99.6153 2.29508C99.6153 2.1095 99.6379 1.92794 99.6844 1.75042C99.7416 1.56484 99.7931 1.42363 99.839 1.3268L99.9081 1.19366H116.808C116.992 1.50028 117.084 1.85935 117.084 2.27088C117.084 2.46453 117.061 2.65416 117.015 2.83974C116.969 3.02533 116.923 3.16251 116.877 3.25127L116.808 3.3844H110.244V18.877C109.82 18.99 109.217 19.0464 108.436 19.0464C108.057 19.0464 107.718 19.0343 107.42 19.0101C107.12 18.9779 106.914 18.9496 106.799 18.9254L106.644 18.877V3.3844H99.9081C99.7127 3.10199 99.6153 2.73888 99.6153 2.29508ZM116.274 15.1491C116.274 13.8177 116.843 12.8373 117.98 12.2079C119.117 11.5785 120.805 11.2639 123.045 11.2639C124.515 11.2639 125.859 11.3122 127.076 11.4091V10.4892C127.076 9.6097 126.795 8.948 126.232 8.50424C125.68 8.06044 124.75 7.83853 123.441 7.83853C122.706 7.83853 121.943 7.89099 121.15 7.99589C120.369 8.10074 119.766 8.20565 119.341 8.31055L118.704 8.4679L118.651 8.44371C118.629 8.41952 118.594 8.39934 118.548 8.38318C118.514 8.35899 118.468 8.32671 118.411 8.28636C118.353 8.23792 118.296 8.18953 118.239 8.1411C118.192 8.09271 118.135 8.03218 118.066 7.95955C118.009 7.87889 117.951 7.79818 117.894 7.71747C117.859 7.65292 117.825 7.58837 117.791 7.52382C117.767 7.45928 117.745 7.39874 117.721 7.34228C117.71 7.28581 117.699 7.22929 117.687 7.17282C117.676 7.10828 117.67 7.05582 117.67 7.01547C117.67 6.96708 117.67 6.92266 117.67 6.88236C117.67 6.842 117.67 6.80973 117.67 6.78553C117.681 6.75326 117.687 6.725 117.687 6.70081V6.67657C117.756 6.65237 117.853 6.6201 117.98 6.57974C118.118 6.53939 118.399 6.46681 118.824 6.3619C119.26 6.24892 119.703 6.1521 120.15 6.07139C120.61 5.99073 121.178 5.9181 121.856 5.85353C122.534 5.78898 123.2 5.75671 123.855 5.75671C126.335 5.75671 128.075 6.14402 129.074 6.91865C130.085 7.69328 130.59 8.91171 130.59 10.574V18.877C130.338 18.99 129.884 19.0464 129.23 19.0464C128.965 19.0464 128.712 19.0343 128.471 19.0101C128.242 18.9779 128.075 18.9496 127.972 18.9254L127.817 18.877L127.283 17.2914C126.364 18.6228 124.515 19.2885 121.736 19.2885C120.036 19.2885 118.698 18.9375 117.721 18.2355C116.757 17.5335 116.274 16.5047 116.274 15.1491ZM119.91 15.1491C119.91 16.6418 120.931 17.3883 122.976 17.3883C123.872 17.3883 124.635 17.2228 125.267 16.892C125.899 16.5531 126.358 16.1335 126.646 15.6332C126.933 15.1249 127.076 14.5681 127.076 13.9629V13.0915C125.457 12.9947 124.268 12.9462 123.51 12.9462C122.304 12.9462 121.403 13.1238 120.805 13.4788C120.208 13.8258 119.91 14.3825 119.91 15.1491ZM133.622 18.877L139.859 12.3774L134.001 6.18036C134.473 6.06737 135.121 6.0109 135.948 6.0109C136.327 6.0109 136.678 6.02702 136.999 6.05929C137.321 6.08348 137.551 6.11174 137.688 6.14402L137.895 6.18036L142.047 10.574L146.251 6.18036C146.652 6.06737 147.215 6.0109 147.938 6.0109C148.295 6.0109 148.628 6.02702 148.938 6.05929C149.248 6.08348 149.466 6.11174 149.592 6.14402L149.782 6.18036L143.925 12.2805L150.196 18.877C149.736 18.99 149.093 19.0464 148.266 19.0464C147.887 19.0464 147.537 19.0343 147.215 19.0101C146.893 18.9779 146.664 18.9496 146.526 18.9254L146.319 18.877L141.771 14.084L137.189 18.877C136.753 18.99 136.173 19.0464 135.449 19.0464C135.104 19.0464 134.777 19.0343 134.467 19.0101C134.168 18.9779 133.95 18.9496 133.812 18.9254L133.622 18.877ZM153.348 3.50544V1.16945C153.716 1.05648 154.324 1 155.174 1C155.53 1 155.858 1.01614 156.156 1.04841C156.466 1.07262 156.685 1.10086 156.811 1.13314L157 1.16945V3.50544C156.587 3.61841 155.979 3.67489 155.174 3.67489C154.795 3.67489 154.451 3.66279 154.14 3.63858C153.842 3.6063 153.635 3.57806 153.521 3.55386L153.348 3.50544ZM153.417 18.877V6.18036C153.761 6.06737 154.347 6.0109 155.174 6.0109C155.519 6.0109 155.835 6.02702 156.122 6.05929C156.42 6.08348 156.633 6.11174 156.759 6.14402L156.932 6.18036V18.877C156.541 18.99 155.955 19.0464 155.174 19.0464C154.806 19.0464 154.473 19.0343 154.175 19.0101C153.888 18.9779 153.693 18.9496 153.589 18.9254L153.417 18.877Z"/>
</mask>
<path d="M0.883789 12.45C0.883789 10.1906 1.57864 8.51227 2.96833 7.4149C4.35803 6.30945 6.27603 5.75671 8.72232 5.75671C10.9275 5.75671 12.6445 6.18437 13.8734 7.03966C15.1023 7.88692 15.7168 9.12152 15.7168 10.7434C15.7168 11.2033 15.6823 11.6471 15.6134 12.0748C15.556 12.5024 15.4928 12.8131 15.4239 13.0068L15.3205 13.2972H4.51881C4.65663 14.7174 5.12178 15.722 5.91425 16.311C6.7182 16.892 7.88966 17.1825 9.42867 17.1825C10.1637 17.1825 10.8758 17.122 11.5649 17.0009C12.2655 16.8799 12.7823 16.7629 13.1154 16.6499L13.5978 16.4684C14.3098 16.9122 14.6831 17.5053 14.7175 18.2476C14.6602 18.2718 14.5797 18.3081 14.4763 18.3565C14.373 18.405 14.1319 18.4897 13.7528 18.6107C13.3853 18.7317 12.9948 18.8366 12.5813 18.9254C12.1679 19.0142 11.6223 19.0949 10.9447 19.1675C10.2671 19.2482 9.57227 19.2885 8.8602 19.2885C3.54258 19.2885 0.883789 17.009 0.883789 12.45ZM4.51881 11.5301H12.0817C12.1506 11.1428 12.1851 10.7716 12.1851 10.4166C12.1851 9.60969 11.9152 8.9601 11.3754 8.4679C10.8356 7.96763 9.95127 7.71747 8.72232 7.71747C6.17266 7.71747 4.77149 8.98836 4.51881 11.5301ZM18.2664 21.794C18.2664 21.3501 18.3813 20.9306 18.611 20.5352C18.8407 20.1398 19.1393 19.7969 19.5068 19.5064C19.8744 19.224 20.2074 18.998 20.5061 18.8286C20.8046 18.6591 21.109 18.5098 21.4191 18.3807C20.9023 18.0176 20.6439 17.5375 20.6439 16.9404C20.6439 16.0367 21.2066 15.1208 22.3322 14.1929C20.1959 13.499 19.1278 12.1757 19.1278 10.2229C19.1278 8.8189 19.7193 7.72555 20.9023 6.94284C22.0967 6.1521 23.808 5.75671 26.0361 5.75671C27.6211 5.75671 28.9246 5.94631 29.9468 6.32556L34.8911 5.75671C35.0519 6.01492 35.1323 6.33766 35.1323 6.725C35.1323 7.11229 35.0519 7.44316 34.8911 7.71747L31.9624 7.62065C32.617 8.29037 32.9444 9.15781 32.9444 10.2229C32.9444 11.627 32.3529 12.7243 31.17 13.5151C29.9869 14.2978 28.2757 14.6891 26.0361 14.6891C25.5422 14.6891 25.0254 14.6609 24.4856 14.6044C24.0262 15.0401 23.7965 15.4718 23.7965 15.8995C23.7965 15.9479 23.8023 15.9964 23.8138 16.0447C23.8597 16.311 24.055 16.5329 24.3995 16.7105C24.744 16.8799 25.1805 16.9969 25.7088 17.0615C26.2371 17.126 26.8286 17.1946 27.4833 17.2672C28.1379 17.3398 28.804 17.4044 29.4816 17.4609C30.1593 17.5174 30.8196 17.6303 31.4628 17.7998C32.106 17.9612 32.6802 18.1629 33.1856 18.405C33.6909 18.639 34.0929 18.9779 34.3915 19.4216C34.7016 19.8654 34.8567 20.394 34.8567 21.0072C34.8567 22.2499 34.0469 23.2666 32.4276 24.0573C30.8082 24.8481 28.5973 25.2435 25.7949 25.2435C23.2567 25.2435 21.3674 24.9288 20.1271 24.2994C18.8866 23.6781 18.2664 22.8429 18.2664 21.794ZM21.6947 21.2977C21.6947 21.9513 22.0451 22.4798 22.7456 22.8833C23.4577 23.2867 24.5086 23.4885 25.8983 23.4885C27.6785 23.4885 29.0567 23.2827 30.0329 22.8711C31.0091 22.4677 31.4972 21.9271 31.4972 21.2493C31.4972 20.862 31.3193 20.5473 30.9632 20.3052C30.6186 20.0712 30.1305 19.8977 29.4989 19.7848C28.8787 19.6799 28.2413 19.5992 27.5866 19.5427C26.9319 19.4862 26.1912 19.4176 25.3642 19.3369C24.5373 19.2562 23.8539 19.1594 23.3142 19.0464C22.8432 19.3127 22.4528 19.6435 22.1427 20.039C21.844 20.4424 21.6947 20.862 21.6947 21.2977ZM23.4175 8.18953C22.7859 8.64137 22.47 9.31918 22.47 10.2229C22.47 11.1267 22.7859 11.8045 23.4175 12.2563C24.0607 12.7001 24.9336 12.922 26.0361 12.922C27.1387 12.922 28.0001 12.7001 28.6203 12.2563C29.2519 11.8045 29.5678 11.1267 29.5678 10.2229C29.5678 9.31918 29.2519 8.64137 28.6203 8.18953C28.0001 7.72961 27.1387 7.49963 26.0361 7.49963C24.9336 7.49963 24.0607 7.72961 23.4175 8.18953ZM37.7509 12.45C37.7509 10.1906 38.4457 8.51227 39.8354 7.4149C41.2251 6.30945 43.1431 5.75671 45.5894 5.75671C47.7946 5.75671 49.5116 6.18437 50.7405 7.03966C51.9694 7.88692 52.5838 9.12152 52.5838 10.7434C52.5838 11.2033 52.5494 11.6471 52.4805 12.0748C52.4231 12.5024 52.3599 12.8131 52.291 13.0068L52.1876 13.2972H41.3859C41.5237 14.7174 41.9889 15.722 42.7813 16.311C43.5853 16.892 44.7568 17.1825 46.2958 17.1825C47.0308 17.1825 47.7429 17.122 48.432 17.0009C49.1326 16.8799 49.6494 16.7629 49.9825 16.6499L50.4648 16.4684C51.1769 16.9122 51.5502 17.5053 51.5846 18.2476C51.5273 18.2718 51.4468 18.3081 51.3434 18.3565C51.2401 18.405 50.9989 18.4897 50.6199 18.6107C50.2524 18.7317 49.8619 18.8366 49.4484 18.9254C49.0349 19.0142 48.4894 19.0949 47.8118 19.1675C47.1342 19.2482 46.4394 19.2885 45.7273 19.2885C40.4096 19.2885 37.7509 17.009 37.7509 12.45ZM41.3859 11.5301H48.9488C49.0177 11.1428 49.0522 10.7716 49.0522 10.4166C49.0522 9.60969 48.7823 8.9601 48.2425 8.4679C47.7027 7.96763 46.8184 7.71747 45.5894 7.71747C43.0398 7.71747 41.6386 8.98836 41.3859 11.5301ZM55.5298 15.1491C55.5298 13.8177 56.0983 12.8373 57.2353 12.2079C58.3724 11.5785 60.0606 11.2639 62.3002 11.2639C63.7703 11.2639 65.1141 11.3122 66.3315 11.4091V10.4892C66.3315 9.6097 66.0501 8.948 65.4874 8.50424C64.936 8.06044 64.0058 7.83853 62.6965 7.83853C61.9614 7.83853 61.1977 7.89099 60.4052 7.99589C59.6242 8.10074 59.0213 8.20565 58.5963 8.31055L57.9588 8.4679L57.9072 8.44371C57.8842 8.41952 57.8498 8.39934 57.8038 8.38318C57.7694 8.35899 57.7234 8.32671 57.666 8.28636C57.6086 8.23792 57.5511 8.18953 57.4938 8.1411C57.4478 8.09271 57.3904 8.03218 57.3214 7.95955C57.264 7.87889 57.2066 7.79818 57.1492 7.71747C57.1147 7.65292 57.0802 7.58837 57.0458 7.52382C57.0228 7.45928 56.9999 7.39874 56.9769 7.34228C56.9654 7.28581 56.9539 7.22929 56.9424 7.17282C56.9309 7.10828 56.9252 7.05582 56.9252 7.01547C56.9252 6.96708 56.9252 6.92266 56.9252 6.88236C56.9252 6.842 56.9252 6.80973 56.9252 6.78553C56.9367 6.75326 56.9424 6.725 56.9424 6.70081V6.67657C57.0114 6.65237 57.109 6.6201 57.2353 6.57974C57.3732 6.53939 57.6545 6.46681 58.0794 6.3619C58.5159 6.24892 58.9581 6.1521 59.406 6.07139C59.8654 5.99073 60.4339 5.9181 61.1115 5.85353C61.7891 5.78898 62.4553 5.75671 63.1099 5.75671C65.5907 5.75671 67.3307 6.14402 68.3299 6.91865C69.3406 7.69328 69.8459 8.91171 69.8459 10.574V18.877C69.5933 18.99 69.1396 19.0464 68.4849 19.0464C68.2208 19.0464 67.9681 19.0343 67.7269 19.0101C67.4972 18.9779 67.3307 18.9496 67.2273 18.9254L67.0723 18.877L66.5382 17.2914C65.6194 18.6228 63.7703 19.2885 60.9909 19.2885C59.2912 19.2885 57.9531 18.9375 56.9769 18.2355C56.0121 17.5335 55.5298 16.5047 55.5298 15.1491ZM59.1648 15.1491C59.1648 16.6418 60.187 17.3883 62.2313 17.3883C63.1272 17.3883 63.8909 17.2228 64.5226 16.892C65.1543 16.5531 65.6137 16.1335 65.9008 15.6332C66.1879 15.1249 66.3315 14.5681 66.3315 13.9629V13.0915C64.7121 12.9947 63.5234 12.9462 62.7654 12.9462C61.5595 12.9462 60.6579 13.1238 60.0606 13.4788C59.4634 13.8258 59.1648 14.3825 59.1648 15.1491ZM74.8592 18.877V6.18036C75.2036 6.06737 75.7892 6.0109 76.6163 6.0109C76.9493 6.0109 77.2598 6.02702 77.547 6.05929C77.8455 6.08348 78.0579 6.11174 78.1842 6.14402L78.3733 6.18036V7.31808C79.683 6.27718 81.4633 5.75671 83.7143 5.75671C85.4481 5.75671 86.7923 6.09965 87.7457 6.78553C88.699 7.46329 89.1753 8.37108 89.1753 9.50881V18.877C88.7851 18.99 88.1994 19.0464 87.4182 19.0464C87.0619 19.0464 86.7345 19.0343 86.436 19.0101C86.1375 18.9779 85.9307 18.9496 85.8157 18.9254L85.6435 18.877V9.94453C85.6435 8.4921 84.5526 7.7659 82.3701 7.7659C81.5896 7.7659 80.8431 7.9071 80.1311 8.18953C79.4191 8.47192 78.8327 8.85926 78.3733 9.35145V18.877C77.9598 18.99 77.3741 19.0464 76.6163 19.0464C76.2486 19.0464 75.9156 19.0343 75.6171 19.0101C75.3299 18.9779 75.1351 18.9496 75.0314 18.9254L74.8592 18.877ZM99.6153 2.29508C99.6153 2.1095 99.6379 1.92794 99.6844 1.75042C99.7416 1.56484 99.7931 1.42363 99.839 1.3268L99.9081 1.19366H116.808C116.992 1.50028 117.084 1.85935 117.084 2.27088C117.084 2.46453 117.061 2.65416 117.015 2.83974C116.969 3.02533 116.923 3.16251 116.877 3.25127L116.808 3.3844H110.244V18.877C109.82 18.99 109.217 19.0464 108.436 19.0464C108.057 19.0464 107.718 19.0343 107.42 19.0101C107.12 18.9779 106.914 18.9496 106.799 18.9254L106.644 18.877V3.3844H99.9081C99.7127 3.10199 99.6153 2.73888 99.6153 2.29508ZM116.274 15.1491C116.274 13.8177 116.843 12.8373 117.98 12.2079C119.117 11.5785 120.805 11.2639 123.045 11.2639C124.515 11.2639 125.859 11.3122 127.076 11.4091V10.4892C127.076 9.6097 126.795 8.948 126.232 8.50424C125.68 8.06044 124.75 7.83853 123.441 7.83853C122.706 7.83853 121.943 7.89099 121.15 7.99589C120.369 8.10074 119.766 8.20565 119.341 8.31055L118.704 8.4679L118.651 8.44371C118.629 8.41952 118.594 8.39934 118.548 8.38318C118.514 8.35899 118.468 8.32671 118.411 8.28636C118.353 8.23792 118.296 8.18953 118.239 8.1411C118.192 8.09271 118.135 8.03218 118.066 7.95955C118.009 7.87889 117.951 7.79818 117.894 7.71747C117.859 7.65292 117.825 7.58837 117.791 7.52382C117.767 7.45928 117.745 7.39874 117.721 7.34228C117.71 7.28581 117.699 7.22929 117.687 7.17282C117.676 7.10828 117.67 7.05582 117.67 7.01547C117.67 6.96708 117.67 6.92266 117.67 6.88236C117.67 6.842 117.67 6.80973 117.67 6.78553C117.681 6.75326 117.687 6.725 117.687 6.70081V6.67657C117.756 6.65237 117.853 6.6201 117.98 6.57974C118.118 6.53939 118.399 6.46681 118.824 6.3619C119.26 6.24892 119.703 6.1521 120.15 6.07139C120.61 5.99073 121.178 5.9181 121.856 5.85353C122.534 5.78898 123.2 5.75671 123.855 5.75671C126.335 5.75671 128.075 6.14402 129.074 6.91865C130.085 7.69328 130.59 8.91171 130.59 10.574V18.877C130.338 18.99 129.884 19.0464 129.23 19.0464C128.965 19.0464 128.712 19.0343 128.471 19.0101C128.242 18.9779 128.075 18.9496 127.972 18.9254L127.817 18.877L127.283 17.2914C126.364 18.6228 124.515 19.2885 121.736 19.2885C120.036 19.2885 118.698 18.9375 117.721 18.2355C116.757 17.5335 116.274 16.5047 116.274 15.1491ZM119.91 15.1491C119.91 16.6418 120.931 17.3883 122.976 17.3883C123.872 17.3883 124.635 17.2228 125.267 16.892C125.899 16.5531 126.358 16.1335 126.646 15.6332C126.933 15.1249 127.076 14.5681 127.076 13.9629V13.0915C125.457 12.9947 124.268 12.9462 123.51 12.9462C122.304 12.9462 121.403 13.1238 120.805 13.4788C120.208 13.8258 119.91 14.3825 119.91 15.1491ZM133.622 18.877L139.859 12.3774L134.001 6.18036C134.473 6.06737 135.121 6.0109 135.948 6.0109C136.327 6.0109 136.678 6.02702 136.999 6.05929C137.321 6.08348 137.551 6.11174 137.688 6.14402L137.895 6.18036L142.047 10.574L146.251 6.18036C146.652 6.06737 147.215 6.0109 147.938 6.0109C148.295 6.0109 148.628 6.02702 148.938 6.05929C149.248 6.08348 149.466 6.11174 149.592 6.14402L149.782 6.18036L143.925 12.2805L150.196 18.877C149.736 18.99 149.093 19.0464 148.266 19.0464C147.887 19.0464 147.537 19.0343 147.215 19.0101C146.893 18.9779 146.664 18.9496 146.526 18.9254L146.319 18.877L141.771 14.084L137.189 18.877C136.753 18.99 136.173 19.0464 135.449 19.0464C135.104 19.0464 134.777 19.0343 134.467 19.0101C134.168 18.9779 133.95 18.9496 133.812 18.9254L133.622 18.877ZM153.348 3.50544V1.16945C153.716 1.05648 154.324 1 155.174 1C155.53 1 155.858 1.01614 156.156 1.04841C156.466 1.07262 156.685 1.10086 156.811 1.13314L157 1.16945V3.50544C156.587 3.61841 155.979 3.67489 155.174 3.67489C154.795 3.67489 154.451 3.66279 154.14 3.63858C153.842 3.6063 153.635 3.57806 153.521 3.55386L153.348 3.50544ZM153.417 18.877V6.18036C153.761 6.06737 154.347 6.0109 155.174 6.0109C155.519 6.0109 155.835 6.02702 156.122 6.05929C156.42 6.08348 156.633 6.11174 156.759 6.14402L156.932 6.18036V18.877C156.541 18.99 155.955 19.0464 155.174 19.0464C154.806 19.0464 154.473 19.0343 154.175 19.0101C153.888 18.9779 153.693 18.9496 153.589 18.9254L153.417 18.877Z" fill="black"/>
<path d="M0.883789 12.45C0.883789 10.1906 1.57864 8.51227 2.96833 7.4149C4.35803 6.30945 6.27603 5.75671 8.72232 5.75671C10.9275 5.75671 12.6445 6.18437 13.8734 7.03966C15.1023 7.88692 15.7168 9.12152 15.7168 10.7434C15.7168 11.2033 15.6823 11.6471 15.6134 12.0748C15.556 12.5024 15.4928 12.8131 15.4239 13.0068L15.3205 13.2972H4.51881C4.65663 14.7174 5.12178 15.722 5.91425 16.311C6.7182 16.892 7.88966 17.1825 9.42867 17.1825C10.1637 17.1825 10.8758 17.122 11.5649 17.0009C12.2655 16.8799 12.7823 16.7629 13.1154 16.6499L13.5978 16.4684C14.3098 16.9122 14.6831 17.5053 14.7175 18.2476C14.6602 18.2718 14.5797 18.3081 14.4763 18.3565C14.373 18.405 14.1319 18.4897 13.7528 18.6107C13.3853 18.7317 12.9948 18.8366 12.5813 18.9254C12.1679 19.0142 11.6223 19.0949 10.9447 19.1675C10.2671 19.2482 9.57227 19.2885 8.8602 19.2885C3.54258 19.2885 0.883789 17.009 0.883789 12.45ZM4.51881 11.5301H12.0817C12.1506 11.1428 12.1851 10.7716 12.1851 10.4166C12.1851 9.60969 11.9152 8.9601 11.3754 8.4679C10.8356 7.96763 9.95127 7.71747 8.72232 7.71747C6.17266 7.71747 4.77149 8.98836 4.51881 11.5301ZM18.2664 21.794C18.2664 21.3501 18.3813 20.9306 18.611 20.5352C18.8407 20.1398 19.1393 19.7969 19.5068 19.5064C19.8744 19.224 20.2074 18.998 20.5061 18.8286C20.8046 18.6591 21.109 18.5098 21.4191 18.3807C20.9023 18.0176 20.6439 17.5375 20.6439 16.9404C20.6439 16.0367 21.2066 15.1208 22.3322 14.1929C20.1959 13.499 19.1278 12.1757 19.1278 10.2229C19.1278 8.8189 19.7193 7.72555 20.9023 6.94284C22.0967 6.1521 23.808 5.75671 26.0361 5.75671C27.6211 5.75671 28.9246 5.94631 29.9468 6.32556L34.8911 5.75671C35.0519 6.01492 35.1323 6.33766 35.1323 6.725C35.1323 7.11229 35.0519 7.44316 34.8911 7.71747L31.9624 7.62065C32.617 8.29037 32.9444 9.15781 32.9444 10.2229C32.9444 11.627 32.3529 12.7243 31.17 13.5151C29.9869 14.2978 28.2757 14.6891 26.0361 14.6891C25.5422 14.6891 25.0254 14.6609 24.4856 14.6044C24.0262 15.0401 23.7965 15.4718 23.7965 15.8995C23.7965 15.9479 23.8023 15.9964 23.8138 16.0447C23.8597 16.311 24.055 16.5329 24.3995 16.7105C24.744 16.8799 25.1805 16.9969 25.7088 17.0615C26.2371 17.126 26.8286 17.1946 27.4833 17.2672C28.1379 17.3398 28.804 17.4044 29.4816 17.4609C30.1593 17.5174 30.8196 17.6303 31.4628 17.7998C32.106 17.9612 32.6802 18.1629 33.1856 18.405C33.6909 18.639 34.0929 18.9779 34.3915 19.4216C34.7016 19.8654 34.8567 20.394 34.8567 21.0072C34.8567 22.2499 34.0469 23.2666 32.4276 24.0573C30.8082 24.8481 28.5973 25.2435 25.7949 25.2435C23.2567 25.2435 21.3674 24.9288 20.1271 24.2994C18.8866 23.6781 18.2664 22.8429 18.2664 21.794ZM21.6947 21.2977C21.6947 21.9513 22.0451 22.4798 22.7456 22.8833C23.4577 23.2867 24.5086 23.4885 25.8983 23.4885C27.6785 23.4885 29.0567 23.2827 30.0329 22.8711C31.0091 22.4677 31.4972 21.9271 31.4972 21.2493C31.4972 20.862 31.3193 20.5473 30.9632 20.3052C30.6186 20.0712 30.1305 19.8977 29.4989 19.7848C28.8787 19.6799 28.2413 19.5992 27.5866 19.5427C26.9319 19.4862 26.1912 19.4176 25.3642 19.3369C24.5373 19.2562 23.8539 19.1594 23.3142 19.0464C22.8432 19.3127 22.4528 19.6435 22.1427 20.039C21.844 20.4424 21.6947 20.862 21.6947 21.2977ZM23.4175 8.18953C22.7859 8.64137 22.47 9.31918 22.47 10.2229C22.47 11.1267 22.7859 11.8045 23.4175 12.2563C24.0607 12.7001 24.9336 12.922 26.0361 12.922C27.1387 12.922 28.0001 12.7001 28.6203 12.2563C29.2519 11.8045 29.5678 11.1267 29.5678 10.2229C29.5678 9.31918 29.2519 8.64137 28.6203 8.18953C28.0001 7.72961 27.1387 7.49963 26.0361 7.49963C24.9336 7.49963 24.0607 7.72961 23.4175 8.18953ZM37.7509 12.45C37.7509 10.1906 38.4457 8.51227 39.8354 7.4149C41.2251 6.30945 43.1431 5.75671 45.5894 5.75671C47.7946 5.75671 49.5116 6.18437 50.7405 7.03966C51.9694 7.88692 52.5838 9.12152 52.5838 10.7434C52.5838 11.2033 52.5494 11.6471 52.4805 12.0748C52.4231 12.5024 52.3599 12.8131 52.291 13.0068L52.1876 13.2972H41.3859C41.5237 14.7174 41.9889 15.722 42.7813 16.311C43.5853 16.892 44.7568 17.1825 46.2958 17.1825C47.0308 17.1825 47.7429 17.122 48.432 17.0009C49.1326 16.8799 49.6494 16.7629 49.9825 16.6499L50.4648 16.4684C51.1769 16.9122 51.5502 17.5053 51.5846 18.2476C51.5273 18.2718 51.4468 18.3081 51.3434 18.3565C51.2401 18.405 50.9989 18.4897 50.6199 18.6107C50.2524 18.7317 49.8619 18.8366 49.4484 18.9254C49.0349 19.0142 48.4894 19.0949 47.8118 19.1675C47.1342 19.2482 46.4394 19.2885 45.7273 19.2885C40.4096 19.2885 37.7509 17.009 37.7509 12.45ZM41.3859 11.5301H48.9488C49.0177 11.1428 49.0522 10.7716 49.0522 10.4166C49.0522 9.60969 48.7823 8.9601 48.2425 8.4679C47.7027 7.96763 46.8184 7.71747 45.5894 7.71747C43.0398 7.71747 41.6386 8.98836 41.3859 11.5301ZM55.5298 15.1491C55.5298 13.8177 56.0983 12.8373 57.2353 12.2079C58.3724 11.5785 60.0606 11.2639 62.3002 11.2639C63.7703 11.2639 65.1141 11.3122 66.3315 11.4091V10.4892C66.3315 9.6097 66.0501 8.948 65.4874 8.50424C64.936 8.06044 64.0058 7.83853 62.6965 7.83853C61.9614 7.83853 61.1977 7.89099 60.4052 7.99589C59.6242 8.10074 59.0213 8.20565 58.5963 8.31055L57.9588 8.4679L57.9072 8.44371C57.8842 8.41952 57.8498 8.39934 57.8038 8.38318C57.7694 8.35899 57.7234 8.32671 57.666 8.28636C57.6086 8.23792 57.5511 8.18953 57.4938 8.1411C57.4478 8.09271 57.3904 8.03218 57.3214 7.95955C57.264 7.87889 57.2066 7.79818 57.1492 7.71747C57.1147 7.65292 57.0802 7.58837 57.0458 7.52382C57.0228 7.45928 56.9999 7.39874 56.9769 7.34228C56.9654 7.28581 56.9539 7.22929 56.9424 7.17282C56.9309 7.10828 56.9252 7.05582 56.9252 7.01547C56.9252 6.96708 56.9252 6.92266 56.9252 6.88236C56.9252 6.842 56.9252 6.80973 56.9252 6.78553C56.9367 6.75326 56.9424 6.725 56.9424 6.70081V6.67657C57.0114 6.65237 57.109 6.6201 57.2353 6.57974C57.3732 6.53939 57.6545 6.46681 58.0794 6.3619C58.5159 6.24892 58.9581 6.1521 59.406 6.07139C59.8654 5.99073 60.4339 5.9181 61.1115 5.85353C61.7891 5.78898 62.4553 5.75671 63.1099 5.75671C65.5907 5.75671 67.3307 6.14402 68.3299 6.91865C69.3406 7.69328 69.8459 8.91171 69.8459 10.574V18.877C69.5933 18.99 69.1396 19.0464 68.4849 19.0464C68.2208 19.0464 67.9681 19.0343 67.7269 19.0101C67.4972 18.9779 67.3307 18.9496 67.2273 18.9254L67.0723 18.877L66.5382 17.2914C65.6194 18.6228 63.7703 19.2885 60.9909 19.2885C59.2912 19.2885 57.9531 18.9375 56.9769 18.2355C56.0121 17.5335 55.5298 16.5047 55.5298 15.1491ZM59.1648 15.1491C59.1648 16.6418 60.187 17.3883 62.2313 17.3883C63.1272 17.3883 63.8909 17.2228 64.5226 16.892C65.1543 16.5531 65.6137 16.1335 65.9008 15.6332C66.1879 15.1249 66.3315 14.5681 66.3315 13.9629V13.0915C64.7121 12.9947 63.5234 12.9462 62.7654 12.9462C61.5595 12.9462 60.6579 13.1238 60.0606 13.4788C59.4634 13.8258 59.1648 14.3825 59.1648 15.1491ZM74.8592 18.877V6.18036C75.2036 6.06737 75.7892 6.0109 76.6163 6.0109C76.9493 6.0109 77.2598 6.02702 77.547 6.05929C77.8455 6.08348 78.0579 6.11174 78.1842 6.14402L78.3733 6.18036V7.31808C79.683 6.27718 81.4633 5.75671 83.7143 5.75671C85.4481 5.75671 86.7923 6.09965 87.7457 6.78553C88.699 7.46329 89.1753 8.37108 89.1753 9.50881V18.877C88.7851 18.99 88.1994 19.0464 87.4182 19.0464C87.0619 19.0464 86.7345 19.0343 86.436 19.0101C86.1375 18.9779 85.9307 18.9496 85.8157 18.9254L85.6435 18.877V9.94453C85.6435 8.4921 84.5526 7.7659 82.3701 7.7659C81.5896 7.7659 80.8431 7.9071 80.1311 8.18953C79.4191 8.47192 78.8327 8.85926 78.3733 9.35145V18.877C77.9598 18.99 77.3741 19.0464 76.6163 19.0464C76.2486 19.0464 75.9156 19.0343 75.6171 19.0101C75.3299 18.9779 75.1351 18.9496 75.0314 18.9254L74.8592 18.877ZM99.6153 2.29508C99.6153 2.1095 99.6379 1.92794 99.6844 1.75042C99.7416 1.56484 99.7931 1.42363 99.839 1.3268L99.9081 1.19366H116.808C116.992 1.50028 117.084 1.85935 117.084 2.27088C117.084 2.46453 117.061 2.65416 117.015 2.83974C116.969 3.02533 116.923 3.16251 116.877 3.25127L116.808 3.3844H110.244V18.877C109.82 18.99 109.217 19.0464 108.436 19.0464C108.057 19.0464 107.718 19.0343 107.42 19.0101C107.12 18.9779 106.914 18.9496 106.799 18.9254L106.644 18.877V3.3844H99.9081C99.7127 3.10199 99.6153 2.73888 99.6153 2.29508ZM116.274 15.1491C116.274 13.8177 116.843 12.8373 117.98 12.2079C119.117 11.5785 120.805 11.2639 123.045 11.2639C124.515 11.2639 125.859 11.3122 127.076 11.4091V10.4892C127.076 9.6097 126.795 8.948 126.232 8.50424C125.68 8.06044 124.75 7.83853 123.441 7.83853C122.706 7.83853 121.943 7.89099 121.15 7.99589C120.369 8.10074 119.766 8.20565 119.341 8.31055L118.704 8.4679L118.651 8.44371C118.629 8.41952 118.594 8.39934 118.548 8.38318C118.514 8.35899 118.468 8.32671 118.411 8.28636C118.353 8.23792 118.296 8.18953 118.239 8.1411C118.192 8.09271 118.135 8.03218 118.066 7.95955C118.009 7.87889 117.951 7.79818 117.894 7.71747C117.859 7.65292 117.825 7.58837 117.791 7.52382C117.767 7.45928 117.745 7.39874 117.721 7.34228C117.71 7.28581 117.699 7.22929 117.687 7.17282C117.676 7.10828 117.67 7.05582 117.67 7.01547C117.67 6.96708 117.67 6.92266 117.67 6.88236C117.67 6.842 117.67 6.80973 117.67 6.78553C117.681 6.75326 117.687 6.725 117.687 6.70081V6.67657C117.756 6.65237 117.853 6.6201 117.98 6.57974C118.118 6.53939 118.399 6.46681 118.824 6.3619C119.26 6.24892 119.703 6.1521 120.15 6.07139C120.61 5.99073 121.178 5.9181 121.856 5.85353C122.534 5.78898 123.2 5.75671 123.855 5.75671C126.335 5.75671 128.075 6.14402 129.074 6.91865C130.085 7.69328 130.59 8.91171 130.59 10.574V18.877C130.338 18.99 129.884 19.0464 129.23 19.0464C128.965 19.0464 128.712 19.0343 128.471 19.0101C128.242 18.9779 128.075 18.9496 127.972 18.9254L127.817 18.877L127.283 17.2914C126.364 18.6228 124.515 19.2885 121.736 19.2885C120.036 19.2885 118.698 18.9375 117.721 18.2355C116.757 17.5335 116.274 16.5047 116.274 15.1491ZM119.91 15.1491C119.91 16.6418 120.931 17.3883 122.976 17.3883C123.872 17.3883 124.635 17.2228 125.267 16.892C125.899 16.5531 126.358 16.1335 126.646 15.6332C126.933 15.1249 127.076 14.5681 127.076 13.9629V13.0915C125.457 12.9947 124.268 12.9462 123.51 12.9462C122.304 12.9462 121.403 13.1238 120.805 13.4788C120.208 13.8258 119.91 14.3825 119.91 15.1491ZM133.622 18.877L139.859 12.3774L134.001 6.18036C134.473 6.06737 135.121 6.0109 135.948 6.0109C136.327 6.0109 136.678 6.02702 136.999 6.05929C137.321 6.08348 137.551 6.11174 137.688 6.14402L137.895 6.18036L142.047 10.574L146.251 6.18036C146.652 6.06737 147.215 6.0109 147.938 6.0109C148.295 6.0109 148.628 6.02702 148.938 6.05929C149.248 6.08348 149.466 6.11174 149.592 6.14402L149.782 6.18036L143.925 12.2805L150.196 18.877C149.736 18.99 149.093 19.0464 148.266 19.0464C147.887 19.0464 147.537 19.0343 147.215 19.0101C146.893 18.9779 146.664 18.9496 146.526 18.9254L146.319 18.877L141.771 14.084L137.189 18.877C136.753 18.99 136.173 19.0464 135.449 19.0464C135.104 19.0464 134.777 19.0343 134.467 19.0101C134.168 18.9779 133.95 18.9496 133.812 18.9254L133.622 18.877ZM153.348 3.50544V1.16945C153.716 1.05648 154.324 1 155.174 1C155.53 1 155.858 1.01614 156.156 1.04841C156.466 1.07262 156.685 1.10086 156.811 1.13314L157 1.16945V3.50544C156.587 3.61841 155.979 3.67489 155.174 3.67489C154.795 3.67489 154.451 3.66279 154.14 3.63858C153.842 3.6063 153.635 3.57806 153.521 3.55386L153.348 3.50544ZM153.417 18.877V6.18036C153.761 6.06737 154.347 6.0109 155.174 6.0109C155.519 6.0109 155.835 6.02702 156.122 6.05929C156.42 6.08348 156.633 6.11174 156.759 6.14402L156.932 6.18036V18.877C156.541 18.99 155.955 19.0464 155.174 19.0464C154.806 19.0464 154.473 19.0343 154.175 19.0101C153.888 18.9779 153.693 18.9496 153.589 18.9254L153.417 18.877Z" stroke="black" stroke-width="0.6" mask="url(#path-1-outside-1_92_1719)"/>
</svg>
