<svg width="158" height="26" viewBox="0 0 158 26" fill="none" xmlns="http://www.w3.org/2000/svg">
<mask id="path-1-outside-1_92_1924" maskUnits="userSpaceOnUse" x="-0.116699" y="0" width="158" height="26" fill="black">
<rect fill="white" x="-0.116699" width="158" height="26"/>
<path d="M0.883301 12.45C0.883301 10.1906 1.57815 8.51227 2.96784 7.4149C4.35754 6.30945 6.27555 5.75671 8.72183 5.75671C10.927 5.75671 12.644 6.18437 13.8729 7.03966C15.1018 7.88692 15.7163 9.12152 15.7163 10.7434C15.7163 11.2033 15.6818 11.6471 15.6129 12.0748C15.5555 12.5024 15.4923 12.8131 15.4234 13.0068L15.32 13.2972H4.51833C4.65614 14.7174 5.12129 15.722 5.91376 16.311C6.71772 16.892 7.88917 17.1825 9.42818 17.1825C10.1632 17.1825 10.8753 17.122 11.5644 17.0009C12.265 16.8799 12.7818 16.7629 13.1149 16.6499L13.5973 16.4684C14.3093 16.9122 14.6826 17.5053 14.717 18.2476C14.6597 18.2718 14.5792 18.3081 14.4759 18.3565C14.3726 18.405 14.1314 18.4897 13.7523 18.6107C13.3848 18.7317 12.9943 18.8366 12.5809 18.9254C12.1674 19.0142 11.6218 19.0949 10.9443 19.1675C10.2666 19.2482 9.57178 19.2885 8.85972 19.2885C3.5421 19.2885 0.883301 17.009 0.883301 12.45ZM4.51833 11.5301H12.0813C12.1501 11.1428 12.1846 10.7716 12.1846 10.4166C12.1846 9.60969 11.9147 8.9601 11.3749 8.4679C10.8351 7.96763 9.95078 7.71747 8.72183 7.71747C6.17218 7.71747 4.771 8.98836 4.51833 11.5301ZM18.2659 21.794C18.2659 21.3501 18.3808 20.9306 18.6105 20.5352C18.8402 20.1398 19.1388 19.7969 19.5063 19.5064C19.8739 19.224 20.2069 18.998 20.5056 18.8286C20.8041 18.6591 21.1085 18.5098 21.4186 18.3807C20.9018 18.0176 20.6434 17.5375 20.6434 16.9404C20.6434 16.0367 21.2061 15.1208 22.3317 14.1929C20.1954 13.499 19.1273 12.1757 19.1273 10.2229C19.1273 8.8189 19.7189 7.72555 20.9018 6.94284C22.0962 6.1521 23.8075 5.75671 26.0356 5.75671C27.6206 5.75671 28.9241 5.94631 29.9463 6.32556L34.8906 5.75671C35.0514 6.01492 35.1318 6.33766 35.1318 6.725C35.1318 7.11229 35.0514 7.44316 34.8906 7.71747L31.9619 7.62065C32.6165 8.29037 32.9439 9.15781 32.9439 10.2229C32.9439 11.627 32.3524 12.7243 31.1695 13.5151C29.9865 14.2978 28.2752 14.6891 26.0356 14.6891C25.5418 14.6891 25.0249 14.6609 24.4851 14.6044C24.0257 15.0401 23.796 15.4718 23.796 15.8995C23.796 15.9479 23.8018 15.9964 23.8133 16.0447C23.8592 16.311 24.0545 16.5329 24.399 16.7105C24.7435 16.8799 25.18 16.9969 25.7083 17.0615C26.2366 17.126 26.8281 17.1946 27.4828 17.2672C28.1374 17.3398 28.8035 17.4044 29.4811 17.4609C30.1588 17.5174 30.8191 17.6303 31.4623 17.7998C32.1055 17.9612 32.6798 18.1629 33.1851 18.405C33.6904 18.639 34.0924 18.9779 34.391 19.4216C34.7011 19.8654 34.8562 20.394 34.8562 21.0072C34.8562 22.2499 34.0464 23.2666 32.4271 24.0573C30.8077 24.8481 28.5968 25.2435 25.7944 25.2435C23.2562 25.2435 21.367 24.9288 20.1266 24.2994C18.8861 23.6781 18.2659 22.8429 18.2659 21.794ZM21.6942 21.2977C21.6942 21.9513 22.0446 22.4798 22.7451 22.8833C23.4572 23.2867 24.5081 23.4885 25.8978 23.4885C27.678 23.4885 29.0562 23.2827 30.0324 22.8711C31.0086 22.4677 31.4967 21.9271 31.4967 21.2493C31.4967 20.862 31.3188 20.5473 30.9627 20.3052C30.6181 20.0712 30.1301 19.8977 29.4984 19.7848C28.8782 19.6799 28.2408 19.5992 27.5861 19.5427C26.9314 19.4862 26.1907 19.4176 25.3637 19.3369C24.5368 19.2562 23.8534 19.1594 23.3137 19.0464C22.8427 19.3127 22.4523 19.6435 22.1422 20.039C21.8435 20.4424 21.6942 20.862 21.6942 21.2977ZM23.417 8.18953C22.7854 8.64137 22.4695 9.31918 22.4695 10.2229C22.4695 11.1267 22.7854 11.8045 23.417 12.2563C24.0602 12.7001 24.9331 12.922 26.0356 12.922C27.1382 12.922 27.9996 12.7001 28.6198 12.2563C29.2515 11.8045 29.5673 11.1267 29.5673 10.2229C29.5673 9.31918 29.2515 8.64137 28.6198 8.18953C27.9996 7.72961 27.1382 7.49963 26.0356 7.49963C24.9331 7.49963 24.0602 7.72961 23.417 8.18953ZM37.7504 12.45C37.7504 10.1906 38.4452 8.51227 39.8349 7.4149C41.2246 6.30945 43.1426 5.75671 45.5889 5.75671C47.7941 5.75671 49.5111 6.18437 50.74 7.03966C51.9689 7.88692 52.5833 9.12152 52.5833 10.7434C52.5833 11.2033 52.5489 11.6471 52.48 12.0748C52.4226 12.5024 52.3594 12.8131 52.2905 13.0068L52.1871 13.2972H41.3854C41.5232 14.7174 41.9884 15.722 42.7808 16.311C43.5848 16.892 44.7563 17.1825 46.2953 17.1825C47.0303 17.1825 47.7424 17.122 48.4315 17.0009C49.1321 16.8799 49.6489 16.7629 49.982 16.6499L50.4644 16.4684C51.1764 16.9122 51.5497 17.5053 51.5841 18.2476C51.5268 18.2718 51.4463 18.3081 51.343 18.3565C51.2396 18.405 50.9985 18.4897 50.6194 18.6107C50.2519 18.7317 49.8614 18.8366 49.4479 18.9254C49.0344 19.0142 48.4889 19.0949 47.8114 19.1675C47.1337 19.2482 46.4389 19.2885 45.7268 19.2885C40.4092 19.2885 37.7504 17.009 37.7504 12.45ZM41.3854 11.5301H48.9484C49.0172 11.1428 49.0517 10.7716 49.0517 10.4166C49.0517 9.60969 48.7818 8.9601 48.242 8.4679C47.7022 7.96763 46.8179 7.71747 45.5889 7.71747C43.0393 7.71747 41.6381 8.98836 41.3854 11.5301ZM55.5293 15.1491C55.5293 13.8177 56.0978 12.8373 57.2348 12.2079C58.3719 11.5785 60.0601 11.2639 62.2998 11.2639C63.7698 11.2639 65.1136 11.3122 66.331 11.4091V10.4892C66.331 9.6097 66.0496 8.948 65.4869 8.50424C64.9355 8.06044 64.0053 7.83853 62.696 7.83853C61.9609 7.83853 61.1972 7.89099 60.4047 7.99589C59.6237 8.10074 59.0208 8.20565 58.5958 8.31055L57.9584 8.4679L57.9067 8.44371C57.8837 8.41952 57.8493 8.39934 57.8033 8.38318C57.7689 8.35899 57.723 8.32671 57.6655 8.28636C57.6081 8.23792 57.5506 8.18953 57.4933 8.1411C57.4473 8.09271 57.3899 8.03218 57.3209 7.95955C57.2635 7.87889 57.2061 7.79818 57.1487 7.71747C57.1142 7.65292 57.0798 7.58837 57.0453 7.52382C57.0223 7.45928 56.9994 7.39874 56.9764 7.34228C56.965 7.28581 56.9534 7.22929 56.9419 7.17282C56.9304 7.10828 56.9247 7.05582 56.9247 7.01547C56.9247 6.96708 56.9247 6.92266 56.9247 6.88236C56.9247 6.842 56.9247 6.80973 56.9247 6.78553C56.9362 6.75326 56.9419 6.725 56.9419 6.70081V6.67657C57.0109 6.65237 57.1085 6.6201 57.2348 6.57974C57.3727 6.53939 57.654 6.46681 58.079 6.3619C58.5154 6.24892 58.9576 6.1521 59.4055 6.07139C59.8649 5.99073 60.4334 5.9181 61.111 5.85353C61.7887 5.78898 62.4548 5.75671 63.1094 5.75671C65.5902 5.75671 67.3302 6.14402 68.3294 6.91865C69.3401 7.69328 69.8454 8.91171 69.8454 10.574V18.877C69.5928 18.99 69.1391 19.0464 68.4844 19.0464C68.2203 19.0464 67.9676 19.0343 67.7264 19.0101C67.4967 18.9779 67.3302 18.9496 67.2268 18.9254L67.0718 18.877L66.5377 17.2914C65.619 18.6228 63.7698 19.2885 60.9904 19.2885C59.2907 19.2885 57.9526 18.9375 56.9764 18.2355C56.0116 17.5335 55.5293 16.5047 55.5293 15.1491ZM59.1643 15.1491C59.1643 16.6418 60.1865 17.3883 62.2308 17.3883C63.1267 17.3883 63.8904 17.2228 64.5221 16.892C65.1538 16.5531 65.6132 16.1335 65.9003 15.6332C66.1874 15.1249 66.331 14.5681 66.331 13.9629V13.0915C64.7116 12.9947 63.5229 12.9462 62.7649 12.9462C61.559 12.9462 60.6574 13.1238 60.0601 13.4788C59.4629 13.8258 59.1643 14.3825 59.1643 15.1491ZM74.8587 18.877V6.18036C75.2031 6.06737 75.7888 6.0109 76.6158 6.0109C76.9488 6.0109 77.2593 6.02702 77.5465 6.05929C77.845 6.08348 78.0574 6.11174 78.1837 6.14402L78.3728 6.18036V7.31808C79.6825 6.27718 81.4628 5.75671 83.7138 5.75671C85.4476 5.75671 86.7918 6.09965 87.7452 6.78553C88.6985 7.46329 89.1748 8.37108 89.1748 9.50881V18.877C88.7846 18.99 88.1989 19.0464 87.4178 19.0464C87.0614 19.0464 86.734 19.0343 86.4355 19.0101C86.137 18.9779 85.9303 18.9496 85.8152 18.9254L85.6431 18.877V9.94453C85.6431 8.4921 84.5521 7.7659 82.3696 7.7659C81.5891 7.7659 80.8426 7.9071 80.1306 8.18953C79.4186 8.47192 78.8322 8.85926 78.3728 9.35145V18.877C77.9593 18.99 77.3736 19.0464 76.6158 19.0464C76.2481 19.0464 75.9151 19.0343 75.6166 19.0101C75.3294 18.9779 75.1346 18.9496 75.0309 18.9254L74.8587 18.877ZM99.6148 2.29508C99.6148 2.1095 99.6374 1.92794 99.6839 1.75042C99.7411 1.56484 99.7926 1.42363 99.8385 1.3268L99.9076 1.19366H116.808C116.992 1.50028 117.084 1.85935 117.084 2.27088C117.084 2.46453 117.06 2.65416 117.015 2.83974C116.969 3.02533 116.923 3.16251 116.877 3.25127L116.808 3.3844H110.244V18.877C109.819 18.99 109.216 19.0464 108.435 19.0464C108.056 19.0464 107.718 19.0343 107.419 19.0101C107.12 18.9779 106.913 18.9496 106.799 18.9254L106.644 18.877V3.3844H99.9076C99.7122 3.10199 99.6148 2.73888 99.6148 2.29508ZM116.274 15.1491C116.274 13.8177 116.842 12.8373 117.979 12.2079C119.117 11.5785 120.805 11.2639 123.044 11.2639C124.514 11.2639 125.858 11.3122 127.076 11.4091V10.4892C127.076 9.6097 126.794 8.948 126.232 8.50424C125.68 8.06044 124.75 7.83853 123.441 7.83853C122.706 7.83853 121.942 7.89099 121.15 7.99589C120.368 8.10074 119.765 8.20565 119.34 8.31055L118.703 8.4679L118.651 8.44371C118.628 8.41952 118.594 8.39934 118.548 8.38318C118.513 8.35899 118.467 8.32671 118.41 8.28636C118.352 8.23792 118.295 8.18953 118.238 8.1411C118.192 8.09271 118.134 8.03218 118.065 7.95955C118.008 7.87889 117.951 7.79818 117.893 7.71747C117.858 7.65292 117.825 7.58837 117.79 7.52382C117.767 7.45928 117.744 7.39874 117.721 7.34228C117.71 7.28581 117.698 7.22929 117.686 7.17282C117.675 7.10828 117.669 7.05582 117.669 7.01547C117.669 6.96708 117.669 6.92266 117.669 6.88236C117.669 6.842 117.669 6.80973 117.669 6.78553C117.681 6.75326 117.686 6.725 117.686 6.70081V6.67657C117.755 6.65237 117.853 6.6201 117.979 6.57974C118.117 6.53939 118.398 6.46681 118.824 6.3619C119.26 6.24892 119.702 6.1521 120.15 6.07139C120.61 5.99073 121.178 5.9181 121.855 5.85353C122.533 5.78898 123.199 5.75671 123.854 5.75671C126.335 5.75671 128.075 6.14402 129.074 6.91865C130.084 7.69328 130.59 8.91171 130.59 10.574V18.877C130.337 18.99 129.883 19.0464 129.229 19.0464C128.965 19.0464 128.712 19.0343 128.471 19.0101C128.241 18.9779 128.075 18.9496 127.971 18.9254L127.817 18.877L127.282 17.2914C126.364 18.6228 124.514 19.2885 121.735 19.2885C120.035 19.2885 118.697 18.9375 117.721 18.2355C116.756 17.5335 116.274 16.5047 116.274 15.1491ZM119.909 15.1491C119.909 16.6418 120.931 17.3883 122.975 17.3883C123.871 17.3883 124.635 17.2228 125.266 16.892C125.899 16.5531 126.358 16.1335 126.645 15.6332C126.932 15.1249 127.076 14.5681 127.076 13.9629V13.0915C125.456 12.9947 124.267 12.9462 123.509 12.9462C122.303 12.9462 121.402 13.1238 120.805 13.4788C120.208 13.8258 119.909 14.3825 119.909 15.1491ZM133.622 18.877L139.858 12.3774L134.001 6.18036C134.472 6.06737 135.121 6.0109 135.948 6.0109C136.327 6.0109 136.677 6.02702 136.998 6.05929C137.32 6.08348 137.55 6.11174 137.688 6.14402L137.895 6.18036L142.047 10.574L146.25 6.18036C146.652 6.06737 147.215 6.0109 147.938 6.0109C148.294 6.0109 148.627 6.02702 148.937 6.05929C149.248 6.08348 149.466 6.11174 149.592 6.14402L149.782 6.18036L143.924 12.2805L150.195 18.877C149.736 18.99 149.092 19.0464 148.265 19.0464C147.886 19.0464 147.536 19.0343 147.215 19.0101C146.893 18.9779 146.664 18.9496 146.525 18.9254L146.318 18.877L141.771 14.084L137.188 18.877C136.752 18.99 136.172 19.0464 135.448 19.0464C135.104 19.0464 134.776 19.0343 134.466 19.0101C134.167 18.9779 133.949 18.9496 133.812 18.9254L133.622 18.877ZM153.347 3.50544V1.16945C153.715 1.05648 154.324 1 155.174 1C155.53 1 155.857 1.01614 156.156 1.04841C156.466 1.07262 156.684 1.10086 156.811 1.13314L157 1.16945V3.50544C156.586 3.61841 155.978 3.67489 155.174 3.67489C154.795 3.67489 154.45 3.66279 154.14 3.63858C153.841 3.6063 153.635 3.57806 153.52 3.55386L153.347 3.50544ZM153.417 18.877V6.18036C153.761 6.06737 154.347 6.0109 155.174 6.0109C155.519 6.0109 155.834 6.02702 156.121 6.05929C156.42 6.08348 156.632 6.11174 156.758 6.14402L156.931 6.18036V18.877C156.54 18.99 155.955 19.0464 155.174 19.0464C154.806 19.0464 154.473 19.0343 154.174 19.0101C153.887 18.9779 153.692 18.9496 153.589 18.9254L153.417 18.877Z"/>
</mask>
<path d="M0.883301 12.45C0.883301 10.1906 1.57815 8.51227 2.96784 7.4149C4.35754 6.30945 6.27555 5.75671 8.72183 5.75671C10.927 5.75671 12.644 6.18437 13.8729 7.03966C15.1018 7.88692 15.7163 9.12152 15.7163 10.7434C15.7163 11.2033 15.6818 11.6471 15.6129 12.0748C15.5555 12.5024 15.4923 12.8131 15.4234 13.0068L15.32 13.2972H4.51833C4.65614 14.7174 5.12129 15.722 5.91376 16.311C6.71772 16.892 7.88917 17.1825 9.42818 17.1825C10.1632 17.1825 10.8753 17.122 11.5644 17.0009C12.265 16.8799 12.7818 16.7629 13.1149 16.6499L13.5973 16.4684C14.3093 16.9122 14.6826 17.5053 14.717 18.2476C14.6597 18.2718 14.5792 18.3081 14.4759 18.3565C14.3726 18.405 14.1314 18.4897 13.7523 18.6107C13.3848 18.7317 12.9943 18.8366 12.5809 18.9254C12.1674 19.0142 11.6218 19.0949 10.9443 19.1675C10.2666 19.2482 9.57178 19.2885 8.85972 19.2885C3.5421 19.2885 0.883301 17.009 0.883301 12.45ZM4.51833 11.5301H12.0813C12.1501 11.1428 12.1846 10.7716 12.1846 10.4166C12.1846 9.60969 11.9147 8.9601 11.3749 8.4679C10.8351 7.96763 9.95078 7.71747 8.72183 7.71747C6.17218 7.71747 4.771 8.98836 4.51833 11.5301ZM18.2659 21.794C18.2659 21.3501 18.3808 20.9306 18.6105 20.5352C18.8402 20.1398 19.1388 19.7969 19.5063 19.5064C19.8739 19.224 20.2069 18.998 20.5056 18.8286C20.8041 18.6591 21.1085 18.5098 21.4186 18.3807C20.9018 18.0176 20.6434 17.5375 20.6434 16.9404C20.6434 16.0367 21.2061 15.1208 22.3317 14.1929C20.1954 13.499 19.1273 12.1757 19.1273 10.2229C19.1273 8.8189 19.7189 7.72555 20.9018 6.94284C22.0962 6.1521 23.8075 5.75671 26.0356 5.75671C27.6206 5.75671 28.9241 5.94631 29.9463 6.32556L34.8906 5.75671C35.0514 6.01492 35.1318 6.33766 35.1318 6.725C35.1318 7.11229 35.0514 7.44316 34.8906 7.71747L31.9619 7.62065C32.6165 8.29037 32.9439 9.15781 32.9439 10.2229C32.9439 11.627 32.3524 12.7243 31.1695 13.5151C29.9865 14.2978 28.2752 14.6891 26.0356 14.6891C25.5418 14.6891 25.0249 14.6609 24.4851 14.6044C24.0257 15.0401 23.796 15.4718 23.796 15.8995C23.796 15.9479 23.8018 15.9964 23.8133 16.0447C23.8592 16.311 24.0545 16.5329 24.399 16.7105C24.7435 16.8799 25.18 16.9969 25.7083 17.0615C26.2366 17.126 26.8281 17.1946 27.4828 17.2672C28.1374 17.3398 28.8035 17.4044 29.4811 17.4609C30.1588 17.5174 30.8191 17.6303 31.4623 17.7998C32.1055 17.9612 32.6798 18.1629 33.1851 18.405C33.6904 18.639 34.0924 18.9779 34.391 19.4216C34.7011 19.8654 34.8562 20.394 34.8562 21.0072C34.8562 22.2499 34.0464 23.2666 32.4271 24.0573C30.8077 24.8481 28.5968 25.2435 25.7944 25.2435C23.2562 25.2435 21.367 24.9288 20.1266 24.2994C18.8861 23.6781 18.2659 22.8429 18.2659 21.794ZM21.6942 21.2977C21.6942 21.9513 22.0446 22.4798 22.7451 22.8833C23.4572 23.2867 24.5081 23.4885 25.8978 23.4885C27.678 23.4885 29.0562 23.2827 30.0324 22.8711C31.0086 22.4677 31.4967 21.9271 31.4967 21.2493C31.4967 20.862 31.3188 20.5473 30.9627 20.3052C30.6181 20.0712 30.1301 19.8977 29.4984 19.7848C28.8782 19.6799 28.2408 19.5992 27.5861 19.5427C26.9314 19.4862 26.1907 19.4176 25.3637 19.3369C24.5368 19.2562 23.8534 19.1594 23.3137 19.0464C22.8427 19.3127 22.4523 19.6435 22.1422 20.039C21.8435 20.4424 21.6942 20.862 21.6942 21.2977ZM23.417 8.18953C22.7854 8.64137 22.4695 9.31918 22.4695 10.2229C22.4695 11.1267 22.7854 11.8045 23.417 12.2563C24.0602 12.7001 24.9331 12.922 26.0356 12.922C27.1382 12.922 27.9996 12.7001 28.6198 12.2563C29.2515 11.8045 29.5673 11.1267 29.5673 10.2229C29.5673 9.31918 29.2515 8.64137 28.6198 8.18953C27.9996 7.72961 27.1382 7.49963 26.0356 7.49963C24.9331 7.49963 24.0602 7.72961 23.417 8.18953ZM37.7504 12.45C37.7504 10.1906 38.4452 8.51227 39.8349 7.4149C41.2246 6.30945 43.1426 5.75671 45.5889 5.75671C47.7941 5.75671 49.5111 6.18437 50.74 7.03966C51.9689 7.88692 52.5833 9.12152 52.5833 10.7434C52.5833 11.2033 52.5489 11.6471 52.48 12.0748C52.4226 12.5024 52.3594 12.8131 52.2905 13.0068L52.1871 13.2972H41.3854C41.5232 14.7174 41.9884 15.722 42.7808 16.311C43.5848 16.892 44.7563 17.1825 46.2953 17.1825C47.0303 17.1825 47.7424 17.122 48.4315 17.0009C49.1321 16.8799 49.6489 16.7629 49.982 16.6499L50.4644 16.4684C51.1764 16.9122 51.5497 17.5053 51.5841 18.2476C51.5268 18.2718 51.4463 18.3081 51.343 18.3565C51.2396 18.405 50.9985 18.4897 50.6194 18.6107C50.2519 18.7317 49.8614 18.8366 49.4479 18.9254C49.0344 19.0142 48.4889 19.0949 47.8114 19.1675C47.1337 19.2482 46.4389 19.2885 45.7268 19.2885C40.4092 19.2885 37.7504 17.009 37.7504 12.45ZM41.3854 11.5301H48.9484C49.0172 11.1428 49.0517 10.7716 49.0517 10.4166C49.0517 9.60969 48.7818 8.9601 48.242 8.4679C47.7022 7.96763 46.8179 7.71747 45.5889 7.71747C43.0393 7.71747 41.6381 8.98836 41.3854 11.5301ZM55.5293 15.1491C55.5293 13.8177 56.0978 12.8373 57.2348 12.2079C58.3719 11.5785 60.0601 11.2639 62.2998 11.2639C63.7698 11.2639 65.1136 11.3122 66.331 11.4091V10.4892C66.331 9.6097 66.0496 8.948 65.4869 8.50424C64.9355 8.06044 64.0053 7.83853 62.696 7.83853C61.9609 7.83853 61.1972 7.89099 60.4047 7.99589C59.6237 8.10074 59.0208 8.20565 58.5958 8.31055L57.9584 8.4679L57.9067 8.44371C57.8837 8.41952 57.8493 8.39934 57.8033 8.38318C57.7689 8.35899 57.723 8.32671 57.6655 8.28636C57.6081 8.23792 57.5506 8.18953 57.4933 8.1411C57.4473 8.09271 57.3899 8.03218 57.3209 7.95955C57.2635 7.87889 57.2061 7.79818 57.1487 7.71747C57.1142 7.65292 57.0798 7.58837 57.0453 7.52382C57.0223 7.45928 56.9994 7.39874 56.9764 7.34228C56.965 7.28581 56.9534 7.22929 56.9419 7.17282C56.9304 7.10828 56.9247 7.05582 56.9247 7.01547C56.9247 6.96708 56.9247 6.92266 56.9247 6.88236C56.9247 6.842 56.9247 6.80973 56.9247 6.78553C56.9362 6.75326 56.9419 6.725 56.9419 6.70081V6.67657C57.0109 6.65237 57.1085 6.6201 57.2348 6.57974C57.3727 6.53939 57.654 6.46681 58.079 6.3619C58.5154 6.24892 58.9576 6.1521 59.4055 6.07139C59.8649 5.99073 60.4334 5.9181 61.111 5.85353C61.7887 5.78898 62.4548 5.75671 63.1094 5.75671C65.5902 5.75671 67.3302 6.14402 68.3294 6.91865C69.3401 7.69328 69.8454 8.91171 69.8454 10.574V18.877C69.5928 18.99 69.1391 19.0464 68.4844 19.0464C68.2203 19.0464 67.9676 19.0343 67.7264 19.0101C67.4967 18.9779 67.3302 18.9496 67.2268 18.9254L67.0718 18.877L66.5377 17.2914C65.619 18.6228 63.7698 19.2885 60.9904 19.2885C59.2907 19.2885 57.9526 18.9375 56.9764 18.2355C56.0116 17.5335 55.5293 16.5047 55.5293 15.1491ZM59.1643 15.1491C59.1643 16.6418 60.1865 17.3883 62.2308 17.3883C63.1267 17.3883 63.8904 17.2228 64.5221 16.892C65.1538 16.5531 65.6132 16.1335 65.9003 15.6332C66.1874 15.1249 66.331 14.5681 66.331 13.9629V13.0915C64.7116 12.9947 63.5229 12.9462 62.7649 12.9462C61.559 12.9462 60.6574 13.1238 60.0601 13.4788C59.4629 13.8258 59.1643 14.3825 59.1643 15.1491ZM74.8587 18.877V6.18036C75.2031 6.06737 75.7888 6.0109 76.6158 6.0109C76.9488 6.0109 77.2593 6.02702 77.5465 6.05929C77.845 6.08348 78.0574 6.11174 78.1837 6.14402L78.3728 6.18036V7.31808C79.6825 6.27718 81.4628 5.75671 83.7138 5.75671C85.4476 5.75671 86.7918 6.09965 87.7452 6.78553C88.6985 7.46329 89.1748 8.37108 89.1748 9.50881V18.877C88.7846 18.99 88.1989 19.0464 87.4178 19.0464C87.0614 19.0464 86.734 19.0343 86.4355 19.0101C86.137 18.9779 85.9303 18.9496 85.8152 18.9254L85.6431 18.877V9.94453C85.6431 8.4921 84.5521 7.7659 82.3696 7.7659C81.5891 7.7659 80.8426 7.9071 80.1306 8.18953C79.4186 8.47192 78.8322 8.85926 78.3728 9.35145V18.877C77.9593 18.99 77.3736 19.0464 76.6158 19.0464C76.2481 19.0464 75.9151 19.0343 75.6166 19.0101C75.3294 18.9779 75.1346 18.9496 75.0309 18.9254L74.8587 18.877ZM99.6148 2.29508C99.6148 2.1095 99.6374 1.92794 99.6839 1.75042C99.7411 1.56484 99.7926 1.42363 99.8385 1.3268L99.9076 1.19366H116.808C116.992 1.50028 117.084 1.85935 117.084 2.27088C117.084 2.46453 117.06 2.65416 117.015 2.83974C116.969 3.02533 116.923 3.16251 116.877 3.25127L116.808 3.3844H110.244V18.877C109.819 18.99 109.216 19.0464 108.435 19.0464C108.056 19.0464 107.718 19.0343 107.419 19.0101C107.12 18.9779 106.913 18.9496 106.799 18.9254L106.644 18.877V3.3844H99.9076C99.7122 3.10199 99.6148 2.73888 99.6148 2.29508ZM116.274 15.1491C116.274 13.8177 116.842 12.8373 117.979 12.2079C119.117 11.5785 120.805 11.2639 123.044 11.2639C124.514 11.2639 125.858 11.3122 127.076 11.4091V10.4892C127.076 9.6097 126.794 8.948 126.232 8.50424C125.68 8.06044 124.75 7.83853 123.441 7.83853C122.706 7.83853 121.942 7.89099 121.15 7.99589C120.368 8.10074 119.765 8.20565 119.34 8.31055L118.703 8.4679L118.651 8.44371C118.628 8.41952 118.594 8.39934 118.548 8.38318C118.513 8.35899 118.467 8.32671 118.41 8.28636C118.352 8.23792 118.295 8.18953 118.238 8.1411C118.192 8.09271 118.134 8.03218 118.065 7.95955C118.008 7.87889 117.951 7.79818 117.893 7.71747C117.858 7.65292 117.825 7.58837 117.79 7.52382C117.767 7.45928 117.744 7.39874 117.721 7.34228C117.71 7.28581 117.698 7.22929 117.686 7.17282C117.675 7.10828 117.669 7.05582 117.669 7.01547C117.669 6.96708 117.669 6.92266 117.669 6.88236C117.669 6.842 117.669 6.80973 117.669 6.78553C117.681 6.75326 117.686 6.725 117.686 6.70081V6.67657C117.755 6.65237 117.853 6.6201 117.979 6.57974C118.117 6.53939 118.398 6.46681 118.824 6.3619C119.26 6.24892 119.702 6.1521 120.15 6.07139C120.61 5.99073 121.178 5.9181 121.855 5.85353C122.533 5.78898 123.199 5.75671 123.854 5.75671C126.335 5.75671 128.075 6.14402 129.074 6.91865C130.084 7.69328 130.59 8.91171 130.59 10.574V18.877C130.337 18.99 129.883 19.0464 129.229 19.0464C128.965 19.0464 128.712 19.0343 128.471 19.0101C128.241 18.9779 128.075 18.9496 127.971 18.9254L127.817 18.877L127.282 17.2914C126.364 18.6228 124.514 19.2885 121.735 19.2885C120.035 19.2885 118.697 18.9375 117.721 18.2355C116.756 17.5335 116.274 16.5047 116.274 15.1491ZM119.909 15.1491C119.909 16.6418 120.931 17.3883 122.975 17.3883C123.871 17.3883 124.635 17.2228 125.266 16.892C125.899 16.5531 126.358 16.1335 126.645 15.6332C126.932 15.1249 127.076 14.5681 127.076 13.9629V13.0915C125.456 12.9947 124.267 12.9462 123.509 12.9462C122.303 12.9462 121.402 13.1238 120.805 13.4788C120.208 13.8258 119.909 14.3825 119.909 15.1491ZM133.622 18.877L139.858 12.3774L134.001 6.18036C134.472 6.06737 135.121 6.0109 135.948 6.0109C136.327 6.0109 136.677 6.02702 136.998 6.05929C137.32 6.08348 137.55 6.11174 137.688 6.14402L137.895 6.18036L142.047 10.574L146.25 6.18036C146.652 6.06737 147.215 6.0109 147.938 6.0109C148.294 6.0109 148.627 6.02702 148.937 6.05929C149.248 6.08348 149.466 6.11174 149.592 6.14402L149.782 6.18036L143.924 12.2805L150.195 18.877C149.736 18.99 149.092 19.0464 148.265 19.0464C147.886 19.0464 147.536 19.0343 147.215 19.0101C146.893 18.9779 146.664 18.9496 146.525 18.9254L146.318 18.877L141.771 14.084L137.188 18.877C136.752 18.99 136.172 19.0464 135.448 19.0464C135.104 19.0464 134.776 19.0343 134.466 19.0101C134.167 18.9779 133.949 18.9496 133.812 18.9254L133.622 18.877ZM153.347 3.50544V1.16945C153.715 1.05648 154.324 1 155.174 1C155.53 1 155.857 1.01614 156.156 1.04841C156.466 1.07262 156.684 1.10086 156.811 1.13314L157 1.16945V3.50544C156.586 3.61841 155.978 3.67489 155.174 3.67489C154.795 3.67489 154.45 3.66279 154.14 3.63858C153.841 3.6063 153.635 3.57806 153.52 3.55386L153.347 3.50544ZM153.417 18.877V6.18036C153.761 6.06737 154.347 6.0109 155.174 6.0109C155.519 6.0109 155.834 6.02702 156.121 6.05929C156.42 6.08348 156.632 6.11174 156.758 6.14402L156.931 6.18036V18.877C156.54 18.99 155.955 19.0464 155.174 19.0464C154.806 19.0464 154.473 19.0343 154.174 19.0101C153.887 18.9779 153.692 18.9496 153.589 18.9254L153.417 18.877Z" fill="white"/>
<path d="M0.883301 12.45C0.883301 10.1906 1.57815 8.51227 2.96784 7.4149C4.35754 6.30945 6.27555 5.75671 8.72183 5.75671C10.927 5.75671 12.644 6.18437 13.8729 7.03966C15.1018 7.88692 15.7163 9.12152 15.7163 10.7434C15.7163 11.2033 15.6818 11.6471 15.6129 12.0748C15.5555 12.5024 15.4923 12.8131 15.4234 13.0068L15.32 13.2972H4.51833C4.65614 14.7174 5.12129 15.722 5.91376 16.311C6.71772 16.892 7.88917 17.1825 9.42818 17.1825C10.1632 17.1825 10.8753 17.122 11.5644 17.0009C12.265 16.8799 12.7818 16.7629 13.1149 16.6499L13.5973 16.4684C14.3093 16.9122 14.6826 17.5053 14.717 18.2476C14.6597 18.2718 14.5792 18.3081 14.4759 18.3565C14.3726 18.405 14.1314 18.4897 13.7523 18.6107C13.3848 18.7317 12.9943 18.8366 12.5809 18.9254C12.1674 19.0142 11.6218 19.0949 10.9443 19.1675C10.2666 19.2482 9.57178 19.2885 8.85972 19.2885C3.5421 19.2885 0.883301 17.009 0.883301 12.45ZM4.51833 11.5301H12.0813C12.1501 11.1428 12.1846 10.7716 12.1846 10.4166C12.1846 9.60969 11.9147 8.9601 11.3749 8.4679C10.8351 7.96763 9.95078 7.71747 8.72183 7.71747C6.17218 7.71747 4.771 8.98836 4.51833 11.5301ZM18.2659 21.794C18.2659 21.3501 18.3808 20.9306 18.6105 20.5352C18.8402 20.1398 19.1388 19.7969 19.5063 19.5064C19.8739 19.224 20.2069 18.998 20.5056 18.8286C20.8041 18.6591 21.1085 18.5098 21.4186 18.3807C20.9018 18.0176 20.6434 17.5375 20.6434 16.9404C20.6434 16.0367 21.2061 15.1208 22.3317 14.1929C20.1954 13.499 19.1273 12.1757 19.1273 10.2229C19.1273 8.8189 19.7189 7.72555 20.9018 6.94284C22.0962 6.1521 23.8075 5.75671 26.0356 5.75671C27.6206 5.75671 28.9241 5.94631 29.9463 6.32556L34.8906 5.75671C35.0514 6.01492 35.1318 6.33766 35.1318 6.725C35.1318 7.11229 35.0514 7.44316 34.8906 7.71747L31.9619 7.62065C32.6165 8.29037 32.9439 9.15781 32.9439 10.2229C32.9439 11.627 32.3524 12.7243 31.1695 13.5151C29.9865 14.2978 28.2752 14.6891 26.0356 14.6891C25.5418 14.6891 25.0249 14.6609 24.4851 14.6044C24.0257 15.0401 23.796 15.4718 23.796 15.8995C23.796 15.9479 23.8018 15.9964 23.8133 16.0447C23.8592 16.311 24.0545 16.5329 24.399 16.7105C24.7435 16.8799 25.18 16.9969 25.7083 17.0615C26.2366 17.126 26.8281 17.1946 27.4828 17.2672C28.1374 17.3398 28.8035 17.4044 29.4811 17.4609C30.1588 17.5174 30.8191 17.6303 31.4623 17.7998C32.1055 17.9612 32.6798 18.1629 33.1851 18.405C33.6904 18.639 34.0924 18.9779 34.391 19.4216C34.7011 19.8654 34.8562 20.394 34.8562 21.0072C34.8562 22.2499 34.0464 23.2666 32.4271 24.0573C30.8077 24.8481 28.5968 25.2435 25.7944 25.2435C23.2562 25.2435 21.367 24.9288 20.1266 24.2994C18.8861 23.6781 18.2659 22.8429 18.2659 21.794ZM21.6942 21.2977C21.6942 21.9513 22.0446 22.4798 22.7451 22.8833C23.4572 23.2867 24.5081 23.4885 25.8978 23.4885C27.678 23.4885 29.0562 23.2827 30.0324 22.8711C31.0086 22.4677 31.4967 21.9271 31.4967 21.2493C31.4967 20.862 31.3188 20.5473 30.9627 20.3052C30.6181 20.0712 30.1301 19.8977 29.4984 19.7848C28.8782 19.6799 28.2408 19.5992 27.5861 19.5427C26.9314 19.4862 26.1907 19.4176 25.3637 19.3369C24.5368 19.2562 23.8534 19.1594 23.3137 19.0464C22.8427 19.3127 22.4523 19.6435 22.1422 20.039C21.8435 20.4424 21.6942 20.862 21.6942 21.2977ZM23.417 8.18953C22.7854 8.64137 22.4695 9.31918 22.4695 10.2229C22.4695 11.1267 22.7854 11.8045 23.417 12.2563C24.0602 12.7001 24.9331 12.922 26.0356 12.922C27.1382 12.922 27.9996 12.7001 28.6198 12.2563C29.2515 11.8045 29.5673 11.1267 29.5673 10.2229C29.5673 9.31918 29.2515 8.64137 28.6198 8.18953C27.9996 7.72961 27.1382 7.49963 26.0356 7.49963C24.9331 7.49963 24.0602 7.72961 23.417 8.18953ZM37.7504 12.45C37.7504 10.1906 38.4452 8.51227 39.8349 7.4149C41.2246 6.30945 43.1426 5.75671 45.5889 5.75671C47.7941 5.75671 49.5111 6.18437 50.74 7.03966C51.9689 7.88692 52.5833 9.12152 52.5833 10.7434C52.5833 11.2033 52.5489 11.6471 52.48 12.0748C52.4226 12.5024 52.3594 12.8131 52.2905 13.0068L52.1871 13.2972H41.3854C41.5232 14.7174 41.9884 15.722 42.7808 16.311C43.5848 16.892 44.7563 17.1825 46.2953 17.1825C47.0303 17.1825 47.7424 17.122 48.4315 17.0009C49.1321 16.8799 49.6489 16.7629 49.982 16.6499L50.4644 16.4684C51.1764 16.9122 51.5497 17.5053 51.5841 18.2476C51.5268 18.2718 51.4463 18.3081 51.343 18.3565C51.2396 18.405 50.9985 18.4897 50.6194 18.6107C50.2519 18.7317 49.8614 18.8366 49.4479 18.9254C49.0344 19.0142 48.4889 19.0949 47.8114 19.1675C47.1337 19.2482 46.4389 19.2885 45.7268 19.2885C40.4092 19.2885 37.7504 17.009 37.7504 12.45ZM41.3854 11.5301H48.9484C49.0172 11.1428 49.0517 10.7716 49.0517 10.4166C49.0517 9.60969 48.7818 8.9601 48.242 8.4679C47.7022 7.96763 46.8179 7.71747 45.5889 7.71747C43.0393 7.71747 41.6381 8.98836 41.3854 11.5301ZM55.5293 15.1491C55.5293 13.8177 56.0978 12.8373 57.2348 12.2079C58.3719 11.5785 60.0601 11.2639 62.2998 11.2639C63.7698 11.2639 65.1136 11.3122 66.331 11.4091V10.4892C66.331 9.6097 66.0496 8.948 65.4869 8.50424C64.9355 8.06044 64.0053 7.83853 62.696 7.83853C61.9609 7.83853 61.1972 7.89099 60.4047 7.99589C59.6237 8.10074 59.0208 8.20565 58.5958 8.31055L57.9584 8.4679L57.9067 8.44371C57.8837 8.41952 57.8493 8.39934 57.8033 8.38318C57.7689 8.35899 57.723 8.32671 57.6655 8.28636C57.6081 8.23792 57.5506 8.18953 57.4933 8.1411C57.4473 8.09271 57.3899 8.03218 57.3209 7.95955C57.2635 7.87889 57.2061 7.79818 57.1487 7.71747C57.1142 7.65292 57.0798 7.58837 57.0453 7.52382C57.0223 7.45928 56.9994 7.39874 56.9764 7.34228C56.965 7.28581 56.9534 7.22929 56.9419 7.17282C56.9304 7.10828 56.9247 7.05582 56.9247 7.01547C56.9247 6.96708 56.9247 6.92266 56.9247 6.88236C56.9247 6.842 56.9247 6.80973 56.9247 6.78553C56.9362 6.75326 56.9419 6.725 56.9419 6.70081V6.67657C57.0109 6.65237 57.1085 6.6201 57.2348 6.57974C57.3727 6.53939 57.654 6.46681 58.079 6.3619C58.5154 6.24892 58.9576 6.1521 59.4055 6.07139C59.8649 5.99073 60.4334 5.9181 61.111 5.85353C61.7887 5.78898 62.4548 5.75671 63.1094 5.75671C65.5902 5.75671 67.3302 6.14402 68.3294 6.91865C69.3401 7.69328 69.8454 8.91171 69.8454 10.574V18.877C69.5928 18.99 69.1391 19.0464 68.4844 19.0464C68.2203 19.0464 67.9676 19.0343 67.7264 19.0101C67.4967 18.9779 67.3302 18.9496 67.2268 18.9254L67.0718 18.877L66.5377 17.2914C65.619 18.6228 63.7698 19.2885 60.9904 19.2885C59.2907 19.2885 57.9526 18.9375 56.9764 18.2355C56.0116 17.5335 55.5293 16.5047 55.5293 15.1491ZM59.1643 15.1491C59.1643 16.6418 60.1865 17.3883 62.2308 17.3883C63.1267 17.3883 63.8904 17.2228 64.5221 16.892C65.1538 16.5531 65.6132 16.1335 65.9003 15.6332C66.1874 15.1249 66.331 14.5681 66.331 13.9629V13.0915C64.7116 12.9947 63.5229 12.9462 62.7649 12.9462C61.559 12.9462 60.6574 13.1238 60.0601 13.4788C59.4629 13.8258 59.1643 14.3825 59.1643 15.1491ZM74.8587 18.877V6.18036C75.2031 6.06737 75.7888 6.0109 76.6158 6.0109C76.9488 6.0109 77.2593 6.02702 77.5465 6.05929C77.845 6.08348 78.0574 6.11174 78.1837 6.14402L78.3728 6.18036V7.31808C79.6825 6.27718 81.4628 5.75671 83.7138 5.75671C85.4476 5.75671 86.7918 6.09965 87.7452 6.78553C88.6985 7.46329 89.1748 8.37108 89.1748 9.50881V18.877C88.7846 18.99 88.1989 19.0464 87.4178 19.0464C87.0614 19.0464 86.734 19.0343 86.4355 19.0101C86.137 18.9779 85.9303 18.9496 85.8152 18.9254L85.6431 18.877V9.94453C85.6431 8.4921 84.5521 7.7659 82.3696 7.7659C81.5891 7.7659 80.8426 7.9071 80.1306 8.18953C79.4186 8.47192 78.8322 8.85926 78.3728 9.35145V18.877C77.9593 18.99 77.3736 19.0464 76.6158 19.0464C76.2481 19.0464 75.9151 19.0343 75.6166 19.0101C75.3294 18.9779 75.1346 18.9496 75.0309 18.9254L74.8587 18.877ZM99.6148 2.29508C99.6148 2.1095 99.6374 1.92794 99.6839 1.75042C99.7411 1.56484 99.7926 1.42363 99.8385 1.3268L99.9076 1.19366H116.808C116.992 1.50028 117.084 1.85935 117.084 2.27088C117.084 2.46453 117.06 2.65416 117.015 2.83974C116.969 3.02533 116.923 3.16251 116.877 3.25127L116.808 3.3844H110.244V18.877C109.819 18.99 109.216 19.0464 108.435 19.0464C108.056 19.0464 107.718 19.0343 107.419 19.0101C107.12 18.9779 106.913 18.9496 106.799 18.9254L106.644 18.877V3.3844H99.9076C99.7122 3.10199 99.6148 2.73888 99.6148 2.29508ZM116.274 15.1491C116.274 13.8177 116.842 12.8373 117.979 12.2079C119.117 11.5785 120.805 11.2639 123.044 11.2639C124.514 11.2639 125.858 11.3122 127.076 11.4091V10.4892C127.076 9.6097 126.794 8.948 126.232 8.50424C125.68 8.06044 124.75 7.83853 123.441 7.83853C122.706 7.83853 121.942 7.89099 121.15 7.99589C120.368 8.10074 119.765 8.20565 119.34 8.31055L118.703 8.4679L118.651 8.44371C118.628 8.41952 118.594 8.39934 118.548 8.38318C118.513 8.35899 118.467 8.32671 118.41 8.28636C118.352 8.23792 118.295 8.18953 118.238 8.1411C118.192 8.09271 118.134 8.03218 118.065 7.95955C118.008 7.87889 117.951 7.79818 117.893 7.71747C117.858 7.65292 117.825 7.58837 117.79 7.52382C117.767 7.45928 117.744 7.39874 117.721 7.34228C117.71 7.28581 117.698 7.22929 117.686 7.17282C117.675 7.10828 117.669 7.05582 117.669 7.01547C117.669 6.96708 117.669 6.92266 117.669 6.88236C117.669 6.842 117.669 6.80973 117.669 6.78553C117.681 6.75326 117.686 6.725 117.686 6.70081V6.67657C117.755 6.65237 117.853 6.6201 117.979 6.57974C118.117 6.53939 118.398 6.46681 118.824 6.3619C119.26 6.24892 119.702 6.1521 120.15 6.07139C120.61 5.99073 121.178 5.9181 121.855 5.85353C122.533 5.78898 123.199 5.75671 123.854 5.75671C126.335 5.75671 128.075 6.14402 129.074 6.91865C130.084 7.69328 130.59 8.91171 130.59 10.574V18.877C130.337 18.99 129.883 19.0464 129.229 19.0464C128.965 19.0464 128.712 19.0343 128.471 19.0101C128.241 18.9779 128.075 18.9496 127.971 18.9254L127.817 18.877L127.282 17.2914C126.364 18.6228 124.514 19.2885 121.735 19.2885C120.035 19.2885 118.697 18.9375 117.721 18.2355C116.756 17.5335 116.274 16.5047 116.274 15.1491ZM119.909 15.1491C119.909 16.6418 120.931 17.3883 122.975 17.3883C123.871 17.3883 124.635 17.2228 125.266 16.892C125.899 16.5531 126.358 16.1335 126.645 15.6332C126.932 15.1249 127.076 14.5681 127.076 13.9629V13.0915C125.456 12.9947 124.267 12.9462 123.509 12.9462C122.303 12.9462 121.402 13.1238 120.805 13.4788C120.208 13.8258 119.909 14.3825 119.909 15.1491ZM133.622 18.877L139.858 12.3774L134.001 6.18036C134.472 6.06737 135.121 6.0109 135.948 6.0109C136.327 6.0109 136.677 6.02702 136.998 6.05929C137.32 6.08348 137.55 6.11174 137.688 6.14402L137.895 6.18036L142.047 10.574L146.25 6.18036C146.652 6.06737 147.215 6.0109 147.938 6.0109C148.294 6.0109 148.627 6.02702 148.937 6.05929C149.248 6.08348 149.466 6.11174 149.592 6.14402L149.782 6.18036L143.924 12.2805L150.195 18.877C149.736 18.99 149.092 19.0464 148.265 19.0464C147.886 19.0464 147.536 19.0343 147.215 19.0101C146.893 18.9779 146.664 18.9496 146.525 18.9254L146.318 18.877L141.771 14.084L137.188 18.877C136.752 18.99 136.172 19.0464 135.448 19.0464C135.104 19.0464 134.776 19.0343 134.466 19.0101C134.167 18.9779 133.949 18.9496 133.812 18.9254L133.622 18.877ZM153.347 3.50544V1.16945C153.715 1.05648 154.324 1 155.174 1C155.53 1 155.857 1.01614 156.156 1.04841C156.466 1.07262 156.684 1.10086 156.811 1.13314L157 1.16945V3.50544C156.586 3.61841 155.978 3.67489 155.174 3.67489C154.795 3.67489 154.45 3.66279 154.14 3.63858C153.841 3.6063 153.635 3.57806 153.52 3.55386L153.347 3.50544ZM153.417 18.877V6.18036C153.761 6.06737 154.347 6.0109 155.174 6.0109C155.519 6.0109 155.834 6.02702 156.121 6.05929C156.42 6.08348 156.632 6.11174 156.758 6.14402L156.931 6.18036V18.877C156.54 18.99 155.955 19.0464 155.174 19.0464C154.806 19.0464 154.473 19.0343 154.174 19.0101C153.887 18.9779 153.692 18.9496 153.589 18.9254L153.417 18.877Z" stroke="white" stroke-width="0.6" mask="url(#path-1-outside-1_92_1924)"/>
</svg>
