<svg width="105" height="36" viewBox="0 0 105 36" fill="none" xmlns="http://www.w3.org/2000/svg">
<g clip-path="url(#clip0_92_1721)">
<path d="M96.6385 0.000114075H8.36627C8.0445 0.000114075 7.7266 0.000114075 7.40569 0.00186908C7.13705 0.00362408 6.87056 0.00872235 6.59935 0.0130133C6.01015 0.0199472 5.42234 0.071785 4.84101 0.168076C4.26051 0.266464 3.69819 0.451953 3.17308 0.718269C2.6486 0.986838 2.16937 1.33582 1.75278 1.75254C1.334 2.1681 0.984912 2.64842 0.718944 3.17505C0.452241 3.70063 0.267309 4.26383 0.170534 4.84521C0.0728385 5.42586 0.0202678 6.0132 0.0132935 6.60197C0.00515067 6.87101 0.00429076 7.14095 0 7.41002V27.6928C0.00429076 27.9652 0.00515067 28.2292 0.0132935 28.5018C0.02027 29.0905 0.0728406 29.6778 0.170534 30.2584C0.267042 30.8401 0.451985 31.4037 0.718944 31.9294C0.984792 32.4544 1.33393 32.9327 1.75278 33.346C2.1678 33.7646 2.64733 34.1138 3.17308 34.3803C3.69819 34.6473 4.26045 34.8339 4.84101 34.9338C5.42243 35.0294 6.01019 35.0812 6.59935 35.089C6.87056 35.0949 7.13705 35.0984 7.40569 35.0984C7.72659 35.1001 8.04452 35.1001 8.36627 35.1001H96.6385C96.9538 35.1001 97.2743 35.1001 97.5896 35.0984C97.857 35.0984 98.1312 35.0949 98.3985 35.089C98.9866 35.0816 99.5732 35.0298 100.153 34.9338C100.736 34.8332 101.3 34.6467 101.828 34.3803C102.353 34.1136 102.832 33.7644 103.247 33.346C103.665 32.9311 104.014 32.4531 104.284 31.9294C104.549 31.4033 104.732 30.8398 104.827 30.2584C104.925 29.6777 104.979 29.0905 104.99 28.5018C104.993 28.2292 104.993 27.9652 104.993 27.6928C105 27.374 105 27.0569 105 26.733V8.36807C105 8.04672 105 7.72794 104.993 7.41002C104.993 7.14095 104.993 6.87101 104.99 6.60193C104.979 6.01311 104.925 5.4259 104.827 4.84518C104.732 4.26413 104.548 3.70097 104.284 3.17501C103.742 2.11945 102.883 1.26023 101.828 0.71819C101.3 0.452524 100.736 0.267085 100.153 0.167997C99.5733 0.0712818 98.9866 0.0194259 98.3985 0.0128905C98.1312 0.00860828 97.857 0.00346613 97.5896 0.001755C97.2743 0 96.9538 0.000114075 96.6385 0.000114075Z" fill="#A6A6A6"/>
<path d="M7.40957 34.3319C7.14222 34.3319 6.88134 34.3285 6.61609 34.3226C6.06661 34.3154 5.51842 34.2676 4.976 34.1794C4.47023 34.0923 3.98027 33.9303 3.52229 33.6987C3.0685 33.4689 2.65461 33.1677 2.29648 32.8066C1.93316 32.4497 1.63068 32.0357 1.40103 31.5812C1.16884 31.1236 1.00816 30.6332 0.924567 30.127C0.834299 29.583 0.785459 29.033 0.778471 28.4817C0.772908 28.2966 0.765625 27.6804 0.765625 27.6804V7.40967C0.765625 7.40967 0.773382 6.80296 0.778515 6.62471C0.785206 6.07424 0.833761 5.52508 0.92376 4.98197C1.0075 4.47436 1.16831 3.98252 1.40062 3.52348C1.62943 3.06921 1.93023 2.65496 2.29136 2.29678C2.65209 1.9352 3.0673 1.63245 3.52186 1.39956C3.97879 1.16868 4.46782 1.00778 4.97257 0.922255C5.51677 0.833247 6.06687 0.785125 6.61825 0.778292L7.41 0.767578H97.5849L98.3861 0.778722C98.9325 0.785215 99.4776 0.832908 100.017 0.921395C100.527 1.00799 101.021 1.17001 101.483 1.40213C102.394 1.87146 103.135 2.61398 103.602 3.52562C103.831 3.98149 103.989 4.46932 104.072 4.97255C104.163 5.52011 104.214 6.07359 104.224 6.62858C104.227 6.87708 104.227 7.14402 104.227 7.40967C104.234 7.73874 104.234 8.05194 104.234 8.36772V26.7326C104.234 27.0514 104.234 27.3625 104.227 27.6761C104.227 27.9615 104.227 28.2229 104.223 28.4919C104.213 29.037 104.163 29.5806 104.073 30.1184C103.991 30.6283 103.832 31.1225 103.599 31.5838C103.368 32.0334 103.067 32.4438 102.708 32.7997C102.35 33.1628 101.935 33.4658 101.48 33.697C101.02 33.9304 100.526 34.093 100.017 34.1794C99.4744 34.268 98.9262 34.3159 98.3766 34.3226C98.1196 34.3285 97.8505 34.3319 97.5892 34.3319L96.638 34.3337L7.40957 34.3319Z" fill="black"/>
<path d="M21.734 17.8143C21.7434 17.0818 21.938 16.3637 22.2995 15.7267C22.661 15.0897 23.1778 14.5544 23.8018 14.1708C23.4054 13.6047 22.8825 13.1388 22.2746 12.8101C21.6666 12.4815 20.9904 12.2991 20.2997 12.2775C18.8262 12.1228 17.3978 13.1592 16.6469 13.1592C15.8816 13.1592 14.7255 12.2928 13.4806 12.3184C12.6754 12.3444 11.8907 12.5786 11.2029 12.9981C10.515 13.4176 9.9476 14.0081 9.55585 14.7121C7.85885 17.6504 9.12466 21.9686 10.7502 24.3436C11.5636 25.5066 12.5141 26.8057 13.7578 26.7597C14.9749 26.7092 15.4295 25.9835 16.8986 25.9835C18.3541 25.9835 18.7806 26.7597 20.0496 26.7304C21.3555 26.7092 22.1784 25.5622 22.9632 24.3882C23.5475 23.5595 23.9972 22.6437 24.2955 21.6745C23.5368 21.3536 22.8893 20.8164 22.4338 20.1299C21.9783 19.4435 21.7349 18.6381 21.734 17.8143Z" fill="white"/>
<path d="M19.337 10.7154C20.0491 9.86049 20.3999 8.76171 20.3149 7.65234C19.227 7.76661 18.2221 8.28658 17.5004 9.10865C17.1476 9.51025 16.8773 9.97747 16.7051 10.4836C16.5329 10.9897 16.4622 11.5248 16.4969 12.0583C17.041 12.0639 17.5793 11.9459 18.0713 11.7133C18.5633 11.4807 18.996 11.1395 19.337 10.7154Z" fill="white"/>
<path d="M37.119 23.8158H32.9656L31.9682 26.7611H30.209L34.143 15.8643H35.9707L39.9047 26.7611H38.1155L37.119 23.8158ZM33.3958 22.4567H36.688L35.065 17.6767H35.0196L33.3958 22.4567Z" fill="white"/>
<path d="M48.4012 22.7888C48.4012 25.2576 47.0799 26.8438 45.0859 26.8438C44.5808 26.8702 44.0785 26.7539 43.6364 26.508C43.1943 26.2622 42.8304 25.8969 42.5864 25.4538H42.5486V29.3889H40.918V18.816H42.4964V20.1374H42.5264C42.7817 19.6965 43.1517 19.3331 43.5972 19.0857C44.0426 18.8384 44.5467 18.7165 45.0559 18.7329C47.0722 18.7329 48.4012 20.3268 48.4012 22.7888ZM46.7251 22.7888C46.7251 21.1803 45.894 20.1229 44.6258 20.1229C43.3798 20.1229 42.5418 21.2026 42.5418 22.7888C42.5418 24.3895 43.3798 25.4616 44.6258 25.4616C45.894 25.4616 46.7251 24.4118 46.7251 22.7888Z" fill="white"/>
<path d="M57.1444 22.7888C57.1444 25.2576 55.8231 26.8438 53.8291 26.8438C53.324 26.8702 52.8216 26.7538 52.3796 26.508C51.9375 26.2622 51.5736 25.8969 51.3295 25.4538H51.2918V29.3889H49.6611V18.816H51.2395V20.1374H51.2695C51.5248 19.6965 51.8949 19.3331 52.3403 19.0857C52.7857 18.8384 53.2898 18.7165 53.7991 18.7329C55.8153 18.7329 57.1444 20.3268 57.1444 22.7888ZM55.4683 22.7888C55.4683 21.1803 54.6371 20.1229 53.3689 20.1229C52.123 20.1229 51.285 21.2026 51.285 22.7888C51.285 24.3895 52.123 25.4616 53.3689 25.4616C54.6371 25.4616 55.4683 24.4118 55.4683 22.7888Z" fill="white"/>
<path d="M62.9232 23.725C63.044 24.8056 64.0937 25.5151 65.5281 25.5151C66.9026 25.5151 67.8914 24.8055 67.8914 23.8312C67.8914 22.9854 67.295 22.479 65.8829 22.1319L64.4707 21.7917C62.4699 21.3084 61.541 20.3726 61.541 18.8541C61.541 16.974 63.1794 15.6826 65.5058 15.6826C67.8083 15.6826 69.3867 16.974 69.4398 18.8541H67.7937C67.6952 17.7667 66.7963 17.1103 65.4827 17.1103C64.1691 17.1103 63.2702 17.7744 63.2702 18.741C63.2702 19.5114 63.8443 19.9647 65.2487 20.3117L66.4492 20.6065C68.6849 21.1353 69.6137 22.0333 69.6137 23.6272C69.6137 25.6659 67.9899 26.9427 65.4073 26.9427C62.9908 26.9427 61.3593 25.6959 61.2539 23.7249L62.9232 23.725Z" fill="white"/>
<path d="M73.1333 16.9365V18.8166H74.644V20.108H73.1333V24.4878C73.1333 25.1682 73.4358 25.4853 74.0999 25.4853C74.2792 25.4822 74.4583 25.4696 74.6363 25.4476V26.7312C74.3377 26.787 74.0342 26.8123 73.7306 26.8067C72.1222 26.8067 71.4949 26.2025 71.4949 24.6618V20.108H70.3398V18.8166H71.4949V16.9365H73.1333Z" fill="white"/>
<path d="M75.5186 22.7892C75.5186 20.2895 76.9907 18.7188 79.2863 18.7188C81.5896 18.7188 83.0549 20.2895 83.0549 22.7892C83.0549 25.2957 81.5973 26.8596 79.2863 26.8596C76.9761 26.8596 75.5186 25.2957 75.5186 22.7892ZM81.3934 22.7892C81.3934 21.0745 80.6076 20.0624 79.2863 20.0624C77.965 20.0624 77.1801 21.0822 77.1801 22.7892C77.1801 24.5108 77.965 25.5151 79.2863 25.5151C80.6076 25.5151 81.3934 24.5108 81.3934 22.7892Z" fill="white"/>
<path d="M84.3994 18.8169H85.9547V20.1692H85.9924C86.0976 19.7468 86.345 19.3736 86.693 19.1122C87.041 18.8508 87.4684 18.7172 87.9033 18.7338C88.0912 18.7331 88.2786 18.7536 88.462 18.7946V20.32C88.2247 20.2475 87.9773 20.2142 87.7293 20.2214C87.4924 20.2118 87.2562 20.2536 87.037 20.3439C86.8178 20.4342 86.6207 20.5708 86.4593 20.7445C86.2978 20.9181 86.1759 21.1247 86.1018 21.3499C86.0277 21.5751 86.0032 21.8137 86.0301 22.0493V26.7616H84.3994L84.3994 18.8169Z" fill="white"/>
<path d="M95.9806 24.4276C95.7613 25.8699 94.3568 26.8596 92.5599 26.8596C90.2489 26.8596 88.8145 25.3111 88.8145 22.8269C88.8145 20.3349 90.2566 18.7188 92.4914 18.7188C94.6893 18.7188 96.0715 20.2287 96.0715 22.6375V23.1962H90.4605V23.2948C90.4347 23.5872 90.4713 23.8817 90.5679 24.1589C90.6646 24.436 90.8191 24.6894 91.0213 24.9022C91.2234 25.1151 91.4685 25.2825 91.7403 25.3933C92.0121 25.5041 92.3043 25.5559 92.5976 25.5451C92.983 25.5812 93.3697 25.4919 93.7002 25.2906C94.0308 25.0893 94.2875 24.7866 94.4322 24.4276L95.9806 24.4276ZM90.4683 22.0565H94.4399C94.4546 21.7936 94.4147 21.5305 94.3229 21.2838C94.231 21.037 94.0892 20.8119 93.9062 20.6226C93.7232 20.4332 93.5031 20.2838 93.2596 20.1835C93.0162 20.0833 92.7546 20.0345 92.4914 20.0401C92.2258 20.0386 91.9626 20.0896 91.7169 20.1903C91.4711 20.291 91.2478 20.4393 91.0597 20.6268C90.8716 20.8142 90.7225 21.0371 90.621 21.2825C90.5195 21.5279 90.4676 21.7909 90.4683 22.0565Z" fill="white"/>
<path d="M33.191 7.66121C33.5328 7.63668 33.8759 7.68833 34.1954 7.81244C34.5149 7.93655 34.8028 8.13002 35.0385 8.3789C35.2742 8.62778 35.4517 8.92586 35.5582 9.25165C35.6647 9.57744 35.6976 9.92282 35.6545 10.2629C35.6545 11.9356 34.7505 12.8971 33.191 12.8971H31.2998V7.66121H33.191ZM32.113 12.1566H33.1001C33.3444 12.1712 33.5889 12.1312 33.8157 12.0394C34.0426 11.9476 34.2461 11.8064 34.4115 11.626C34.5769 11.4456 34.7 11.2306 34.7718 10.9966C34.8437 10.7627 34.8624 10.5157 34.8268 10.2735C34.8598 10.0324 34.8392 9.78687 34.7662 9.55462C34.6933 9.32238 34.5699 9.10915 34.4049 8.9302C34.2399 8.75125 34.0373 8.61102 33.8118 8.51955C33.5862 8.42808 33.3432 8.38764 33.1001 8.40113H32.113V12.1566Z" fill="white"/>
<path d="M36.5733 10.9193C36.5484 10.6596 36.5781 10.3977 36.6605 10.1501C36.7428 9.90262 36.876 9.67505 37.0514 9.48201C37.2269 9.28898 37.4407 9.13474 37.6792 9.0292C37.9178 8.92366 38.1757 8.86914 38.4366 8.86914C38.6974 8.86914 38.9554 8.92366 39.1939 9.0292C39.4325 9.13474 39.6463 9.28898 39.8217 9.48201C39.9972 9.67505 40.1303 9.90262 40.2127 10.1501C40.295 10.3977 40.3247 10.6596 40.2999 10.9193C40.3252 11.1792 40.2958 11.4416 40.2137 11.6895C40.1316 11.9374 39.9985 12.1654 39.823 12.3588C39.6476 12.5523 39.4335 12.7068 39.1948 12.8126C38.956 12.9183 38.6977 12.973 38.4366 12.973C38.1754 12.973 37.9172 12.9183 37.6784 12.8126C37.4396 12.7068 37.2256 12.5523 37.0501 12.3588C36.8746 12.1654 36.7416 11.9374 36.6594 11.6895C36.5773 11.4416 36.548 11.1792 36.5733 10.9193ZM39.4978 10.9193C39.4978 10.0628 39.1131 9.56193 38.4379 9.56193C37.7601 9.56193 37.3788 10.0628 37.3788 10.9193C37.3788 11.7827 37.7601 12.2797 38.4379 12.2797C39.1131 12.2797 39.4978 11.7792 39.4978 10.9193Z" fill="white"/>
<path d="M45.253 12.8976H44.4441L43.6275 9.98746H43.5658L42.7526 12.8976H41.9514L40.8623 8.94629H41.6532L42.361 11.9614H42.4193L43.2316 8.94629H43.9797L44.792 11.9614H44.8537L45.5581 8.94629H46.3378L45.253 12.8976Z" fill="white"/>
<path d="M47.2539 8.9454H48.0045V9.5731H48.0628C48.1617 9.34765 48.3284 9.15866 48.5397 9.03247C48.7511 8.90628 48.9965 8.84918 49.2419 8.86912C49.4341 8.85467 49.6272 8.88366 49.8067 8.95394C49.9862 9.02423 50.1476 9.13401 50.279 9.27515C50.4103 9.41629 50.5082 9.58517 50.5654 9.76929C50.6227 9.9534 50.6377 10.148 50.6095 10.3388V12.8967H49.8297V10.5346C49.8297 9.8996 49.5538 9.58381 48.9771 9.58381C48.8466 9.57773 48.7163 9.59995 48.5951 9.64894C48.474 9.69793 48.3649 9.77254 48.2753 9.86765C48.1857 9.96275 48.1177 10.0761 48.076 10.2C48.0343 10.3238 48.0198 10.4552 48.0337 10.5851V12.8967H47.2539L47.2539 8.9454Z" fill="white"/>
<path d="M51.8525 7.40332H52.6323V12.8971H51.8525V7.40332Z" fill="white"/>
<path d="M53.7158 10.9194C53.691 10.6597 53.7207 10.3977 53.8031 10.1502C53.8854 9.90264 54.0186 9.67506 54.1941 9.48202C54.3695 9.28898 54.5834 9.13475 54.822 9.0292C55.0605 8.92366 55.3185 8.86914 55.5794 8.86914C55.8402 8.86914 56.0982 8.92366 56.3367 9.0292C56.5753 9.13475 56.7892 9.28898 56.9646 9.48202C57.1401 9.67506 57.2732 9.90264 57.3556 10.1502C57.438 10.3977 57.4677 10.6597 57.4429 10.9194C57.4682 11.1793 57.4388 11.4417 57.3566 11.6896C57.2745 11.9375 57.1414 12.1655 56.9659 12.3589C56.7904 12.5523 56.5763 12.7069 56.3376 12.8126C56.0988 12.9184 55.8405 12.973 55.5794 12.973C55.3182 12.973 55.0599 12.9184 54.8211 12.8126C54.5823 12.7069 54.3683 12.5523 54.1928 12.3589C54.0173 12.1655 53.8842 11.9375 53.8021 11.6896C53.7199 11.4417 53.6905 11.1793 53.7158 10.9194ZM56.6404 10.9194C56.6404 10.0629 56.2556 9.56201 55.5804 9.56201C54.9026 9.56201 54.5213 10.0629 54.5213 10.9194C54.5213 11.7828 54.9026 12.2798 55.5804 12.2798C56.2556 12.2798 56.6404 11.7793 56.6404 10.9194Z" fill="white"/>
<path d="M58.2637 11.7793C58.2637 11.068 58.7932 10.658 59.7332 10.5997L60.8035 10.538V10.197C60.8035 9.77963 60.5276 9.54397 59.9946 9.54397C59.5593 9.54397 59.2577 9.70379 59.1711 9.98315H58.4162C58.4959 9.30446 59.1343 8.86914 60.0306 8.86914C61.0212 8.86914 61.5798 9.3623 61.5798 10.197V12.8967H60.8292V12.3414H60.7675C60.6423 12.5406 60.4664 12.703 60.2579 12.812C60.0494 12.921 59.8157 12.9727 59.5807 12.9618C59.4148 12.9791 59.2472 12.9614 59.0886 12.9099C58.93 12.8584 58.7839 12.7742 58.6598 12.6628C58.5357 12.5514 58.4364 12.4152 58.3682 12.263C58.2999 12.1108 58.2643 11.9461 58.2637 11.7793ZM60.8035 11.4416V11.1113L59.8386 11.173C59.2945 11.2094 59.0477 11.3945 59.0477 11.7429C59.0477 12.0985 59.3562 12.3054 59.7804 12.3054C59.9047 12.318 60.0302 12.3055 60.1496 12.2685C60.2689 12.2316 60.3796 12.171 60.4751 12.0904C60.5705 12.0098 60.6488 11.9109 60.7052 11.7994C60.7616 11.688 60.7951 11.5663 60.8035 11.4416Z" fill="white"/>
<path d="M62.6055 10.9198C62.6055 9.67121 63.2473 8.88026 64.2456 8.88026C64.4925 8.86888 64.7376 8.92803 64.9521 9.05078C65.1667 9.17354 65.3419 9.35484 65.4572 9.57348H65.5155V7.40332H66.2952V12.8971H65.548V12.2728H65.4863C65.3621 12.49 65.1808 12.6691 64.9621 12.7906C64.7434 12.9121 64.4956 12.9715 64.2456 12.9622C63.2404 12.9623 62.6055 12.1713 62.6055 10.9198ZM63.411 10.9198C63.411 11.7578 63.806 12.2622 64.4667 12.2622C65.1239 12.2622 65.5301 11.7506 65.5301 10.9232C65.5301 10.0997 65.1196 9.5808 64.4667 9.5808C63.8103 9.5808 63.411 10.0885 63.411 10.9198Z" fill="white"/>
<path d="M69.5205 10.9193C69.4957 10.6596 69.5254 10.3977 69.6077 10.1501C69.6901 9.90262 69.8232 9.67505 69.9987 9.48201C70.1741 9.28898 70.388 9.13474 70.6265 9.0292C70.865 8.92366 71.123 8.86914 71.3838 8.86914C71.6447 8.86914 71.9026 8.92366 72.1412 9.0292C72.3797 9.13474 72.5936 9.28898 72.769 9.48201C72.9444 9.67505 73.0776 9.90262 73.1599 10.1501C73.2423 10.3977 73.272 10.6596 73.2472 10.9193C73.2725 11.1792 73.2431 11.4416 73.161 11.6895C73.0789 11.9374 72.9458 12.1654 72.7703 12.3588C72.5948 12.5523 72.3808 12.7068 72.142 12.8126C71.9033 12.9183 71.645 12.973 71.3838 12.973C71.1227 12.973 70.8644 12.9183 70.6256 12.8126C70.3869 12.7068 70.1729 12.5523 69.9974 12.3588C69.8219 12.1654 69.6888 11.9374 69.6067 11.6895C69.5246 11.4416 69.4952 11.1792 69.5205 10.9193ZM72.4451 10.9193C72.4451 10.0628 72.0603 9.56193 71.3851 9.56193C70.7073 9.56193 70.326 10.0628 70.326 10.9193C70.326 11.7827 70.7074 12.2797 71.3851 12.2797C72.0604 12.2797 72.4451 11.7792 72.4451 10.9193Z" fill="white"/>
<path d="M74.2939 8.9454H75.0446V9.5731H75.1029C75.2017 9.34765 75.3684 9.15866 75.5798 9.03247C75.7911 8.90628 76.0366 8.84918 76.2819 8.86912C76.4742 8.85467 76.6672 8.88366 76.8468 8.95394C77.0263 9.02423 77.1877 9.13401 77.319 9.27515C77.4504 9.41629 77.5483 9.58517 77.6055 9.76929C77.6627 9.9534 77.6777 10.148 77.6495 10.3388V12.8967H76.8698V10.5346C76.8698 9.8996 76.5939 9.58381 76.0172 9.58381C75.8866 9.57773 75.7563 9.59995 75.6352 9.64894C75.514 9.69793 75.4049 9.77254 75.3153 9.86765C75.2257 9.96275 75.1577 10.0761 75.116 10.2C75.0743 10.3238 75.0599 10.4552 75.0737 10.5851V12.8967H74.2939V8.9454Z" fill="white"/>
<path d="M82.0553 7.96191V8.96367H82.9114V9.62051H82.0553V11.6523C82.0553 12.0662 82.2259 12.2474 82.614 12.2474C82.7134 12.2471 82.8127 12.2411 82.9114 12.2294V12.879C82.7713 12.904 82.6295 12.9174 82.4872 12.9188C81.62 12.9188 81.2747 12.6138 81.2747 11.852V9.62048H80.6475V8.96363H81.2747V7.96191H82.0553Z" fill="white"/>
<path d="M83.9766 7.40332H84.7495V9.58079H84.8112C84.9148 9.35324 85.0861 9.16318 85.3017 9.03652C85.5173 8.90985 85.7667 8.85274 86.0159 8.87297C86.2072 8.86256 86.3984 8.89449 86.5758 8.96648C86.7533 9.03847 86.9128 9.14875 87.0427 9.28945C87.1727 9.43014 87.27 9.59779 87.3277 9.78043C87.3855 9.96307 87.4022 10.1562 87.3767 10.346V12.8971H86.5961V10.5384C86.5961 9.90728 86.3022 9.58764 85.7512 9.58764C85.6172 9.57665 85.4824 9.59507 85.3562 9.64162C85.2301 9.68818 85.1156 9.76174 85.0209 9.85716C84.9261 9.95257 84.8533 10.0675 84.8076 10.194C84.762 10.3205 84.7445 10.4554 84.7564 10.5894V12.8971H83.9766L83.9766 7.40332Z" fill="white"/>
<path d="M91.9232 11.8299C91.8173 12.191 91.5878 12.5034 91.2748 12.7124C90.9618 12.9214 90.5853 13.0136 90.2112 12.9731C89.9509 12.9799 89.6922 12.9301 89.4531 12.8269C89.214 12.7238 89.0002 12.5699 88.8265 12.3758C88.6528 12.1818 88.5235 11.9523 88.4474 11.7032C88.3714 11.4542 88.3504 11.1915 88.386 10.9336C88.3513 10.6748 88.3727 10.4116 88.4485 10.1618C88.5244 9.91201 88.6531 9.68143 88.8259 9.48568C88.9986 9.28994 89.2114 9.13359 89.4498 9.02723C89.6882 8.92087 89.9467 8.86698 90.2077 8.86921C91.3071 8.86921 91.9704 9.62035 91.9704 10.8611V11.1332H89.1803V11.1769C89.1681 11.3219 89.1863 11.4679 89.2338 11.6054C89.2813 11.743 89.357 11.8691 89.4561 11.9757C89.5552 12.0822 89.6754 12.1669 89.8091 12.2243C89.9429 12.2817 90.0871 12.3105 90.2326 12.3089C90.4191 12.3313 90.6081 12.2977 90.7755 12.2124C90.9428 12.1271 91.0811 11.994 91.1726 11.8299L91.9232 11.8299ZM89.1803 10.5565H91.176C91.1858 10.4239 91.1678 10.2907 91.1231 10.1655C91.0784 10.0402 91.008 9.92572 90.9164 9.82932C90.8248 9.73292 90.714 9.65675 90.5913 9.6057C90.4685 9.55465 90.3364 9.52986 90.2034 9.5329C90.0686 9.53121 89.9347 9.55653 89.8098 9.60738C89.6849 9.65822 89.5714 9.73357 89.4761 9.82896C89.3807 9.92436 89.3054 10.0379 89.2546 10.1628C89.2038 10.2878 89.1785 10.4216 89.1803 10.5565Z" fill="white"/>
</g>
<defs>
<clipPath id="clip0_92_1721">
<rect width="105" height="35.1" fill="white"/>
</clipPath>
</defs>
</svg>
