<svg width="105" height="36" viewBox="0 0 105 36" fill="none" xmlns="http://www.w3.org/2000/svg">
<g clip-path="url(#clip0_92_1926)">
<path d="M96.6385 0.000114069H8.36627C8.0445 0.000114069 7.7266 0.000114069 7.40569 0.00186898C7.13705 0.0036239 6.87056 0.00872192 6.59935 0.0130127C6.01015 0.0199462 5.42234 0.0717814 4.84101 0.168068C4.26051 0.266451 3.69819 0.45193 3.17308 0.718233C2.6486 0.986789 2.16937 1.33575 1.75278 1.75246C1.334 2.16799 0.984912 2.64829 0.718944 3.17489C0.452241 3.70044 0.267309 4.26362 0.170534 4.84497C0.0728385 5.42559 0.0202678 6.0129 0.0132935 6.60164C0.00515067 6.87067 0.00429076 7.14059 0 7.40965V27.6914C0.00429076 27.9639 0.00515067 28.2278 0.0132935 28.5003C0.02027 29.089 0.0728406 29.6763 0.170534 30.2569C0.267042 30.8386 0.451985 31.4021 0.718944 31.9279C0.984792 32.4528 1.33393 32.9311 1.75278 33.3443C2.1678 33.7629 2.64733 34.1121 3.17308 34.3786C3.69819 34.6456 4.26045 34.8322 4.84101 34.9321C5.42243 35.0276 6.01019 35.0795 6.59935 35.0872C6.87056 35.0932 7.13705 35.0966 7.40569 35.0966C7.72659 35.0984 8.04452 35.0984 8.36627 35.0984H96.6385C96.9538 35.0984 97.2743 35.0984 97.5896 35.0966C97.857 35.0966 98.1312 35.0932 98.3985 35.0872C98.9866 35.0799 99.5732 35.028 100.153 34.9321C100.736 34.8315 101.3 34.645 101.828 34.3786C102.353 34.1119 102.832 33.7627 103.247 33.3443C103.665 32.9295 104.014 32.4515 104.284 31.9279C104.549 31.4017 104.732 30.8383 104.827 30.2569C104.925 29.6762 104.979 29.0891 104.99 28.5003C104.993 28.2278 104.993 27.9639 104.993 27.6914C105 27.3726 105 27.0556 105 26.7316V8.36765C105 8.04632 105 7.72756 104.993 7.40965C104.993 7.14059 104.993 6.87067 104.99 6.6016C104.979 6.01282 104.925 5.42563 104.827 4.84494C104.732 4.26392 104.548 3.70079 104.284 3.17486C103.742 2.11934 102.883 1.26016 101.828 0.718154C101.3 0.452502 100.736 0.267072 100.153 0.167989C99.5733 0.0712782 98.9866 0.0194249 98.3985 0.0128898C98.1312 0.00860785 97.857 0.00346595 97.5896 0.00175491C97.2743 0 96.9538 0.000114069 96.6385 0.000114069Z" fill="black"/>
<path d="M7.41005 34.3303C7.14271 34.3303 6.88183 34.3269 6.61658 34.3209C6.0671 34.3137 5.51891 34.2659 4.97649 34.1778C4.47072 34.0907 3.98076 33.9286 3.52277 33.697C3.06899 33.4673 2.6551 33.1661 2.29697 32.805C1.93365 32.4481 1.63117 32.0342 1.40151 31.5796C1.16933 31.1221 1.00864 30.6317 0.925056 30.1255C0.834787 29.5816 0.785948 29.0316 0.778959 28.4803C0.773396 28.2952 0.766113 27.6791 0.766113 27.6791V7.40934C0.766113 7.40934 0.77387 6.80266 0.779003 6.62442C0.785694 6.07398 0.83425 5.52484 0.924249 4.98176C1.00799 4.47417 1.1688 3.98236 1.40111 3.52334C1.62992 3.0691 1.93072 2.65486 2.29185 2.2967C2.65258 1.93514 3.06779 1.6324 3.52234 1.39953C3.97927 1.16866 4.46831 1.00777 4.97306 0.922247C5.51726 0.833244 6.06735 0.785124 6.61874 0.778292L7.41048 0.767578H97.5854L98.3866 0.778722C98.933 0.785214 99.4781 0.832905 100.017 0.921387C100.527 1.00798 101.021 1.16999 101.483 1.4021C102.394 1.87141 103.135 2.61389 103.602 3.52549C103.831 3.98133 103.989 4.46913 104.072 4.97234C104.163 5.51987 104.214 6.07333 104.225 6.62828C104.227 6.87678 104.227 7.1437 104.227 7.40934C104.234 7.73839 104.234 8.05158 104.234 8.36734V26.7313C104.234 27.0501 104.234 27.3612 104.227 27.6748C104.227 27.9601 104.227 28.2215 104.224 28.4905C104.213 29.0356 104.163 29.5792 104.074 30.1169C103.992 30.6268 103.832 31.121 103.6 31.5823C103.369 32.0319 103.068 32.4422 102.709 32.7982C102.35 33.1612 101.936 33.4642 101.481 33.6954C101.02 33.9288 100.527 34.0914 100.017 34.1778C99.4749 34.2664 98.9267 34.3142 98.3771 34.3209C98.1201 34.3269 97.851 34.3303 97.5897 34.3303L96.6385 34.332L7.41005 34.3303Z" fill="white"/>
<path d="M21.9336 17.4525C21.9435 16.6909 22.1457 15.9441 22.5217 15.2817C22.8977 14.6193 23.4351 14.0628 24.0839 13.6639C23.6717 13.0752 23.1279 12.5907 22.4958 12.249C21.8636 11.9072 21.1604 11.7175 20.4421 11.6951C18.9099 11.5342 17.4244 12.6119 16.6436 12.6119C15.8477 12.6119 14.6455 11.711 13.351 11.7377C12.5136 11.7647 11.6976 12.0082 10.9823 12.4444C10.2671 12.8806 9.677 13.4947 9.26962 14.2268C7.50496 17.2821 8.82124 21.7723 10.5117 24.242C11.3574 25.4514 12.3459 26.8022 13.6393 26.7543C14.9049 26.7018 15.3776 25.9473 16.9053 25.9473C18.4189 25.9473 18.8624 26.7543 20.182 26.7239C21.5401 26.7018 22.3957 25.5092 23.2118 24.2884C23.8195 23.4267 24.2871 22.4743 24.5973 21.4666C23.8083 21.1329 23.135 20.5743 22.6613 19.8605C22.1876 19.1466 21.9346 18.3092 21.9336 17.4525Z" fill="black"/>
<path d="M19.4414 10.0708C20.1819 9.18188 20.5467 8.03931 20.4583 6.88574C19.327 7.00456 18.282 7.54525 17.5315 8.40007C17.1646 8.81768 16.8836 9.30351 16.7045 9.82979C16.5254 10.3561 16.4518 10.9125 16.4879 11.4672C17.0538 11.473 17.6136 11.3504 18.1252 11.1085C18.6367 10.8666 19.0868 10.5118 19.4414 10.0708Z" fill="black"/>
<path d="M37.118 23.8144H32.9646L31.9672 26.7595H30.208L34.142 15.8633H35.9697L39.9037 26.7595H38.1145L37.118 23.8144ZM33.3948 22.4554H36.687L35.064 17.6756H35.0186L33.3948 22.4554Z" fill="black"/>
<path d="M48.3998 22.7876C48.3998 25.2563 47.0784 26.8424 45.0844 26.8424C44.5793 26.8688 44.077 26.7525 43.6349 26.5067C43.1929 26.2609 42.829 25.8955 42.5849 25.4525H42.5472V29.3874H40.9165V18.8151H42.4949V20.1364H42.5249C42.7802 19.6955 43.1502 19.3321 43.5957 19.0847C44.0411 18.8374 44.5452 18.7155 45.0544 18.7319C47.0707 18.7319 48.3998 20.3258 48.3998 22.7876ZM46.7237 22.7876C46.7237 21.1792 45.8925 20.1218 44.6243 20.1218C43.3784 20.1218 42.5403 21.2015 42.5403 22.7876C42.5403 24.3883 43.3784 25.4603 44.6243 25.4603C45.8925 25.4603 46.7237 24.4106 46.7237 22.7876Z" fill="black"/>
<path d="M57.1438 22.7876C57.1438 25.2563 55.8221 26.8424 53.8281 26.8424C53.323 26.8688 52.8206 26.7525 52.3786 26.5067C51.9365 26.2609 51.5726 25.8955 51.3285 25.4525H51.2908V29.3874H49.6602V18.8151H51.2385V20.1364H51.2685C51.5238 19.6955 51.8939 19.3321 52.3393 19.0847C52.7847 18.8374 53.2889 18.7155 53.7981 18.7319C55.8144 18.7319 57.1438 20.3258 57.1438 22.7876ZM55.4673 22.7876C55.4673 21.1792 54.6361 20.1218 53.368 20.1218C52.122 20.1218 51.284 21.2015 51.284 22.7876C51.284 24.3883 52.122 25.4603 53.368 25.4603C54.6361 25.4603 55.4673 24.4106 55.4673 22.7876Z" fill="black"/>
<path d="M62.9222 23.7236C63.043 24.8042 64.0927 25.5136 65.5271 25.5136C66.9016 25.5136 67.8904 24.8041 67.8904 23.8298C67.8904 22.9841 67.2941 22.4777 65.8819 22.1306L64.4697 21.7904C62.4689 21.3071 61.54 20.3714 61.54 18.853C61.54 16.973 63.1784 15.6816 65.504 15.6816C67.8073 15.6816 69.3857 16.973 69.4389 18.853H67.7928C67.6942 17.7656 66.7953 17.1092 65.4817 17.1092C64.1681 17.1092 63.2692 17.7733 63.2692 18.7399C63.2692 19.5102 63.8433 19.9635 65.2478 20.3105L66.4483 20.6053C68.6839 21.134 69.6119 22.0321 69.6119 23.6259C69.6119 25.6644 67.989 26.9412 65.4063 26.9412C62.9898 26.9412 61.3583 25.6944 61.2529 23.7235L62.9222 23.7236Z" fill="black"/>
<path d="M73.1328 16.9355V18.8156H74.6435V20.1069H73.1328V24.4865C73.1328 25.1668 73.4353 25.4839 74.0994 25.4839C74.2787 25.4808 74.4578 25.4682 74.6358 25.4462V26.7298C74.3372 26.7856 74.0338 26.8108 73.7301 26.8052C72.1217 26.8052 71.4944 26.2011 71.4944 24.6604V20.1069H70.3394V18.8156H71.4944V16.9355H73.1328Z" fill="black"/>
<path d="M75.5176 22.788C75.5176 20.2885 76.9897 18.7178 79.2853 18.7178C81.5887 18.7178 83.0539 20.2884 83.0539 22.788C83.0539 25.2944 81.5964 26.8582 79.2853 26.8582C76.9751 26.8582 75.5176 25.2944 75.5176 22.788ZM81.3924 22.788C81.3924 21.0734 80.6066 20.0614 79.2853 20.0614C77.964 20.0614 77.1782 21.0811 77.1782 22.788C77.1782 24.5095 77.964 25.5138 79.2853 25.5138C80.6066 25.5138 81.3924 24.5095 81.3924 22.788Z" fill="black"/>
<path d="M84.3985 18.815H85.9537V20.1671H85.9914C86.0967 19.7448 86.3441 19.3716 86.692 19.1102C87.04 18.8489 87.4674 18.7152 87.9023 18.7318C88.0902 18.7312 88.2776 18.7516 88.461 18.7927V20.318C88.2238 20.2455 87.9763 20.2122 87.7283 20.2194C87.4914 20.2098 87.2553 20.2516 87.036 20.3419C86.8168 20.4321 86.6197 20.5688 86.4583 20.7424C86.2969 20.9161 86.1749 21.1226 86.1008 21.3478C86.0267 21.573 86.0023 21.8116 86.0291 22.0472V26.7592H84.3984L84.3985 18.815Z" fill="black"/>
<path d="M95.9792 24.4264C95.7598 25.8685 94.3554 26.8582 92.5585 26.8582C90.2474 26.8582 88.813 25.3098 88.813 22.8257C88.813 20.3339 90.2551 18.7178 92.4899 18.7178C94.6878 18.7178 96.07 20.2276 96.07 22.6363V23.195H90.4591V23.2936C90.4332 23.5859 90.4698 23.8805 90.5665 24.1576C90.6631 24.4347 90.8177 24.6881 91.0198 24.901C91.2219 25.1138 91.467 25.2812 91.7388 25.392C92.0106 25.5028 92.3029 25.5546 92.5962 25.5438C92.9815 25.5799 93.3682 25.4906 93.6988 25.2893C94.0293 25.088 94.286 24.7853 94.4308 24.4264L95.9792 24.4264ZM90.4668 22.0554H94.4385C94.4531 21.7925 94.4133 21.5294 94.3214 21.2827C94.2296 21.0359 94.0877 20.8108 93.9047 20.6215C93.7218 20.4322 93.5016 20.2827 93.2582 20.1825C93.0147 20.0823 92.7531 20.0334 92.4899 20.0391C92.2244 20.0375 91.9611 20.0885 91.7154 20.1892C91.4697 20.2899 91.2463 20.4382 91.0582 20.6257C90.8701 20.8132 90.721 21.036 90.6195 21.2814C90.518 21.5268 90.4661 21.7898 90.4668 22.0554Z" fill="black"/>
<path d="M33.191 7.66121C33.5328 7.63668 33.8759 7.68833 34.1954 7.81243C34.5149 7.93653 34.8028 8.12999 35.0385 8.37886C35.2742 8.62773 35.4517 8.9258 35.5582 9.25157C35.6647 9.57735 35.6976 9.9227 35.6545 10.2627C35.6545 11.9354 34.7505 12.8969 33.191 12.8969H31.2998V7.66121H33.191ZM32.113 12.1564H33.1001C33.3444 12.171 33.5889 12.131 33.8157 12.0392C34.0426 11.9474 34.2461 11.8062 34.4115 11.6258C34.5769 11.4454 34.7 11.2304 34.7718 10.9965C34.8437 10.7625 34.8624 10.5155 34.8268 10.2734C34.8598 10.0322 34.8392 9.78676 34.7662 9.55453C34.6933 9.3223 34.5699 9.10907 34.4049 8.93013C34.2399 8.75119 34.0373 8.61097 33.8118 8.51951C33.5862 8.42804 33.3432 8.38761 33.1001 8.40109H32.113V12.1564Z" fill="black"/>
<path d="M36.5733 10.9192C36.5484 10.6596 36.5781 10.3976 36.6605 10.1501C36.7428 9.90257 36.876 9.67501 37.0514 9.48198C37.2269 9.28896 37.4407 9.13473 37.6792 9.02919C37.9178 8.92366 38.1757 8.86914 38.4366 8.86914C38.6974 8.86914 38.9554 8.92366 39.1939 9.02919C39.4325 9.13473 39.6463 9.28896 39.8217 9.48198C39.9972 9.67501 40.1303 9.90257 40.2127 10.1501C40.295 10.3976 40.3247 10.6596 40.2999 10.9192C40.3252 11.1791 40.2958 11.4415 40.2137 11.6894C40.1316 11.9373 39.9985 12.1653 39.823 12.3587C39.6476 12.5521 39.4335 12.7066 39.1948 12.8124C38.956 12.9181 38.6977 12.9728 38.4366 12.9728C38.1754 12.9728 37.9172 12.9181 37.6784 12.8124C37.4396 12.7066 37.2256 12.5521 37.0501 12.3587C36.8746 12.1653 36.7416 11.9373 36.6594 11.6894C36.5773 11.4415 36.548 11.1791 36.5733 10.9192ZM39.4978 10.9192C39.4978 10.0628 39.1131 9.5619 38.4379 9.5619C37.7601 9.5619 37.3788 10.0628 37.3788 10.9192C37.3788 11.7825 37.7601 12.2795 38.4379 12.2795C39.1131 12.2795 39.4978 11.7791 39.4978 10.9192Z" fill="black"/>
<path d="M45.2535 12.8964H44.4446L43.628 9.98643H43.5663L42.7531 12.8964H41.9519L40.8628 8.94531H41.6537L42.3615 11.9603H42.4198L43.2321 8.94531H43.9802L44.7925 11.9603H44.8542L45.5586 8.94531H46.3383L45.2535 12.8964Z" fill="black"/>
<path d="M47.2544 8.94539H48.005V9.57306H48.0633C48.1622 9.34763 48.3289 9.15865 48.5402 9.03246C48.7516 8.90628 48.997 8.84918 49.2424 8.86912C49.4346 8.85467 49.6277 8.88366 49.8072 8.95394C49.9867 9.02422 50.1481 9.13399 50.2795 9.27513C50.4108 9.41626 50.5087 9.58513 50.5659 9.76924C50.6231 9.95335 50.6382 10.148 50.61 10.3387V12.8965H49.8302V10.5345C49.8302 9.89955 49.5543 9.58378 48.9776 9.58378C48.8471 9.5777 48.7168 9.59991 48.5956 9.6489C48.4745 9.69789 48.3654 9.77249 48.2758 9.8676C48.1862 9.9627 48.1182 10.0761 48.0765 10.1999C48.0348 10.3237 48.0203 10.4551 48.0342 10.5851V12.8965H47.2544L47.2544 8.94539Z" fill="black"/>
<path d="M51.8525 7.40332H52.6323V12.8968H51.8525V7.40332Z" fill="black"/>
<path d="M53.7158 10.9193C53.691 10.6596 53.7207 10.3976 53.8031 10.1501C53.8854 9.90259 54.0186 9.67502 54.1941 9.48199C54.3695 9.28896 54.5834 9.13473 54.822 9.0292C55.0605 8.92366 55.3185 8.86914 55.5794 8.86914C55.8402 8.86914 56.0982 8.92366 56.3367 9.0292C56.5753 9.13473 56.7892 9.28896 56.9646 9.48199C57.1401 9.67502 57.2732 9.90259 57.3556 10.1501C57.438 10.3976 57.4677 10.6596 57.4429 10.9193C57.4682 11.1792 57.4388 11.4416 57.3566 11.6895C57.2745 11.9374 57.1414 12.1653 56.9659 12.3587C56.7904 12.5521 56.5763 12.7067 56.3376 12.8124C56.0988 12.9182 55.8405 12.9728 55.5794 12.9728C55.3182 12.9728 55.0599 12.9182 54.8211 12.8124C54.5823 12.7067 54.3683 12.5521 54.1928 12.3587C54.0173 12.1653 53.8842 11.9374 53.8021 11.6895C53.7199 11.4416 53.6905 11.1792 53.7158 10.9193ZM56.6404 10.9193C56.6404 10.0628 56.2556 9.56197 55.5804 9.56197C54.9026 9.56197 54.5213 10.0628 54.5213 10.9193C54.5213 11.7826 54.9026 12.2796 55.5804 12.2796C56.2556 12.2796 56.6404 11.7792 56.6404 10.9193Z" fill="black"/>
<path d="M58.2642 11.7791C58.2642 11.0679 58.7937 10.6579 59.7337 10.5996L60.804 10.5379V10.1969C60.804 9.77958 60.5281 9.54394 59.9951 9.54394C59.5598 9.54394 59.2582 9.70375 59.1716 9.9831H58.4167C58.4964 9.30444 59.1348 8.86914 60.0311 8.86914C61.0216 8.86914 61.5803 9.36227 61.5803 10.1969V12.8965H60.8297V12.3413H60.768C60.6428 12.5404 60.4669 12.7028 60.2584 12.8118C60.0499 12.9208 59.8162 12.9725 59.5812 12.9616C59.4153 12.9789 59.2477 12.9612 59.0891 12.9097C58.9305 12.8582 58.7844 12.774 58.6603 12.6626C58.5362 12.5512 58.4369 12.415 58.3686 12.2628C58.3004 12.1107 58.2648 11.9459 58.2642 11.7791ZM60.804 11.4415V11.1112L59.8391 11.1729C59.295 11.2093 59.0482 11.3944 59.0482 11.7427C59.0482 12.0983 59.3567 12.3053 59.7809 12.3053C59.9052 12.3178 60.0307 12.3053 60.1501 12.2684C60.2694 12.2314 60.3801 12.1709 60.4755 12.0903C60.571 12.0097 60.6493 11.9107 60.7057 11.7993C60.7621 11.6878 60.7955 11.5662 60.804 11.4415Z" fill="black"/>
<path d="M62.605 10.9196C62.605 9.6711 63.2468 8.88018 64.2451 8.88018C64.492 8.86881 64.7371 8.92795 64.9516 9.0507C65.1662 9.17345 65.3414 9.35474 65.4567 9.57337H65.515V7.40332H66.2948V12.8968H65.5476V12.2726H65.4859C65.3616 12.4898 65.1803 12.6688 64.9616 12.7903C64.7429 12.9118 64.4951 12.9712 64.2451 12.962C63.2399 12.962 62.605 12.1711 62.605 10.9196ZM63.4105 10.9196C63.4105 11.7576 63.8055 12.2619 64.4662 12.2619C65.1234 12.2619 65.5296 11.7504 65.5296 10.923C65.5296 10.0995 65.1191 9.58069 64.4662 9.58069C63.8098 9.58069 63.4105 10.0884 63.4105 10.9196Z" fill="black"/>
<path d="M69.521 10.9192C69.4962 10.6596 69.5259 10.3976 69.6082 10.1501C69.6906 9.90257 69.8237 9.67501 69.9992 9.48198C70.1746 9.28896 70.3884 9.13473 70.627 9.02919C70.8655 8.92366 71.1235 8.86914 71.3843 8.86914C71.6452 8.86914 71.9031 8.92366 72.1417 9.02919C72.3802 9.13473 72.594 9.28896 72.7695 9.48198C72.9449 9.67501 73.0781 9.90257 73.1604 10.1501C73.2428 10.3976 73.2725 10.6596 73.2476 10.9192C73.273 11.1791 73.2436 11.4415 73.1615 11.6894C73.0794 11.9373 72.9463 12.1653 72.7708 12.3587C72.5953 12.5521 72.3813 12.7066 72.1425 12.8124C71.9037 12.9181 71.6455 12.9728 71.3843 12.9728C71.1232 12.9728 70.8649 12.9181 70.6261 12.8124C70.3874 12.7066 70.1734 12.5521 69.9979 12.3587C69.8224 12.1653 69.6893 11.9373 69.6072 11.6894C69.5251 11.4415 69.4957 11.1791 69.521 10.9192ZM72.4456 10.9192C72.4456 10.0628 72.0608 9.5619 71.3856 9.5619C70.7078 9.5619 70.3265 10.0628 70.3265 10.9192C70.3265 11.7825 70.7078 12.2795 71.3856 12.2795C72.0608 12.2795 72.4456 11.7791 72.4456 10.9192Z" fill="black"/>
<path d="M74.2939 8.94539H75.0446V9.57306H75.1029C75.2017 9.34763 75.3684 9.15865 75.5798 9.03246C75.7911 8.90628 76.0366 8.84918 76.2819 8.86912C76.4742 8.85467 76.6672 8.88366 76.8468 8.95394C77.0263 9.02422 77.1877 9.13399 77.319 9.27513C77.4504 9.41626 77.5483 9.58513 77.6055 9.76924C77.6627 9.95335 77.6777 10.148 77.6495 10.3387V12.8965H76.8698V10.5345C76.8698 9.89955 76.5939 9.58378 76.0172 9.58378C75.8866 9.5777 75.7563 9.59991 75.6352 9.6489C75.514 9.69789 75.4049 9.77249 75.3153 9.8676C75.2257 9.9627 75.1577 10.0761 75.116 10.1999C75.0743 10.3237 75.0599 10.4551 75.0737 10.5851V12.8965H74.2939V8.94539Z" fill="black"/>
<path d="M82.0558 7.96191V8.96362H82.9119V9.62043H82.0558V11.6521C82.0558 12.066 82.2263 12.2472 82.6145 12.2472C82.7139 12.2469 82.8132 12.2409 82.9119 12.2292V12.8787C82.7718 12.9038 82.6299 12.9171 82.4877 12.9186C81.6205 12.9186 81.2752 12.6135 81.2752 11.8518V9.62039H80.6479V8.96358H81.2752V7.96191H82.0558Z" fill="black"/>
<path d="M83.9766 7.40332H84.7495V9.58068H84.8112C84.9148 9.35314 85.0861 9.16309 85.3017 9.03643C85.5173 8.90978 85.7667 8.85267 86.0159 8.87289C86.2072 8.86249 86.3984 8.89442 86.5758 8.9664C86.7533 9.03839 86.9128 9.14866 87.0427 9.28935C87.1727 9.43004 87.27 9.59768 87.3277 9.78031C87.3855 9.96294 87.4022 10.1561 87.3767 10.3459V12.8969H86.5961V10.5383C86.5961 9.90715 86.3022 9.58753 85.7512 9.58753C85.6172 9.57654 85.4824 9.59496 85.3562 9.64151C85.2301 9.68807 85.1156 9.76162 85.0209 9.85703C84.9261 9.95245 84.8533 10.0674 84.8076 10.1939C84.762 10.3204 84.7445 10.4553 84.7564 10.5892V12.8968H83.9766L83.9766 7.40332Z" fill="black"/>
<path d="M91.9237 11.8298C91.8178 12.1909 91.5882 12.5032 91.2753 12.7122C90.9623 12.9212 90.5858 13.0134 90.2117 12.9729C89.9513 12.9797 89.6927 12.9299 89.4535 12.8267C89.2144 12.7236 89.0006 12.5697 88.827 12.3757C88.6533 12.1816 88.524 11.9521 88.4479 11.7031C88.3718 11.454 88.3509 11.1914 88.3865 10.9335C88.3518 10.6747 88.3731 10.4115 88.449 10.1617C88.5249 9.91196 88.6536 9.68139 88.8263 9.48565C88.9991 9.28992 89.2119 9.13358 89.4503 9.02722C89.6887 8.92087 89.9472 8.86698 90.2082 8.86921C91.3076 8.86921 91.9708 9.62031 91.9708 10.861V11.1331H89.1808V11.1768C89.1686 11.3218 89.1868 11.4678 89.2343 11.6053C89.2818 11.7428 89.3575 11.8689 89.4566 11.9755C89.5557 12.0821 89.6759 12.1668 89.8096 12.2242C89.9433 12.2815 90.0876 12.3104 90.2331 12.3087C90.4196 12.3311 90.6086 12.2975 90.776 12.2123C90.9433 12.127 91.0816 11.9938 91.1731 11.8297L91.9237 11.8298ZM89.1808 10.5564H91.1765C91.1863 10.4238 91.1683 10.2906 91.1236 10.1654C91.0789 10.0402 91.0085 9.92567 90.9169 9.82927C90.8253 9.73288 90.7145 9.65671 90.5917 9.60567C90.469 9.55462 90.3369 9.52982 90.2039 9.53287C90.0691 9.53118 89.9352 9.5565 89.8103 9.60734C89.6854 9.65819 89.5719 9.73352 89.4765 9.82891C89.3812 9.92431 89.3059 10.0378 89.2551 10.1628C89.2043 10.2877 89.179 10.4216 89.1808 10.5564Z" fill="black"/>
</g>
<defs>
<clipPath id="clip0_92_1926">
<rect width="105" height="35.0983" fill="white"/>
</clipPath>
</defs>
</svg>
