<svg width="109" height="166" viewBox="0 0 109 166" fill="none" xmlns="http://www.w3.org/2000/svg">
<g opacity="0.35">
<mask id="mask0_27_20748" style="mask-type:luminance" maskUnits="userSpaceOnUse" x="0" y="155" width="109" height="11">
<path d="M108.667 155.453H0V165.924H108.667V155.453Z" fill="white"/>
</mask>
<g mask="url(#mask0_27_20748)">
<path d="M0 160.688C0 157.797 24.326 155.453 54.3338 155.453C84.3415 155.453 108.668 157.797 108.668 160.688C108.668 163.58 84.3415 165.924 54.3338 165.924C24.326 165.924 0 163.58 0 160.688Z" fill="#5E5E5E"/>
</g>
</g>
<path d="M35.1774 157.641C35.1774 160.879 32.5528 163.503 29.3153 163.503C26.0777 163.503 23.4531 160.879 23.4531 157.641C23.4531 154.404 26.0777 151.779 29.3153 151.779C32.5528 151.779 35.1774 154.404 35.1774 157.641Z" fill="#1C1C1C"/>
<path d="M34.0902 157.642C34.0902 160.28 31.9517 162.418 29.3137 162.418C26.6756 162.418 24.5371 160.28 24.5371 157.642C24.5371 155.004 26.6756 152.865 29.3137 152.865C31.9517 152.865 34.0902 155.004 34.0902 157.642Z" fill="#444444"/>
<path d="M32.3597 157.641C32.3597 159.324 30.9953 160.689 29.3122 160.689C27.6291 160.689 26.2646 159.324 26.2646 157.641C26.2646 155.958 27.6291 154.594 29.3122 154.594C30.9953 154.594 32.3597 155.958 32.3597 157.641Z" fill="#C9C9C9"/>
<path d="M88.153 157.641C88.153 160.879 85.5284 163.503 82.2909 163.503C79.0533 163.503 76.4287 160.879 76.4287 157.641C76.4287 154.404 79.0533 151.779 82.2909 151.779C85.5284 151.779 88.153 154.404 88.153 157.641Z" fill="#1C1C1C"/>
<path d="M87.0668 157.642C87.0668 160.28 84.9282 162.418 82.2902 162.418C79.6522 162.418 77.5137 160.28 77.5137 157.642C77.5137 155.004 79.6522 152.865 82.2902 152.865C84.9282 152.865 87.0668 155.004 87.0668 157.642Z" fill="#444444"/>
<path d="M85.3353 157.641C85.3353 159.324 83.9709 160.689 82.2878 160.689C80.6046 160.689 79.2402 159.324 79.2402 157.641C79.2402 155.958 80.6046 154.594 82.2878 154.594C83.9709 154.594 85.3353 155.958 85.3353 157.641Z" fill="#C9C9C9"/>
<path d="M71.6666 4.72266H68.4668V19.3418H71.6666V4.72266Z" fill="#BCBBBB"/>
<path d="M72.5277 18.4004H67.6064V33.0196H72.5277V18.4004Z" fill="#A8A8A8"/>
<path d="M41.1325 4.72266H37.9326V19.3418H41.1325V4.72266Z" fill="#BCBBBB"/>
<path d="M41.9935 18.4004H37.0723V33.0196H41.9935V18.4004Z" fill="#A8A8A8"/>
<path d="M64.9655 0H44.4661H37.7491C36.2427 0 35.0215 1.22113 35.0215 2.72751V4.72229V9.44458H44.4661V6.52713C44.4661 5.53029 45.2741 4.72229 46.2709 4.72229H63.1607C64.1575 4.72229 64.9655 5.53029 64.9655 6.52713V9.44458H74.4101V4.72229V2.72751C74.4101 1.22113 73.1889 0 71.6825 0H64.9655Z" fill="#2D2D2D"/>
<path d="M100.321 154.526H11.9502C9.25354 154.526 7.06738 152.34 7.06738 149.643V37.0323C7.06738 34.3356 9.25354 32.1494 11.9502 32.1494H100.321C103.018 32.1494 105.204 34.3356 105.204 37.0323V149.643C105.204 152.34 103.018 154.526 100.321 154.526Z" fill="#E2AF4B"/>
<path d="M98.384 151.948H14.3555C11.6587 151.948 9.47266 149.762 9.47266 147.065V39.8692C9.47266 37.1725 11.6587 34.9863 14.3555 34.9863H98.384C101.081 34.9863 103.267 37.1725 103.267 39.8692V147.065C103.267 149.762 101.081 151.948 98.384 151.948Z" fill="#FFBE2C"/>
<g opacity="0.04">
<mask id="mask1_27_20748" style="mask-type:luminance" maskUnits="userSpaceOnUse" x="7" y="101" width="99" height="54">
<path d="M105.209 101.195H7.07227V154.527H105.209V101.195Z" fill="white"/>
</mask>
<g mask="url(#mask1_27_20748)">
<path d="M17.8707 119.031L7.07227 115.665V139.542C7.07227 147.818 13.7813 154.527 22.0573 154.527H90.2238C98.4997 154.527 105.209 147.818 105.209 139.542V101.195L89.1814 110.693C67.664 123.444 41.7493 126.474 17.8707 119.031Z" fill="black"/>
</g>
</g>
<path d="M44.607 33.0201H34.4658V30.3872C34.4658 30.1626 34.648 29.9805 34.8727 29.9805H44.2002C44.4249 29.9805 44.607 30.1626 44.607 30.3872V33.0201Z" fill="#2D2D2D"/>
<path d="M8.39536 65.7275V72.6074H4.41657C4.25832 72.6074 4.12988 72.4791 4.12988 72.3207V66.0142C4.12988 65.8559 4.25832 65.7275 4.41657 65.7275H8.39536Z" fill="#2D2D2D"/>
<path d="M8.39536 115.664V122.544H4.41657C4.25832 122.544 4.12988 122.416 4.12988 122.257V115.951C4.12988 115.792 4.25832 115.664 4.41657 115.664H8.39536Z" fill="#2D2D2D"/>
<path d="M75.1372 33.0201H64.9961V30.3872C64.9961 30.1626 65.1781 29.9805 65.4028 29.9805H74.7304C74.9551 29.9805 75.1372 30.1626 75.1372 30.3872V33.0201Z" fill="#2D2D2D"/>
<path d="M11.5106 51.517C18.1052 51.517 23.4512 46.1711 23.4512 39.5765V34.5273H15.4785C11.8477 34.5273 8.9043 37.4707 8.9043 41.1016V51.517H11.5106Z" fill="#1C1C1C"/>
<path d="M101.084 51.517C94.4895 51.517 89.1436 46.1711 89.1436 39.5765V34.5273H97.1162C100.747 34.5273 103.69 37.4707 103.69 41.1016L103.69 51.517H101.084Z" fill="#1C1C1C"/>
<path d="M11.4022 135.229C17.9968 135.229 23.3428 140.575 23.3428 147.17V152.219H15.3701C11.7393 152.219 8.7959 149.276 8.7959 145.645V135.229H11.4022Z" fill="#1C1C1C"/>
<path d="M101.193 135.34C94.5989 135.34 89.2529 140.686 89.2529 147.28V152.33H97.2256C100.856 152.33 103.8 149.386 103.8 145.755V135.34H101.193Z" fill="#1C1C1C"/>
<path d="M70.955 65.0692L39.0891 62.0509C38.3871 61.9843 37.8719 61.3615 37.9384 60.6594L38.606 53.6115C38.6724 52.9095 39.2954 52.3944 39.9975 52.4609L71.8634 55.4792C72.5654 55.5457 73.0806 56.1686 73.0141 56.8706L72.3465 63.9185C72.2799 64.6205 71.6571 65.1357 70.955 65.0692Z" fill="#EFEFEF"/>
<path d="M70.4158 64.6294L39.466 61.6979C38.764 61.6314 38.2489 61.0084 38.3153 60.3065L38.9101 54.0284C38.9765 53.3265 39.5995 52.8114 40.3014 52.8778L71.2512 55.8094C71.9532 55.8759 72.4684 56.4989 72.4019 57.2008L71.8073 63.4787C71.7408 64.1808 71.1178 64.6959 70.4158 64.6294Z" fill="#FF9700"/>
<path d="M46.5052 56.3831L45.4663 56.2847L45.1429 59.6994C45.1242 59.896 45.0665 60.0378 44.97 60.1246C44.8733 60.2114 44.7555 60.2482 44.6166 60.235C44.4756 60.2217 44.3652 60.1627 44.2856 60.0581C44.2059 59.9535 44.1754 59.804 44.1939 59.6094L44.5174 56.1948L43.4784 56.0964C43.3161 56.081 43.1986 56.0338 43.1262 55.9546C43.054 55.8756 43.0233 55.7772 43.0344 55.6597C43.046 55.5378 43.0963 55.4456 43.1853 55.3828C43.2744 55.3201 43.3968 55.2961 43.5528 55.3109L46.5796 55.5975C46.7442 55.6132 46.8631 55.661 46.9364 55.7413C47.0096 55.8216 47.0409 55.9205 47.0296 56.0381C47.0185 56.1557 46.9688 56.2464 46.8809 56.3103C46.7928 56.3742 46.6677 56.3985 46.5052 56.3831Z" fill="white"/>
<path d="M48.6547 58.5082L48.3212 58.4765L48.1782 59.9867C48.1594 60.1855 48.1017 60.3278 48.0051 60.4135C47.9085 60.4992 47.7898 60.5354 47.6487 60.5221C47.4969 60.5077 47.3841 60.4474 47.31 60.3412C47.2359 60.235 47.208 60.0869 47.226 59.8966L47.5686 56.2799C47.588 56.0746 47.648 55.9305 47.7485 55.8473C47.8491 55.7641 48.0021 55.7322 48.2073 55.7516L49.756 55.8983C49.9697 55.9186 50.1516 55.945 50.3016 55.9775C50.4517 56.01 50.5849 56.0599 50.7015 56.1269C50.8432 56.2029 50.9651 56.304 51.0675 56.4301C51.1699 56.5562 51.2432 56.6986 51.2876 56.857C51.3318 57.0155 51.3459 57.1801 51.3297 57.3511C51.2965 57.7016 51.1709 57.9722 50.9534 58.163C50.736 58.3538 50.4221 58.474 50.012 58.5235C50.1723 58.6292 50.3212 58.777 50.4584 58.9669C50.5957 59.1568 50.7154 59.3564 50.8175 59.5654C50.9194 59.7747 50.9967 59.9621 51.049 60.1276C51.1011 60.2932 51.1245 60.406 51.1189 60.4659C51.1129 60.528 51.0873 60.5875 51.0419 60.6446C50.9967 60.7017 50.938 60.7448 50.8664 60.7736C50.7946 60.8023 50.714 60.8124 50.6242 60.804C50.5171 60.7938 50.4298 60.7602 50.3619 60.7032C50.294 60.646 50.2376 60.5764 50.1924 60.4946C50.1473 60.4126 50.0869 60.2926 50.0114 60.1345L49.69 59.4635C49.5753 59.2176 49.4696 59.0286 49.3732 58.8966C49.2768 58.7644 49.1752 58.6707 49.0683 58.6153C48.9613 58.5599 48.8235 58.5241 48.6547 58.5082ZM49.3868 56.5847L48.5083 56.5015L48.386 57.7936L49.2387 57.8744C49.4675 57.8961 49.6618 57.8945 49.8215 57.8698C49.9814 57.845 50.1068 57.789 50.1982 57.7016C50.2895 57.6144 50.343 57.4874 50.3588 57.3206C50.3712 57.1902 50.3489 57.0721 50.292 56.9665C50.2351 56.8608 50.1503 56.7779 50.0374 56.7175C49.9307 56.66 49.7139 56.6156 49.3868 56.5847Z" fill="white"/>
<path d="M54.9667 60.5979L54.7982 59.9867L52.8872 59.8057L52.6057 60.3873C52.4958 60.6141 52.406 60.7657 52.3361 60.8421C52.2664 60.9186 52.161 60.9501 52.0199 60.9367C51.9002 60.9253 51.7985 60.8715 51.715 60.7751C51.6313 60.6788 51.5948 60.5752 51.6053 60.4639C51.6114 60.3997 51.6283 60.3346 51.6562 60.2682C51.6839 60.2018 51.7283 60.1101 51.789 59.9929L53.2806 57.0544C53.3229 56.97 53.3742 56.8686 53.4339 56.7502C53.4936 56.6319 53.5546 56.5347 53.6168 56.4586C53.6789 56.3825 53.7568 56.3237 53.8502 56.2817C53.9436 56.24 54.0556 56.2253 54.1861 56.2376C54.3186 56.2502 54.4267 56.2857 54.5107 56.3444C54.5947 56.403 54.6602 56.4744 54.7072 56.5586C54.7543 56.6429 54.7921 56.7323 54.8209 56.8266C54.8497 56.921 54.8858 57.0468 54.9291 57.2041L55.8698 60.3535C55.9441 60.5934 55.9764 60.7659 55.9665 60.8706C55.9561 60.9796 55.9012 61.0752 55.8018 61.1574C55.7022 61.2397 55.5884 61.2747 55.4601 61.2625C55.3854 61.2555 55.3226 61.236 55.2715 61.2043C55.2208 61.1725 55.1792 61.132 55.1472 61.0825C55.1153 61.0332 55.083 60.9589 55.0504 60.8599C55.0176 60.7607 54.9898 60.6736 54.9667 60.5979ZM53.2051 59.1145L54.6094 59.2474L54.0846 57.2405L53.2051 59.1145Z" fill="white"/>
<path d="M57.3878 57.1712L58.1536 60.4239L59.522 57.3507C59.5933 57.1894 59.646 57.0773 59.68 57.0147C59.7139 56.9521 59.7654 56.8977 59.8344 56.8514C59.9036 56.8051 59.9938 56.7872 60.1048 56.7977C60.1862 56.8055 60.2597 56.833 60.3251 56.88C60.3907 56.9273 60.4402 56.9864 60.4734 57.0575C60.5065 57.1286 60.5198 57.1984 60.5133 57.2667C60.5088 57.3137 60.4978 57.3639 60.4797 57.4172C60.4618 57.4704 60.4405 57.5224 60.4165 57.573C60.3923 57.6235 60.3679 57.6757 60.3434 57.7294L58.9142 60.6932C58.8624 60.807 58.8112 60.9148 58.7606 61.0167C58.71 61.1187 58.6542 61.2072 58.593 61.2823C58.5321 61.3573 58.4547 61.4164 58.3614 61.4593C58.2676 61.5022 58.1568 61.5176 58.0285 61.5053C57.9003 61.4932 57.7941 61.4578 57.7102 61.3993C57.6262 61.3407 57.561 61.2676 57.5142 61.1801C57.4676 61.0927 57.4287 60.9947 57.3982 60.8861C57.3674 60.7775 57.3372 60.6625 57.3077 60.5411L56.4775 57.3891C56.4634 57.3317 56.4488 57.2753 56.4335 57.2199C56.4182 57.1646 56.4066 57.1053 56.3987 57.042C56.3906 56.9786 56.3886 56.9258 56.3927 56.8829C56.403 56.7739 56.4562 56.6786 56.5525 56.5972C56.6485 56.5156 56.7628 56.4812 56.8954 56.4937C57.0578 56.5091 57.168 56.5698 57.2259 56.6755C57.2839 56.7813 57.3377 56.9465 57.3878 57.1712Z" fill="white"/>
<path d="M64.2894 58.0159L62.1444 57.8128L62.0351 58.967L64.0102 59.1541C64.1555 59.1678 64.2608 59.2108 64.3263 59.2827C64.3917 59.3548 64.4194 59.4442 64.4092 59.551C64.3991 59.6579 64.3556 59.7416 64.2787 59.8023C64.2017 59.8629 64.0897 59.8862 63.9422 59.8723L61.967 59.6852L61.8403 61.0222L64.0591 61.2324C64.2087 61.2465 64.3183 61.292 64.3876 61.3686C64.4568 61.4453 64.4861 61.5414 64.4751 61.6568C64.4646 61.7679 64.4179 61.8546 64.3356 61.9169C64.2532 61.9792 64.137 62.0032 63.9874 61.9891L61.3999 61.744C61.1926 61.7243 61.0478 61.6642 60.9658 61.5638C60.8837 61.4633 60.8524 61.3104 60.8718 61.1052L61.2064 57.5719C61.2194 57.4351 61.2502 57.3254 61.299 57.2426C61.3477 57.1598 61.4174 57.1028 61.5077 57.0715C61.5981 57.0401 61.7105 57.0309 61.8452 57.0436L64.3589 57.2818C64.5106 57.2961 64.6202 57.3404 64.6877 57.4147C64.755 57.489 64.7835 57.5807 64.7732 57.6897C64.7627 57.8009 64.7174 57.8866 64.6373 57.947C64.557 58.0074 64.4409 58.0302 64.2894 58.0159Z" fill="white"/>
<path d="M66.5272 57.9886L66.2032 61.4097L68.1335 61.5926C68.2874 61.6071 68.4019 61.6557 68.4771 61.7384C68.5522 61.821 68.5845 61.9189 68.5738 62.0321C68.5629 62.1477 68.5134 62.2372 68.4254 62.3012C68.3373 62.3651 68.2154 62.3897 68.0593 62.3748L65.7604 62.1571C65.5529 62.1374 65.4083 62.0774 65.3262 61.9769C65.244 61.8764 65.2127 61.7235 65.2321 61.5183L65.575 57.8984C65.5933 57.706 65.6502 57.5659 65.7458 57.4779C65.8416 57.3899 65.96 57.3525 66.101 57.3659C66.2442 57.3795 66.3556 57.438 66.4354 57.5416C66.515 57.645 66.5456 57.794 66.5272 57.9886Z" fill="white"/>
<path d="M46.303 56.1243L45.2642 56.0259L44.9408 59.4406C44.9222 59.6372 44.8644 59.779 44.7679 59.8658C44.6711 59.9526 44.5533 59.9894 44.4144 59.9762C44.2733 59.9629 44.1629 59.9039 44.0836 59.7993C44.0037 59.6947 43.9732 59.5452 43.9917 59.3507L44.3151 55.936L43.2761 55.8376C43.1138 55.8222 42.9964 55.775 42.9242 55.6959C42.8519 55.6169 42.8212 55.5185 42.8323 55.4008C42.8438 55.279 42.8941 55.1868 42.9831 55.124C43.0721 55.0612 43.1946 55.0373 43.3505 55.0521L46.3774 55.3388C46.542 55.3543 46.6609 55.4023 46.7342 55.4825C46.8074 55.5628 46.8386 55.6618 46.8275 55.7793C46.8164 55.8969 46.7667 55.9876 46.6787 56.0514C46.5906 56.1154 46.4655 56.1397 46.303 56.1243Z" fill="#2D2E83"/>
<path d="M48.4526 58.2495L48.119 58.2178L47.9761 59.728C47.9573 59.9268 47.8995 60.0691 47.803 60.1548C47.7063 60.2405 47.5877 60.2768 47.4466 60.2633C47.2948 60.249 47.182 60.1887 47.1079 60.0825C47.0338 59.9763 47.0059 59.8281 47.0238 59.6378L47.3664 56.0211C47.3859 55.8159 47.4459 55.6718 47.5464 55.5885C47.647 55.5054 47.8 55.4734 48.0052 55.4928L49.5539 55.6395C49.7676 55.6598 49.9495 55.6863 50.0995 55.7188C50.2496 55.7513 50.3828 55.8011 50.4994 55.8682C50.6411 55.9443 50.763 56.0452 50.8654 56.1714C50.9678 56.2975 51.0411 56.4398 51.0855 56.5983C51.1297 56.7567 51.1438 56.9213 51.1275 57.0924C51.0944 57.4429 50.9689 57.7136 50.7515 57.9043C50.5339 58.0951 50.22 58.2153 49.8099 58.2648C49.9702 58.3706 50.119 58.5184 50.2563 58.7082C50.3936 58.8981 50.5133 59.0976 50.6154 59.3068C50.7173 59.5159 50.7946 59.7034 50.8468 59.8689C50.899 60.0345 50.9224 60.1473 50.9167 60.2072C50.9108 60.2692 50.8852 60.3287 50.8398 60.3859C50.7946 60.443 50.7359 60.4861 50.6643 60.5148C50.5925 60.5436 50.5118 60.5538 50.4221 60.5452C50.315 60.5352 50.2277 60.5014 50.1597 60.4444C50.0919 60.3874 50.0355 60.3177 49.9904 60.2358C49.9451 60.1539 49.8848 60.0339 49.8092 59.8758L49.4879 59.2049C49.3732 58.9589 49.2676 58.7699 49.1711 58.6378C49.0747 58.5057 48.9731 58.412 48.8662 58.3566C48.7592 58.3011 48.6214 58.2655 48.4526 58.2495ZM49.1848 56.326L48.3062 56.2428L48.1838 57.5349L49.0367 57.6157C49.2653 57.6374 49.4597 57.6359 49.6195 57.6111C49.7792 57.5863 49.9047 57.5303 49.9962 57.4429C50.0873 57.3557 50.141 57.2286 50.1569 57.0618C50.1692 56.9314 50.1468 56.8134 50.0901 56.7077C50.0331 56.602 49.9482 56.5192 49.8353 56.4589C49.7285 56.4013 49.5118 56.357 49.1848 56.326Z" fill="#2D2E83"/>
<path d="M54.7684 60.3382L54.5998 59.727L52.689 59.546L52.4074 60.1275C52.2976 60.3544 52.2078 60.506 52.1378 60.5824C52.0681 60.6588 51.9627 60.6903 51.8216 60.677C51.7019 60.6656 51.6003 60.6118 51.5167 60.5154C51.4331 60.4191 51.3965 60.3153 51.407 60.2042C51.4131 60.14 51.43 60.0749 51.458 60.0085C51.4857 59.9421 51.53 59.8503 51.5907 59.7331L53.0824 56.7947C53.1247 56.7103 53.1759 56.6089 53.2355 56.4905C53.2954 56.3722 53.3563 56.275 53.4186 56.1989C53.4806 56.1228 53.5584 56.064 53.652 56.022C53.7454 55.9802 53.8573 55.9656 53.9877 55.9778C54.1202 55.9905 54.2285 56.026 54.3125 56.0847C54.3964 56.1433 54.4618 56.2147 54.509 56.2989C54.5559 56.3832 54.5937 56.4726 54.6225 56.5669C54.6514 56.6613 54.6875 56.7871 54.7309 56.9444L55.6714 60.0938C55.7458 60.3337 55.778 60.5061 55.7681 60.6108C55.7579 60.7199 55.703 60.8154 55.6035 60.8977C55.504 60.9799 55.3901 61.0149 55.2619 61.0028C55.1871 60.9958 55.1242 60.9763 55.0734 60.9445C55.0224 60.9128 54.9809 60.8723 54.949 60.8228C54.917 60.7734 54.8847 60.6992 54.852 60.6C54.8193 60.501 54.7914 60.4138 54.7684 60.3382ZM53.0068 58.8548L54.4112 58.9877L53.8863 56.9808L53.0068 58.8548Z" fill="#2D2E83"/>
<path d="M57.1894 56.9124L57.9555 60.1651L59.3237 57.0919C59.395 56.9305 59.4478 56.8184 59.4818 56.7559C59.5157 56.6933 59.5672 56.6389 59.6362 56.5926C59.7054 56.5463 59.7954 56.5284 59.9065 56.5389C59.9879 56.5467 60.0613 56.5741 60.1269 56.6212C60.1925 56.6685 60.2419 56.7276 60.2751 56.7986C60.3084 56.8698 60.3217 56.9395 60.3152 57.0078C60.3107 57.0549 60.2994 57.105 60.2815 57.1584C60.2635 57.2116 60.2423 57.2636 60.2182 57.3141C60.194 57.3647 60.1696 57.4169 60.145 57.4706L58.7159 60.4344C58.6642 60.5481 58.613 60.656 58.5624 60.7579C58.5118 60.8598 58.456 60.9484 58.3948 61.0235C58.3337 61.0985 58.2563 61.1576 58.163 61.2006C58.0694 61.2434 57.9584 61.2588 57.8302 61.2466C57.7019 61.2344 57.5959 61.199 57.512 61.1404C57.428 61.0819 57.3626 61.0088 57.316 60.9214C57.2693 60.8339 57.2305 60.7358 57.1999 60.6272C57.1692 60.5187 57.1391 60.4037 57.1095 60.2823L56.2792 57.1303C56.2653 57.0729 56.2506 57.0165 56.2353 56.9611C56.22 56.9058 56.2084 56.8465 56.2004 56.7832C56.1923 56.7198 56.1904 56.6669 56.1944 56.6241C56.2048 56.515 56.2579 56.4197 56.3542 56.3384C56.4503 56.2568 56.5645 56.2224 56.697 56.2349C56.8595 56.2503 56.9699 56.311 57.0277 56.4167C57.0856 56.5225 57.1394 56.6877 57.1894 56.9124Z" fill="#2D2E83"/>
<path d="M64.0873 57.7561L61.9423 57.553L61.8329 58.7072L63.808 58.8943C63.9533 58.9081 64.0587 58.951 64.1242 59.0229C64.1897 59.095 64.2173 59.1844 64.2072 59.2913C64.1969 59.3981 64.1536 59.4819 64.0765 59.5425C63.9996 59.6031 63.8875 59.6266 63.74 59.6126L61.7648 59.4254L61.6382 60.7624L63.857 60.9726C64.0068 60.9868 64.1161 61.0323 64.1855 61.1089C64.2547 61.1856 64.2839 61.2816 64.273 61.397C64.2625 61.5082 64.216 61.5948 64.1335 61.6572C64.0511 61.7195 63.935 61.7435 63.7853 61.7293L61.1979 61.4842C60.9905 61.4647 60.8458 61.4046 60.7637 61.304C60.6816 61.2035 60.6503 61.0506 60.6696 60.8454L61.0042 57.3121C61.0173 57.1754 61.048 57.0656 61.0969 56.9828C61.1458 56.9002 61.2153 56.8432 61.3056 56.8117C61.3959 56.7804 61.5084 56.7711 61.6432 56.7839L64.1569 57.0219C64.3086 57.0363 64.4181 57.0807 64.4856 57.1551C64.5528 57.2293 64.5814 57.321 64.5711 57.4301C64.5606 57.5412 64.5153 57.6268 64.4352 57.6873C64.355 57.7476 64.2391 57.7706 64.0873 57.7561Z" fill="#2D2E83"/>
<path d="M66.3252 57.7298L66.0012 61.1509L67.9314 61.3337C68.0853 61.3483 68.1998 61.3969 68.2751 61.4796C68.3501 61.5621 68.3824 61.6602 68.3717 61.7734C68.3607 61.8888 68.3113 61.9784 68.2233 62.0424C68.1352 62.1063 68.0133 62.1308 67.8572 62.1161L65.5583 61.8983C65.3509 61.8787 65.2062 61.8186 65.1242 61.718C65.0419 61.6176 65.0107 61.4647 65.0299 61.2595L65.3729 57.6397C65.3911 57.4473 65.4481 57.3071 65.5437 57.219C65.6395 57.1311 65.7579 57.0938 65.8989 57.1071C66.0421 57.1207 66.1534 57.1792 66.2333 57.2828C66.313 57.3862 66.3436 57.5352 66.3252 57.7298Z" fill="#2D2E83"/>
<path d="M16.3166 66.354C16.2319 66.4619 16.207 66.5973 16.2368 66.721C16.2426 66.877 16.3257 67.0742 16.4681 67.2732C16.4604 67.2847 16.4526 67.2962 16.4452 67.308L15.0818 69.5017C14.988 69.6525 14.9564 69.8294 14.9784 70.0044L13.6403 70.2427C13.3993 70.2855 13.2561 70.5572 13.3318 70.8475C13.4074 71.1377 13.6677 71.3152 13.9021 71.2472L15.5145 70.7792L18.1448 72.9832C18.4939 73.2602 19.0421 73.2971 19.3905 73.0514L20.7775 72.0729C20.9203 72.0454 21.1867 72.0126 21.4797 72.0703L22.0209 72.4324L22.4491 72.8256C22.5674 73.0951 22.5894 73.369 22.5899 73.531L21.9767 75.0845C21.8202 75.4811 21.9856 76.0051 22.3371 76.2788L25.1637 78.3614L25.0894 80.0417C25.0786 80.2856 25.3126 80.4966 25.6126 80.5015C25.9123 80.5065 26.1426 80.3033 26.1273 80.0589L26.0391 78.6435C26.1917 78.615 26.3333 78.5454 26.4433 78.4332L28.253 76.5904C28.2576 76.5857 28.2619 76.5808 28.2664 76.5761C28.6515 76.7513 29.0062 76.7679 29.1304 76.5892C29.1651 76.5652 29.1968 76.5357 29.2242 76.5009C29.3713 76.3138 29.3389 76.0429 29.1518 75.8959L28.5203 75.3995C28.4584 75.251 28.3592 75.1157 28.2191 75.008L24.3113 72.1181C23.9799 71.863 23.5926 71.8918 23.2983 72.1288C23.1288 71.9448 22.9106 71.7274 22.6752 71.5424C22.4301 71.3496 22.1665 71.1889 21.9503 71.0697C22.1114 70.7277 22.048 70.3444 21.7218 70.0823L17.9909 66.9673C17.8531 66.8567 17.6982 66.7924 17.5393 66.7672L16.9217 66.2816C16.7346 66.1346 16.4638 66.1669 16.3166 66.354Z" fill="#141414"/>
<path d="M25.625 80.6111C25.6208 80.6111 25.6167 80.611 25.6125 80.611C25.4224 80.6078 25.2444 80.5329 25.1244 80.4053C25.0261 80.3009 24.9753 80.1699 24.9812 80.0363L25.0528 78.4146L22.2735 76.3667C21.878 76.0588 21.7044 75.4784 21.876 75.0435L22.4813 73.5099C22.4792 73.3726 22.4591 73.1294 22.3589 72.89L21.9543 72.5186L21.4387 72.1737C21.185 72.1276 20.9527 72.1532 20.8228 72.1762L19.4555 73.1408C19.0733 73.4104 18.4684 73.3786 18.078 73.0688L15.4904 70.9007L13.9344 71.3524C13.8059 71.3898 13.6666 71.3712 13.5419 71.3003C13.3897 71.2138 13.2748 71.0586 13.2269 70.8746C13.1787 70.6897 13.2044 70.5006 13.2975 70.3555C13.374 70.2361 13.4895 70.1573 13.6227 70.1338L14.8633 69.9129C14.8603 69.743 14.9034 69.5822 14.9899 69.443L16.3375 67.2746C16.2111 67.0825 16.1377 66.8935 16.1289 66.7355C16.0941 66.5768 16.1312 66.4134 16.2317 66.2855C16.416 66.0511 16.7567 66.0101 16.9912 66.1946L17.5871 66.663C17.762 66.6954 17.9215 66.7687 18.0614 66.881L21.794 69.9973C22.1173 70.2569 22.2268 70.6423 22.0909 71.0209C22.3363 71.1608 22.556 71.3067 22.7448 71.4553C22.9278 71.5992 23.1189 71.7761 23.3138 71.982C23.6497 71.7606 24.05 71.7763 24.38 72.0303L28.2861 74.9189C28.43 75.0295 28.5389 75.1672 28.6118 75.3296L29.2213 75.8089C29.3349 75.8981 29.4069 76.0263 29.4241 76.1697C29.4412 76.3132 29.4015 76.4548 29.3121 76.5685C29.2823 76.6062 29.2481 76.6395 29.21 76.668C29.0571 76.8618 28.7055 76.8758 28.2939 76.7068L26.5233 78.5099C26.4234 78.6118 26.2978 78.6863 26.1562 78.7283L26.2386 80.0516C26.2471 80.1866 26.1978 80.3176 26.0998 80.42C25.9839 80.5417 25.8112 80.6111 25.625 80.6111ZM21.1449 71.9279C21.2547 71.9279 21.3766 71.9368 21.5029 71.9617L21.5245 71.966L22.0973 72.3507L22.5426 72.7596L22.5519 72.7807C22.6749 73.0609 22.7015 73.3429 22.702 73.5301V73.5512L22.081 75.1243C21.9456 75.4674 22.0917 75.946 22.4066 76.1912L25.2781 78.3069L25.2013 80.046C25.198 80.1197 25.2277 80.1938 25.2848 80.2545C25.3644 80.339 25.4851 80.3888 25.6163 80.3909C25.7447 80.3928 25.8643 80.3482 25.941 80.2679C25.98 80.2271 26.0252 80.1589 26.0193 80.0652L25.925 78.5527L26.0207 78.5348C26.1569 78.5094 26.2765 78.4475 26.3666 78.3556L28.2427 76.443L28.3139 76.4754C28.6945 76.6485 28.9683 76.6317 29.042 76.5258L29.0533 76.5095L29.0696 76.4982C29.096 76.48 29.1195 76.4577 29.1397 76.4322C29.1925 76.365 29.2162 76.2809 29.2059 76.1958C29.1958 76.1108 29.153 76.0347 29.0856 75.9818L28.4316 75.4676L28.4206 75.4412C28.3629 75.303 28.2731 75.1863 28.1538 75.0945L24.2477 72.2059C23.9689 71.9912 23.6411 71.9946 23.3693 72.2138L23.289 72.2784L23.2193 72.2027C23.0091 71.9746 22.8038 71.7813 22.609 71.6282C22.4076 71.4698 22.1688 71.3141 21.899 71.1654L21.8085 71.1155L21.8525 71.0221C22.0014 70.706 21.9275 70.3866 21.6547 70.1674L17.9221 67.0511C17.8064 66.9584 17.6719 66.8987 17.5238 66.8752L17.4955 66.8706L16.8553 66.3674C16.7165 66.2581 16.5143 66.2823 16.4048 66.4213C16.3439 66.4988 16.3222 66.5984 16.3454 66.6946L16.3483 66.7161C16.3532 66.8486 16.4301 67.028 16.5591 67.2083L16.6032 67.2699L16.5401 67.3653L15.1767 69.559C15.0996 69.6831 15.0692 69.8321 15.0891 69.9898L15.1022 70.0936L13.6611 70.3501C13.5688 70.3665 13.5131 70.4265 13.4826 70.4739C13.4226 70.5675 13.4071 70.6932 13.4398 70.8188C13.4728 70.9456 13.5496 71.0513 13.6505 71.1086C13.7231 71.1499 13.802 71.1612 13.8728 71.1406L15.5417 70.6563L18.217 72.8979C18.5273 73.1441 19.0271 73.1732 19.3286 72.9605L20.735 71.9684L20.7582 71.964C20.844 71.9477 20.9811 71.9279 21.1449 71.9279Z" fill="#F4F4F4"/>
<path d="M79.7913 103.83C80.3832 102.665 83.3289 105.246 84.557 104.799C85.785 104.352 85.8666 99.6907 87.1536 99.7466C88.4407 99.8024 88.2026 104.594 89.128 105.517C90.053 106.44 94.1938 105.224 94.4158 106.483C94.6378 107.742 90.4492 108.921 89.8574 110.086C89.2655 111.251 91.4045 114.108 90.2249 114.734C89.0453 115.36 87.0283 112.394 85.7374 112.191C84.4463 111.989 81.1149 114.545 80.3541 113.482C79.5932 112.42 82.825 110.179 82.4615 108.924C82.0981 107.669 79.1995 104.995 79.7913 103.83Z" fill="#FFCE00"/>
<path d="M89.8684 114.986C89.1713 114.986 88.3529 114.279 87.5567 113.592C86.8973 113.023 86.2153 112.434 85.711 112.355C85.208 112.276 84.2827 112.693 83.3884 113.097C82.0231 113.714 80.7332 114.296 80.2192 113.578C79.7507 112.924 80.4605 112.022 81.212 111.067C81.8219 110.292 82.4526 109.49 82.3021 108.97C82.1706 108.516 81.6634 107.833 81.1264 107.111C80.1955 105.859 79.2328 104.563 79.6433 103.755C80.0368 102.98 81.1649 103.505 82.256 104.012C83.0748 104.393 84.0029 104.824 84.4996 104.644C85.0083 104.458 85.3396 103.253 85.6319 102.19C86.0006 100.849 86.3492 99.5811 87.1283 99.5811C87.1388 99.5811 87.1492 99.5813 87.16 99.5817C88.0174 99.6189 88.2603 101.15 88.5173 102.771C88.6937 103.883 88.876 105.033 89.2437 105.4C89.6228 105.778 90.7665 105.745 91.7755 105.716C93.1428 105.676 94.4337 105.639 94.5775 106.455C94.7227 107.278 93.4574 107.96 92.1179 108.683C91.1947 109.18 90.2402 109.695 90.0036 110.161C89.7645 110.631 90.0546 111.488 90.3352 112.316C90.6944 113.377 91.0658 114.474 90.3014 114.88C90.1638 114.953 90.0189 114.986 89.8684 114.986ZM85.5796 112.015C85.6434 112.015 85.7043 112.019 85.7622 112.028C86.3598 112.122 87.046 112.715 87.7725 113.342C88.6563 114.105 89.57 114.893 90.1468 114.588C90.6631 114.314 90.352 113.395 90.0226 112.422C89.7202 111.529 89.4074 110.606 89.7094 110.011C89.9927 109.453 90.9489 108.938 91.9613 108.392C93.0838 107.787 94.3562 107.101 94.2523 106.512C94.1583 105.978 92.8974 106.014 91.7851 106.046C90.6045 106.08 89.4902 106.112 89.0105 105.634C88.5668 105.191 88.3844 104.041 88.1914 102.823C87.9769 101.47 87.7337 99.9371 87.1457 99.9117C86.6108 99.8869 86.2583 101.158 85.9504 102.278C85.6065 103.529 85.2816 104.71 84.6126 104.954C83.9876 105.181 83.0367 104.739 82.117 104.311C81.1683 103.87 80.1874 103.414 79.9376 103.905C79.6198 104.531 80.6021 105.852 81.3915 106.914C81.9467 107.661 82.4712 108.367 82.6192 108.878C82.8169 109.561 82.1633 110.391 81.4714 111.271C80.8283 112.088 80.1632 112.933 80.4876 113.386C80.844 113.884 82.1236 113.306 83.2524 112.796C84.1394 112.396 84.9819 112.015 85.5796 112.015Z" fill="#F9F9F9"/>
<path d="M42.9677 117.58C42.7391 117.563 42.5103 117.568 42.2815 117.582C40.1177 117.711 28.6865 118.514 27.7005 121.073C26.611 123.901 40.7069 139.451 43.4645 138.064C46.1934 136.692 53.355 118.346 42.9677 117.58Z" fill="#03648E"/>
<path d="M43.0609 138.259C41.6707 138.259 39.1519 136.179 37.6718 134.838C33.0773 130.674 26.8225 123.042 27.5967 121.033C28.604 118.418 39.9997 117.607 42.2738 117.471C42.545 117.455 42.7676 117.455 42.9747 117.47C45.9337 117.688 47.7329 119.303 48.3223 122.27C48.8248 124.798 48.3717 128.351 47.0793 132.017C45.9985 135.082 44.4986 137.667 43.5128 138.162C43.3814 138.228 43.2294 138.259 43.0609 138.259ZM42.6576 117.679C42.5439 117.679 42.4217 117.683 42.2869 117.691C36.0697 118.063 28.5457 119.182 27.8021 121.112C27.1246 122.87 32.8396 130.161 37.8196 134.675C40.5723 137.17 42.6114 138.369 43.4138 137.966C45.1896 137.073 49.2595 128.115 48.1064 122.312C47.5385 119.455 45.8066 117.899 42.9584 117.689C42.8631 117.682 42.7641 117.679 42.6576 117.679Z" fill="#F4F4F4"/>
<path d="M31.9828 123.007L31.4074 122.462L31.0584 122.831L31.5394 123.286C31.584 123.329 31.6079 123.37 31.6108 123.411C31.6139 123.451 31.5995 123.489 31.5679 123.522C31.5362 123.556 31.4999 123.572 31.4591 123.57C31.4182 123.569 31.3758 123.547 31.3319 123.506L30.8508 123.051L30.4014 123.526C30.3442 123.586 30.2882 123.618 30.2335 123.621C30.1787 123.625 30.13 123.606 30.0874 123.566C30.044 123.525 30.0228 123.477 30.0235 123.422C30.0241 123.366 30.0527 123.309 30.1092 123.249L31.1589 122.14C31.1986 122.098 31.2372 122.069 31.2748 122.055C31.3125 122.04 31.3502 122.039 31.3883 122.052C31.4263 122.065 31.466 122.091 31.5074 122.13L32.196 122.782C32.2425 122.826 32.2673 122.869 32.2705 122.911C32.2736 122.953 32.2593 122.99 32.2276 123.024C32.1953 123.058 32.1581 123.075 32.116 123.074C32.0737 123.073 32.0293 123.051 31.9828 123.007Z" fill="#F4F4F4"/>
<path d="M32.6949 123.54L31.7019 124.59L32.2941 125.15C32.3413 125.195 32.3667 125.241 32.3703 125.287C32.3738 125.334 32.3592 125.375 32.3264 125.41C32.2928 125.445 32.2532 125.462 32.2075 125.46C32.1618 125.459 32.115 125.435 32.0672 125.39L31.3619 124.723C31.2983 124.663 31.2659 124.605 31.2647 124.551C31.2635 124.496 31.2926 124.437 31.3522 124.374L32.4028 123.264C32.4587 123.205 32.5139 123.173 32.5682 123.169C32.6227 123.164 32.6716 123.182 32.7149 123.223C32.7589 123.265 32.7806 123.313 32.7803 123.368C32.7798 123.423 32.7514 123.481 32.6949 123.54Z" fill="#F4F4F4"/>
<path d="M32.6178 125.623L33.0505 125.165L33.2149 124.286C33.2305 124.208 33.2449 124.149 33.2583 124.109C33.2716 124.07 33.2878 124.04 33.307 124.019C33.3386 123.986 33.3789 123.969 33.4277 123.97C33.4766 123.97 33.5201 123.988 33.5582 124.024C33.5982 124.062 33.6178 124.102 33.617 124.144C33.6163 124.186 33.6046 124.261 33.582 124.367L33.4374 125.06L34.1241 124.88C34.166 124.869 34.2012 124.859 34.2297 124.851C34.2582 124.843 34.2868 124.838 34.3154 124.834C34.344 124.831 34.3707 124.833 34.3951 124.84C34.4195 124.847 34.4436 124.861 34.4672 124.884C34.5039 124.918 34.5232 124.96 34.5252 125.007C34.5272 125.054 34.5132 125.093 34.4835 125.125C34.4593 125.15 34.4288 125.17 34.3921 125.184C34.3555 125.197 34.3007 125.213 34.2277 125.229L33.3428 125.442L32.9101 125.899C32.8536 125.959 32.7977 125.99 32.7421 125.994C32.6868 125.997 32.6377 125.979 32.5951 125.939C32.5517 125.898 32.5305 125.85 32.5313 125.795C32.5317 125.741 32.5607 125.683 32.6178 125.623Z" fill="#F4F4F4"/>
<path d="M35.1529 127.878L35.7377 126.793L34.6836 127.434C34.6033 127.482 34.5441 127.516 34.5063 127.534C34.4685 127.552 34.4255 127.56 34.3772 127.557C34.3289 127.554 34.2825 127.532 34.2378 127.49C34.2017 127.455 34.1784 127.421 34.1678 127.385C34.1572 127.35 34.1564 127.313 34.1653 127.275C34.1741 127.236 34.1898 127.196 34.2127 127.153C34.2354 127.111 34.2568 127.072 34.2769 127.036L34.9553 125.838C34.9943 125.768 35.0277 125.718 35.0557 125.689C35.091 125.652 35.1339 125.633 35.1842 125.632C35.2346 125.631 35.2793 125.649 35.3179 125.686C35.3711 125.736 35.3907 125.787 35.3767 125.838C35.3629 125.89 35.332 125.954 35.2844 126.032L34.6767 127.053L35.6336 126.465C35.7064 126.42 35.764 126.387 35.8061 126.367C35.8484 126.348 35.8945 126.34 35.9445 126.343C35.9943 126.347 36.0435 126.372 36.0921 126.418C36.1412 126.464 36.1681 126.513 36.1726 126.562C36.1772 126.612 36.1713 126.656 36.1552 126.694C36.139 126.732 36.1091 126.792 36.0654 126.874L35.5334 127.864L36.5191 127.2C36.5698 127.165 36.6111 127.139 36.6428 127.122C36.6746 127.104 36.7098 127.095 36.7484 127.095C36.787 127.094 36.8253 127.112 36.8634 127.147C36.9014 127.183 36.9217 127.227 36.9245 127.277C36.9271 127.327 36.9105 127.372 36.8745 127.41C36.8491 127.436 36.8011 127.473 36.7309 127.518L35.5724 128.262C35.494 128.312 35.4348 128.347 35.3952 128.367C35.3555 128.388 35.3119 128.397 35.2643 128.395C35.2166 128.394 35.1693 128.371 35.1221 128.326C35.0775 128.284 35.0523 128.239 35.0464 128.191C35.0406 128.143 35.0457 128.101 35.0615 128.063C35.0776 128.025 35.108 127.964 35.1529 127.878Z" fill="#F4F4F4"/>
<path d="M35.9603 128.785L37.0352 127.649C37.0911 127.59 37.1463 127.558 37.2011 127.554C37.2559 127.55 37.3047 127.568 37.3473 127.609C37.3912 127.65 37.413 127.698 37.4126 127.753C37.4122 127.808 37.3837 127.866 37.3273 127.925L36.2524 129.061C36.1959 129.121 36.1401 129.153 36.085 129.157C36.03 129.16 35.9804 129.141 35.9364 129.1C35.8945 129.06 35.874 129.012 35.875 128.957C35.876 128.901 35.9045 128.844 35.9603 128.785Z" fill="#F4F4F4"/>
<path d="M38.5052 129.209L38.1865 128.907L37.1954 129.955C37.1383 130.015 37.0825 130.047 37.028 130.051C36.9735 130.055 36.9249 130.036 36.8823 129.996C36.839 129.955 36.8177 129.907 36.8184 129.852C36.8191 129.797 36.8477 129.739 36.9041 129.679L37.8952 128.632L37.5765 128.33C37.5267 128.283 37.4999 128.237 37.4965 128.192C37.493 128.147 37.5083 128.107 37.5424 128.07C37.5778 128.033 37.6183 128.015 37.664 128.018C37.7097 128.02 37.7566 128.044 37.8044 128.089L38.7331 128.968C38.7835 129.015 38.8105 129.062 38.8139 129.107C38.8173 129.153 38.8022 129.194 38.768 129.23C38.7339 129.266 38.6941 129.283 38.6483 129.281C38.6027 129.28 38.5551 129.256 38.5052 129.209Z" fill="#F4F4F4"/>
<path d="M39.2088 129.704L38.818 130.117L39.4485 130.713L39.8393 130.3C39.8952 130.241 39.9503 130.209 40.0048 130.205C40.0593 130.201 40.1081 130.219 40.1515 130.26C40.1954 130.301 40.2172 130.35 40.2167 130.405C40.2163 130.459 40.1879 130.517 40.1315 130.576L39.0566 131.713C39.0001 131.772 38.9441 131.804 38.8886 131.807C38.8333 131.811 38.7839 131.792 38.7406 131.751C38.6967 131.709 38.6757 131.661 38.6777 131.607C38.6797 131.552 38.7086 131.495 38.7645 131.436L39.2232 130.951L38.5927 130.355L38.134 130.84C38.0776 130.899 38.0216 130.931 37.9661 130.934C37.9106 130.938 37.8613 130.919 37.818 130.878C37.7741 130.836 37.753 130.788 37.755 130.734C37.757 130.679 37.7859 130.622 37.8417 130.563L38.9166 129.427C38.9725 129.368 39.0273 129.336 39.0811 129.331C39.1349 129.326 39.1842 129.344 39.2288 129.387C39.2727 129.428 39.2945 129.476 39.2941 129.531C39.2936 129.586 39.2653 129.644 39.2088 129.704Z" fill="#F4F4F4"/>
<path d="M40.2959 132.045L40.952 131.352C41.0079 131.293 41.063 131.261 41.1174 131.257C41.1718 131.252 41.2207 131.27 41.2641 131.311C41.3093 131.354 41.3312 131.403 41.3299 131.458C41.3286 131.512 41.3001 131.569 41.2442 131.628L40.5732 132.337C40.4969 132.418 40.4422 132.494 40.409 132.565C40.3758 132.636 40.368 132.708 40.3858 132.782C40.4035 132.855 40.4537 132.931 40.5363 133.009C40.6504 133.117 40.7597 133.163 40.8644 133.147C40.969 133.131 41.0796 133.061 41.1962 132.938L41.8728 132.223C41.9292 132.163 41.9844 132.131 42.0382 132.127C42.092 132.122 42.141 132.141 42.1849 132.182C42.2288 132.224 42.2506 132.272 42.2501 132.327C42.2497 132.382 42.2213 132.439 42.1648 132.499L41.5088 133.193C41.4021 133.305 41.3021 133.389 41.2087 133.444C41.1154 133.498 41.0113 133.525 40.8963 133.525C40.7978 133.524 40.7035 133.501 40.6128 133.458C40.5222 133.414 40.4303 133.349 40.3372 133.261C40.2264 133.156 40.1423 133.054 40.085 132.954C40.0275 132.854 39.9974 132.755 39.9944 132.657C39.9913 132.56 40.0151 132.46 40.0656 132.36C40.1161 132.259 40.1929 132.154 40.2959 132.045Z" fill="#F4F4F4"/>
<path d="M42.7667 134.691C42.6842 134.779 42.5876 134.836 42.477 134.863C42.3663 134.89 42.2489 134.882 42.1251 134.839C42.0013 134.797 41.8801 134.719 41.7614 134.607C41.6191 134.473 41.5272 134.335 41.4856 134.193C41.4567 134.093 41.4522 133.991 41.4723 133.887C41.4925 133.784 41.5313 133.702 41.5891 133.641C41.6225 133.605 41.6635 133.587 41.712 133.585C41.7605 133.583 41.8037 133.6 41.8418 133.636C41.8726 133.665 41.8893 133.699 41.8921 133.739C41.8947 133.779 41.8853 133.825 41.8638 133.878C41.8387 133.942 41.8223 133.999 41.8145 134.05C41.8067 134.101 41.8125 134.155 41.8324 134.211C41.8522 134.268 41.8936 134.326 41.9565 134.385C42.043 134.467 42.1324 134.514 42.2247 134.525C42.317 134.535 42.3917 134.511 42.4488 134.45C42.4941 134.402 42.5163 134.35 42.5153 134.292C42.5143 134.235 42.4982 134.176 42.4668 134.117C42.4354 134.057 42.3895 133.982 42.3289 133.891C42.2482 133.769 42.1882 133.659 42.1491 133.56C42.11 133.461 42.0964 133.365 42.1085 133.27C42.1205 133.175 42.166 133.086 42.2448 133.003C42.3198 132.923 42.4082 132.873 42.5099 132.853C42.6113 132.832 42.7188 132.844 42.8321 132.888C42.9454 132.933 43.0575 133.007 43.1684 133.112C43.257 133.196 43.3231 133.279 43.367 133.362C43.4107 133.445 43.4366 133.525 43.4449 133.602C43.453 133.679 43.4481 133.746 43.4299 133.805C43.4118 133.864 43.3847 133.912 43.3487 133.95C43.3158 133.985 43.2737 134.004 43.2229 134.009C43.1719 134.014 43.1281 133.999 43.0914 133.964C43.0579 133.932 43.0404 133.9 43.0389 133.867C43.0374 133.833 43.0443 133.788 43.06 133.731C43.0852 133.652 43.094 133.58 43.0861 133.514C43.0783 133.449 43.0336 133.378 42.9523 133.301C42.8769 133.23 42.8004 133.189 42.7228 133.178C42.6452 133.167 42.5844 133.186 42.5404 133.232C42.513 133.261 42.4973 133.293 42.4933 133.329C42.4891 133.365 42.4937 133.404 42.507 133.445C42.5203 133.486 42.5371 133.524 42.5572 133.559C42.5773 133.594 42.6121 133.651 42.6615 133.729C42.7248 133.825 42.7785 133.915 42.8226 134.001C42.8669 134.086 42.8966 134.167 42.9118 134.243C42.927 134.32 42.9239 134.396 42.9024 134.47C42.8809 134.545 42.8356 134.619 42.7667 134.691Z" fill="#F4F4F4"/>
<path d="M44.9239 121.445C44.9363 121.429 44.9491 121.412 44.9621 121.394C44.9657 121.389 44.9693 121.384 44.973 121.379C44.9894 121.356 45.0062 121.331 45.0233 121.305C45.0271 121.3 45.031 121.293 45.0348 121.287C45.0486 121.266 45.0625 121.244 45.0763 121.221C45.0813 121.213 45.0862 121.205 45.0912 121.196C45.108 121.168 45.1248 121.139 45.1416 121.109C45.1422 121.108 45.143 121.107 45.1438 121.105C45.1608 121.075 45.1776 121.043 45.1941 121.011C45.1991 121.001 45.204 120.991 45.2089 120.981C45.2215 120.956 45.2336 120.931 45.2456 120.906C45.2499 120.897 45.2543 120.888 45.2585 120.879C45.2735 120.846 45.288 120.814 45.3017 120.781C45.3055 120.772 45.3089 120.763 45.3124 120.754C45.3227 120.729 45.3325 120.704 45.3419 120.679C45.3459 120.668 45.35 120.657 45.3539 120.646C45.3641 120.617 45.3737 120.588 45.3824 120.56C45.384 120.554 45.3858 120.549 45.3873 120.544C45.3963 120.513 45.404 120.483 45.4109 120.454C45.4132 120.444 45.4153 120.434 45.4174 120.424C45.4194 120.414 45.4219 120.404 45.4236 120.395C45.4233 120.395 45.4229 120.395 45.4225 120.395C45.4506 120.24 45.4423 120.11 45.3719 120.037L45.3721 120.036C45.371 120.035 45.3698 120.034 45.3687 120.033C45.3677 120.032 45.3667 120.031 45.3656 120.03L45.3653 120.03C45.0934 119.797 44.1672 120.356 43.9203 120.617L41.7495 122.911H41.4922L40.5578 122.746L41.1799 122.088H41.2166V122.05L41.2233 122.043C41.2766 121.986 41.2742 121.897 41.2178 121.844L41.2166 121.843V121.451H40.8022L40.7954 121.444C40.7391 121.391 40.6502 121.394 40.5968 121.45L40.5959 121.451H40.5563V121.493L39.541 122.566L34.297 121.638C34.2628 121.632 34.2276 121.634 34.1941 121.643L33.7499 121.77C33.7072 121.782 33.7071 121.842 33.7496 121.854L34.2275 121.993C34.2375 121.996 34.2473 121.999 34.2569 122.004L36.3619 122.939L36.3255 123.016L36.2182 123.243C36.2099 123.261 36.2174 123.282 36.235 123.29L36.3664 123.352C36.384 123.36 36.405 123.353 36.4132 123.335L36.559 123.026L37.3983 123.399L37.3426 123.492L37.2416 123.662C37.2317 123.679 37.2372 123.7 37.2538 123.71L37.3788 123.785C37.3954 123.794 37.417 123.789 37.4269 123.772L37.5279 123.603L37.5841 123.508L37.5967 123.487L38.2655 123.784C38.3102 123.804 38.3514 123.831 38.3875 123.864L38.6732 124.124L38.6498 124.148L38.5123 124.294C38.499 124.308 38.4996 124.33 38.5136 124.344L38.6193 124.443C38.6334 124.457 38.6556 124.456 38.6689 124.442L38.8047 124.298L38.8326 124.269L39.6285 124.994V125.153L37.9321 126.947C37.8215 127.064 37.3379 127.659 36.8578 128.307H36.4769L34.4502 128.259C34.4028 128.257 34.3569 128.275 34.3226 128.308L34.1737 128.45C34.0928 128.527 34.1151 128.661 34.2166 128.708L35.8692 129.416V129.506H36.0372C35.8491 129.822 35.7451 130.062 35.8035 130.138L35.8031 130.138C35.8042 130.139 35.8054 130.14 35.8065 130.141C35.8076 130.142 35.8085 130.144 35.8096 130.145L35.8101 130.144C35.8884 130.198 36.1206 130.082 36.4238 129.879V130.036H36.524L37.3239 131.647C37.376 131.746 37.5115 131.761 37.5839 131.676L37.7172 131.519C37.7479 131.483 37.763 131.436 37.7592 131.389L37.587 129.222V128.984C37.593 128.979 37.5989 128.974 37.605 128.969C37.6197 128.957 37.6342 128.945 37.6489 128.932C37.6743 128.911 37.6997 128.89 37.7249 128.868C37.7376 128.858 37.7503 128.847 37.763 128.836C37.7971 128.808 37.8309 128.779 37.8643 128.751C37.8793 128.738 37.8941 128.725 37.9089 128.712C37.9309 128.694 37.9528 128.675 37.9745 128.656C37.9891 128.644 38.0037 128.631 38.0181 128.619C38.0439 128.596 38.0695 128.574 38.0947 128.553C38.1111 128.538 38.1273 128.524 38.1433 128.51C38.167 128.49 38.1904 128.469 38.2134 128.449C38.2263 128.438 38.2389 128.427 38.2515 128.416C38.2721 128.398 38.2923 128.38 38.3123 128.362C38.3237 128.352 38.3354 128.342 38.3467 128.332C38.3742 128.308 38.401 128.284 38.4269 128.261C38.4385 128.25 38.4495 128.241 38.4607 128.23C38.4776 128.215 38.4941 128.2 38.5101 128.186C38.5209 128.176 38.5317 128.167 38.5422 128.157C38.5628 128.139 38.5829 128.12 38.6021 128.103C38.6096 128.096 38.6169 128.089 38.624 128.083C38.6431 128.065 38.6612 128.049 38.6785 128.033C38.6855 128.026 38.6923 128.02 38.699 128.014C38.7143 128 38.7287 127.986 38.7423 127.974C38.7468 127.969 38.7517 127.965 38.7561 127.961C38.7733 127.945 38.789 127.93 38.8033 127.916C38.8067 127.913 38.8096 127.91 38.8129 127.907C38.824 127.896 38.8341 127.886 38.8431 127.877C38.8461 127.874 38.8491 127.872 38.8518 127.869C38.8623 127.858 38.8715 127.849 38.8785 127.842L40.4606 126.169V126.197H40.6566H40.6649L41.4169 126.936L41.2533 127.109C41.2399 127.123 41.2405 127.145 41.2546 127.159L41.3602 127.259C41.3743 127.272 41.3965 127.271 41.4099 127.257L41.5708 127.087L41.8464 127.358C41.8813 127.392 41.9105 127.432 41.9327 127.475L42.2664 128.127L41.9908 128.312C41.9747 128.323 41.9705 128.345 41.9812 128.361L42.0623 128.481C42.0732 128.497 42.095 128.502 42.1111 128.491L42.275 128.381L42.3653 128.32L42.7841 129.137L42.4834 129.3C42.4664 129.309 42.46 129.331 42.4692 129.348L42.5384 129.475C42.5477 129.492 42.5689 129.499 42.586 129.49L42.8072 129.37L42.8823 129.329L43.9327 131.379C43.9374 131.388 43.9416 131.398 43.945 131.408L44.1097 131.877C44.1244 131.919 44.1847 131.916 44.1945 131.872L44.2962 131.422C44.3038 131.388 44.3037 131.353 44.2956 131.319L43.078 126.134L44.0594 125.097C44.0596 125.097 44.0597 125.097 44.0598 125.096L44.093 125.061H44.1275V125.025L44.1337 125.018C44.1871 124.962 44.1846 124.873 44.1282 124.82L44.1275 124.819V124.426H43.7127L43.7059 124.42C43.6495 124.367 43.5606 124.369 43.5073 124.426L43.5064 124.426H43.4638V124.471L42.8418 125.129L42.633 124.239V124.16L42.6334 124.16L42.633 124.158V123.873L44.8667 121.511C44.8668 121.511 44.8669 121.511 44.867 121.511C44.8806 121.497 44.8954 121.479 44.9105 121.461C44.9152 121.456 44.9195 121.45 44.9239 121.445Z" fill="white"/>
<path d="M84.5289 86.0509C85.8869 96.5881 73.6407 106.85 57.1764 108.972C40.7122 111.094 26.2644 104.272 24.9066 93.7345C23.5486 83.1973 35.7947 72.9353 52.259 70.8135C68.7233 68.6917 83.171 75.5137 84.5289 86.0509Z" fill="#FCFCFC"/>
<mask id="mask2_27_20748" style="mask-type:luminance" maskUnits="userSpaceOnUse" x="26" y="71" width="58" height="38">
<path d="M58.1037 71.4043C56.2581 71.4044 54.3616 71.5237 52.4384 71.7715C36.8013 73.7868 25.1704 83.5333 26.46 93.541C27.7497 103.549 41.4716 110.028 57.1088 108.013C72.7459 105.998 84.3769 96.2513 83.0872 86.2435C81.9561 77.4671 71.2662 71.4043 58.1059 71.4043C58.1052 71.4043 58.1045 71.4043 58.1037 71.4043Z" fill="white"/>
</mask>
<g mask="url(#mask2_27_20748)">
<mask id="mask3_27_20748" style="mask-type:luminance" maskUnits="userSpaceOnUse" x="15" y="62" width="76" height="57">
<path d="M78.6629 62.2233L15.4932 81.9541L27.0032 118.804L90.173 99.0736L78.6629 62.2233Z" fill="white"/>
</mask>
<g mask="url(#mask3_27_20748)">
<path d="M90.3306 99.7708L24.9102 109.75L25.5577 113.995L90.9781 104.016L90.3306 99.7708Z" fill="#16007E"/>
</g>
<mask id="mask4_27_20748" style="mask-type:luminance" maskUnits="userSpaceOnUse" x="16" y="62" width="75" height="57">
<path d="M79.2889 62.0768L16.1191 81.8076L27.6292 118.658L90.7989 98.9271L79.2889 62.0768Z" fill="white"/>
</mask>
<g mask="url(#mask4_27_20748)">
<path d="M89.6802 95.5335L24.2598 105.513L24.9061 109.75L90.3265 99.7708L89.6802 95.5335Z" fill="white"/>
</g>
<mask id="mask5_27_20748" style="mask-type:luminance" maskUnits="userSpaceOnUse" x="16" y="61" width="76" height="58">
<path d="M79.9256 61.9313L16.7559 81.6621L28.2659 118.512L91.4357 98.7816L79.9256 61.9313Z" fill="white"/>
</mask>
<g mask="url(#mask5_27_20748)">
<path d="M89.0366 91.2923L23.6162 101.271L24.2632 105.513L89.6836 95.5335L89.0366 91.2923Z" fill="#16007E"/>
</g>
<mask id="mask6_27_20748" style="mask-type:luminance" maskUnits="userSpaceOnUse" x="17" y="61" width="76" height="58">
<path d="M80.5585 61.7858L17.3887 81.5166L28.8987 118.367L92.0685 98.6361L80.5585 61.7858Z" fill="white"/>
</mask>
<g mask="url(#mask6_27_20748)">
<path d="M88.3892 87.0521L22.9688 97.0312L23.6157 101.272L89.0361 91.2933L88.3892 87.0521Z" fill="white"/>
</g>
<mask id="mask7_27_20748" style="mask-type:luminance" maskUnits="userSpaceOnUse" x="18" y="61" width="75" height="58">
<path d="M81.1883 61.6393L18.0186 81.3701L29.5286 118.22L92.6984 98.4896L81.1883 61.6393Z" fill="white"/>
</mask>
<g mask="url(#mask7_27_20748)">
<path d="M87.7427 82.8099L22.3223 92.7891L22.9692 97.0301L88.3896 87.0509L87.7427 82.8099Z" fill="#16007E"/>
</g>
<mask id="mask8_27_20748" style="mask-type:luminance" maskUnits="userSpaceOnUse" x="18" y="61" width="76" height="58">
<path d="M81.8221 61.4928L18.6523 81.2236L30.1624 118.074L93.3321 98.3431L81.8221 61.4928Z" fill="white"/>
</mask>
<g mask="url(#mask8_27_20748)">
<path d="M87.0923 78.5687L21.6719 88.5479L22.3188 92.7891L87.7392 82.8099L87.0923 78.5687Z" fill="white"/>
</g>
<mask id="mask9_27_20748" style="mask-type:luminance" maskUnits="userSpaceOnUse" x="19" y="61" width="75" height="57">
<path d="M82.4501 61.3473L19.2803 81.0781L30.7903 117.928L93.9601 98.1976L82.4501 61.3473Z" fill="white"/>
</mask>
<g mask="url(#mask9_27_20748)">
<path d="M86.4468 74.3324L21.0264 84.3115L21.6727 88.5488L87.0931 78.5697L86.4468 74.3324Z" fill="#16007E"/>
</g>
<mask id="mask10_27_20748" style="mask-type:luminance" maskUnits="userSpaceOnUse" x="19" y="61" width="76" height="57">
<path d="M83.0838 61.2008L19.9141 80.9316L31.4241 117.782L94.5939 98.0511L83.0838 61.2008Z" fill="white"/>
</mask>
<g mask="url(#mask10_27_20748)">
<path d="M85.7974 70.0863L20.377 80.0654L21.0245 84.3106L86.4449 74.3314L85.7974 70.0863Z" fill="white"/>
</g>
<mask id="mask11_27_20748" style="mask-type:luminance" maskUnits="userSpaceOnUse" x="20" y="61" width="76" height="57">
<path d="M83.7206 61.0553L20.5508 80.7861L32.0608 117.636L95.2306 97.9056L83.7206 61.0553Z" fill="white"/>
</mask>
<g mask="url(#mask11_27_20748)">
<path d="M85.1567 65.8538L19.7363 75.833L20.3821 80.0666L85.8025 70.0874L85.1567 65.8538Z" fill="#16007E"/>
</g>
<mask id="mask12_27_20748" style="mask-type:luminance" maskUnits="userSpaceOnUse" x="18" y="58" width="76" height="57">
<path d="M81.6922 58.0514L18.5225 77.7822L30.0325 114.633L93.2023 94.9017L81.6922 58.0514Z" fill="white"/>
</mask>
<g mask="url(#mask12_27_20748)">
<path d="M40.9325 72.5982L19.7324 75.832L22.966 97.0304L44.1661 93.7965L40.9325 72.5982Z" fill="#16007E"/>
</g>
<mask id="mask13_27_20748" style="mask-type:luminance" maskUnits="userSpaceOnUse" x="18" y="58" width="76" height="57">
<path d="M81.6922 58.0514L18.5225 77.7822L30.0325 114.633L93.2023 94.9017L81.6922 58.0514Z" fill="white"/>
</mask>
<g mask="url(#mask13_27_20748)">
<path d="M42.2265 81.0777L21.0264 84.3115L21.6727 88.5488L42.8728 85.315L42.2265 81.0777Z" fill="white"/>
</g>
<mask id="mask14_27_20748" style="mask-type:luminance" maskUnits="userSpaceOnUse" x="18" y="58" width="76" height="57">
<path d="M81.6922 58.0514L18.5225 77.7822L30.0325 114.633L93.2023 94.9017L81.6922 58.0514Z" fill="white"/>
</mask>
<g mask="url(#mask14_27_20748)">
<path d="M32.4514 73.892L28.2158 74.5381L31.4494 95.7364L35.6849 95.0904L32.4514 73.892Z" fill="white"/>
</g>
</g>
</svg>
