<svg width="18" height="18" viewBox="0 0 18 18" fill="none" xmlns="http://www.w3.org/2000/svg">
<path d="M17.1572 4.37543C17.1572 7.24407 13.5479 9.27368 13.5479 9.27368C13.5479 9.27368 9.93848 7.26095 9.93848 4.37543C9.93848 2.49288 11.5544 0.966797 13.5479 0.966797C15.5413 0.966797 17.1572 2.49288 17.1572 4.37543Z" stroke="black" stroke-width="0.5" stroke-miterlimit="10" stroke-linecap="round" stroke-linejoin="round"/>
<path d="M13.5478 5.96499C14.4776 5.96499 15.2313 5.25316 15.2313 4.37507C15.2313 3.49699 14.4776 2.78516 13.5478 2.78516C12.618 2.78516 11.8643 3.49699 11.8643 4.37507C11.8643 5.25316 12.618 5.96499 13.5478 5.96499Z" stroke="black" stroke-width="0.5" stroke-miterlimit="10" stroke-linecap="round" stroke-linejoin="round"/>
<path d="M13.5459 10.843C14.0049 10.843 14.3769 10.4917 14.3769 10.0582C14.3769 9.6248 14.0049 9.27344 13.5459 9.27344C13.0869 9.27344 12.7148 9.6248 12.7148 10.0582C12.7148 10.4917 13.0869 10.843 13.5459 10.843Z" stroke="black" stroke-width="0.5" stroke-miterlimit="10" stroke-linecap="round" stroke-linejoin="round"/>
<path d="M8.96953 9.33215C8.96953 12.6501 4.79484 14.9976 4.79484 14.9976C4.79484 14.9976 0.620117 12.6696 0.620117 9.33215C0.620117 7.15477 2.48918 5.38965 4.79484 5.38965C7.1005 5.38965 8.96953 7.15477 8.96953 9.33215Z" stroke="black" stroke-width="0.5" stroke-miterlimit="10" stroke-linecap="round" stroke-linejoin="round"/>
<path d="M4.79693 11.6159C6.13237 11.6159 7.21496 10.5935 7.21496 9.33236C7.21496 8.0712 6.13237 7.04883 4.79693 7.04883C3.46149 7.04883 2.37891 8.0712 2.37891 9.33236C2.37891 10.5935 3.46149 11.6159 4.79693 11.6159Z" stroke="black" stroke-width="0.5" stroke-miterlimit="10" stroke-linecap="round" stroke-linejoin="round"/>
<path d="M4.79518 16.8135C5.32603 16.8135 5.75637 16.4071 5.75637 15.9058C5.75637 15.4045 5.32603 14.998 4.79518 14.998C4.26433 14.998 3.83398 15.4045 3.83398 15.9058C3.83398 16.4071 4.26433 16.8135 4.79518 16.8135Z" stroke="black" stroke-width="0.5" stroke-miterlimit="10" stroke-linecap="round" stroke-linejoin="round"/>
<path d="M13.5469 12.1992C13.5469 12.6292 13.1779 12.9777 12.7226 12.9777H11.4867C11.0364 12.9777 10.6714 13.3224 10.6714 13.7477C10.6714 14.1729 11.0364 14.5176 11.4867 14.5176H15.2159C15.703 14.5176 16.0977 14.8904 16.0977 15.3504C16.0977 15.8103 15.703 16.1831 15.2159 16.1831H7.22168" stroke="black" stroke-width="0.5" stroke-miterlimit="10" stroke-linecap="round" stroke-linejoin="round"/>
</svg>
