<svg width="13" height="12" viewBox="0 0 13 12" fill="none" xmlns="http://www.w3.org/2000/svg">
<path d="M2.80239 8.91995C2.62712 8.91995 2.48501 8.78877 2.48501 8.62698C2.48501 8.46519 2.62712 8.33401 2.80239 8.33401H2.82143C2.9967 8.33401 3.13881 8.46519 3.13881 8.62698C3.13881 8.78877 2.9967 8.91995 2.82143 8.91995H2.80239ZM11.4282 8.33401H4.05201C3.87674 8.33401 3.73463 8.46519 3.73463 8.62698C3.73463 8.78877 3.87674 8.91995 4.05201 8.91995H11.4282C11.8259 8.91995 12.1494 9.21859 12.1494 9.58569C12.1494 9.95279 11.8259 10.2515 11.4282 10.2515H1.57181C1.17411 10.2515 0.850586 9.95279 0.850586 9.58569C0.850586 9.21859 1.17411 8.91995 1.57181 8.91995C1.74708 8.91995 1.88919 8.78877 1.88919 8.62698C1.88919 8.46519 1.74708 8.33401 1.57181 8.33401C0.824129 8.33401 0.21582 8.89552 0.21582 9.58569C0.21582 10.2759 0.824129 10.8374 1.57181 10.8374H11.4282C12.1758 10.8374 12.7842 10.2759 12.7842 9.58569C12.7842 8.89552 12.1759 8.33401 11.4282 8.33401ZM12.7842 5.99975C12.7842 6.68996 12.1759 7.25148 11.4282 7.25148H1.57181C0.824129 7.25145 0.21582 6.68994 0.21582 5.99975C0.21582 5.30956 0.824129 4.74805 1.57181 4.74805H11.4282C12.1759 4.74805 12.7842 5.30956 12.7842 5.99975ZM12.1494 5.99975C12.1494 5.63265 11.8259 5.33398 11.4282 5.33398H1.57181C1.17411 5.33398 0.850586 5.63265 0.850586 5.99975C0.850586 6.36688 1.17411 6.66554 1.57181 6.66554H11.4282C11.8259 6.66552 12.1494 6.36685 12.1494 5.99975ZM10.1786 1.74805H10.1976C10.3729 1.74805 10.515 1.61689 10.515 1.45508C10.515 1.29329 10.3729 1.16211 10.1976 1.16211H10.1786C10.0033 1.16211 9.86119 1.29329 9.86119 1.45508C9.86119 1.61689 10.0033 1.74805 10.1786 1.74805ZM1.57181 3.66552H11.4282C12.1758 3.66552 12.7842 3.104 12.7842 2.41381C12.7842 1.72362 12.1758 1.16211 11.4282 1.16211C11.2529 1.16211 11.1108 1.29329 11.1108 1.45508C11.1108 1.61689 11.2529 1.74805 11.4282 1.74805C11.8259 1.74805 12.1494 2.04671 12.1494 2.41381C12.1494 2.78091 11.8259 3.07958 11.4282 3.07958H1.57181C1.17411 3.07958 0.850586 2.78091 0.850586 2.41381C0.850586 2.04671 1.17411 1.74805 1.57181 1.74805H8.94799C9.12326 1.74805 9.26537 1.61689 9.26537 1.45508C9.26537 1.29329 9.12326 1.16211 8.94799 1.16211H1.57181C0.824129 1.16211 0.21582 1.7236 0.21582 2.41381C0.21582 3.10402 0.824129 3.66552 1.57181 3.66552Z" fill="black"/>
</svg>
