<svg width="35" height="30" viewBox="0 0 35 30" fill="none" xmlns="http://www.w3.org/2000/svg">
<path d="M15.9814 13.1591L17.2034 12.9677V6.72461H14.8306V13.7694C15.1153 13.4497 15.5249 13.2325 15.9814 13.1591Z" fill="black"/>
<path d="M29.501 0.253448C29.3931 0.0972708 29.1999 0.00126056 28.9908 0H27.9586C27.7495 0.00126056 27.5563 0.0972708 27.4484 0.253448L26.5586 1.55172H30.3908L29.501 0.253448Z" fill="black"/>
<path d="M21.7891 0.253448C21.6812 0.0972708 21.488 0.00126056 21.2789 0H20.2467C20.0376 0.00126056 19.8443 0.0972708 19.7365 0.253448L18.8467 1.55172H22.6789L21.7891 0.253448Z" fill="black"/>
<path d="M34.4068 3.6214C34.4049 3.05078 33.8748 2.58862 33.2204 2.58691H16.017C15.3626 2.58862 14.8325 3.05078 14.8306 3.6214V5.69036H34.4068V3.6214ZM29.0679 4.65588H27.8814C27.5538 4.65588 27.2882 4.4243 27.2882 4.13864C27.2882 3.85297 27.5538 3.6214 27.8814 3.6214H29.0679C29.3955 3.6214 29.6611 3.85297 29.6611 4.13864C29.6611 4.4243 29.3955 4.65588 29.0679 4.65588ZM32.6272 4.65588H31.4407C31.1131 4.65588 30.8475 4.4243 30.8475 4.13864C30.8475 3.85297 31.1131 3.6214 31.4407 3.6214H32.6272C32.9548 3.6214 33.2204 3.85297 33.2204 4.13864C33.2204 4.4243 32.9548 4.65588 32.6272 4.65588Z" fill="black"/>
<path d="M3.55953 13.9651H11.8646C12.1922 13.9651 12.4578 13.7336 12.4578 13.4479C12.4578 13.1622 12.1922 12.9307 11.8646 12.9307H3.55953C3.2319 12.9307 2.96631 13.1622 2.96631 13.4479C2.96631 13.7336 3.2319 13.9651 3.55953 13.9651Z" fill="black"/>
<path d="M2.37301 16.5521H10.6781C11.0057 16.5521 11.2713 16.3205 11.2713 16.0348C11.2713 15.7492 11.0057 15.5176 10.6781 15.5176H2.37301C2.04538 15.5176 1.77979 15.7492 1.77979 16.0348C1.77979 16.3205 2.04538 16.5521 2.37301 16.5521Z" fill="black"/>
<path d="M0.59322 19.138H8.8983C9.22593 19.138 9.49153 18.9064 9.49153 18.6208C9.49153 18.3351 9.22593 18.1035 8.8983 18.1035H0.59322C0.265594 18.1035 0 18.3351 0 18.6208C0 18.9064 0.265594 19.138 0.59322 19.138Z" fill="black"/>
<path d="M4.1523 28.966C3.82468 28.966 3.55908 29.1976 3.55908 29.4832C3.55908 29.7689 3.82468 30.0005 4.1523 30.0005H34.4065C34.7342 30.0005 34.9998 29.7689 34.9998 29.4832C34.9998 29.1976 34.7342 28.966 34.4065 28.966V6.72461H32.0337V28.966H4.1523Z" fill="black"/>
<path d="M1.77966 28.9658H0.59322C0.265594 28.9658 0 29.1974 0 29.4831C0 29.7687 0.265594 30.0003 0.59322 30.0003H1.77966C2.10729 30.0003 2.37288 29.7687 2.37288 29.4831C2.37288 29.1974 2.10729 28.9658 1.77966 28.9658Z" fill="black"/>
<path d="M22.839 12.9275C22.9968 12.9282 23.1541 12.9126 23.3076 12.8809C24.2457 12.6964 24.9175 11.9765 24.934 11.1381C24.9505 10.2997 24.3074 9.56014 23.3771 9.34764C22.4468 9.13513 21.4705 9.50477 21.0134 10.2425C20.5563 10.9803 20.737 11.8949 21.4508 12.4568C21.8289 12.7607 22.3247 12.9288 22.839 12.9275Z" fill="black"/>
<path d="M10.649 26.1016C9.74312 26.103 9.01008 26.7445 9.01172 27.5343C9.01336 28.3242 9.74905 28.9633 10.6549 28.9619C11.5608 28.9605 12.2939 28.319 12.2922 27.5291C12.2903 26.7394 11.5548 26.1004 10.649 26.1016Z" fill="black"/>
<path d="M28.4746 17.0642C28.476 17.2039 28.4091 17.3374 28.2907 17.4315C28.1844 17.5294 28.0359 17.5838 27.8813 17.5815H25.7695C25.5634 17.5942 25.3609 17.5303 25.2118 17.4056L23.2661 15.6729C23.1178 15.5384 22.8973 15.4849 22.6907 15.5332C22.4859 15.5824 22.3259 15.7219 22.2695 15.9004L21.0356 19.9711C20.9747 20.1679 21.054 20.3774 21.2373 20.5039L24.4644 22.8056C24.6054 22.906 24.7002 23.0475 24.7313 23.2039L25.6093 28.2211C25.6438 28.3863 25.5988 28.5566 25.4847 28.6918C25.3698 28.8297 25.1971 28.9226 25.0042 28.9504C24.9669 28.9559 24.9293 28.9594 24.8915 28.9608C24.5288 28.9644 24.2181 28.7353 24.1618 28.4229L23.3491 23.8401C23.3266 23.7136 23.2504 23.5991 23.1356 23.5194L20.0686 21.3315C19.9175 21.2203 19.7121 21.1833 19.5229 21.2332C19.3331 21.2848 19.1846 21.4143 19.1254 21.5797L16.7347 28.5004C16.6865 28.6673 16.56 28.8088 16.3863 28.8904C16.2126 28.9721 16.0075 28.9863 15.8212 28.9297C15.6354 28.8803 15.4797 28.7687 15.3881 28.6194C15.297 28.4718 15.2777 28.2985 15.3347 28.1384L19.6178 15.6925C19.6773 15.5198 19.6293 15.3325 19.4913 15.1983C19.3532 15.0641 19.1449 15.0022 18.9415 15.0351L17.0669 15.3366C16.8956 15.3636 16.7462 15.4542 16.6576 15.5849L15.1923 17.8194C15.1154 17.9421 14.9916 18.0372 14.8423 18.0884C14.6311 18.1698 14.3875 18.1563 14.1898 18.0522C14.0299 17.9707 13.9113 17.8395 13.8576 17.6849C13.8576 17.6746 13.8517 17.6642 13.8517 17.6539C13.8024 17.495 13.828 17.3255 13.9229 17.1832L15.6907 14.478C15.7996 14.316 15.9834 14.2029 16.1949 14.1677L20.3712 13.516L20.9525 13.4229C21.5019 13.7688 22.1613 13.9568 22.839 13.9608C23.0303 13.9597 23.221 13.9424 23.4084 13.9091L25.9118 16.3711C26.0234 16.4838 26.186 16.5481 26.3568 16.547H27.8813C28.0387 16.547 28.1895 16.6015 28.3008 16.6985C28.4121 16.7955 28.4746 16.9271 28.4746 17.0642Z" fill="black"/>
<path d="M13.5202 18.9014L12.7217 21.2853C12.5457 21.2092 12.3623 21.1471 12.1735 21.0996C10.4139 20.6447 8.5615 21.5064 8.01507 23.0341L6.54389 27.0893C6.47733 27.2707 6.59132 27.4648 6.79897 27.5238L7.86084 27.8341C7.83987 27.7334 7.82797 27.6313 7.82524 27.529C7.82292 26.6302 8.38375 25.8021 9.2875 25.3698C10.1913 24.9375 11.2936 24.9701 12.1617 25.4548L13.2212 22.2805L14.2652 19.144C14.0323 19.1156 13.8072 19.0508 13.6008 18.9526C13.5735 18.9376 13.5498 18.9169 13.5202 18.9014Z" fill="black"/>
</svg>
