<svg width="35" height="30" viewBox="0 0 35 30" fill="none" xmlns="http://www.w3.org/2000/svg">
<path d="M4.33243 4.60915C5.36312 4.53104 6.13921 3.57762 6.06588 2.47963C5.99256 1.38164 5.09758 0.554864 4.0669 0.632977C3.03622 0.711091 2.26013 1.66451 2.33345 2.7625C2.40678 3.86049 3.30175 4.68726 4.33243 4.60915Z" fill="black"/>
<path d="M12.8168 4.58522C13.9163 4.39535 14.6631 3.29194 14.4849 2.12068C14.3067 0.949415 13.2709 0.153839 12.1714 0.34371C11.072 0.53358 10.3251 1.637 10.5034 2.80826C10.6816 3.97952 11.7174 4.77509 12.8168 4.58522Z" fill="black"/>
<path d="M24.4595 9.15926H34.9998V5.21973H24.6226C22.6594 5.21973 21.0679 7.16261 21.0679 9.55939V24.4098C21.0679 26.8065 22.6594 28.7495 24.6226 28.7495H27.9538V27.4641C27.9538 26.9719 28.2807 26.5728 28.6839 26.5728H32.966C33.3692 26.5728 33.6961 26.9719 33.6961 27.4641V28.7495H34.9999V18.6434H24.4595C23.8405 18.6434 23.3387 18.0308 23.3387 17.2751V10.5276C23.3387 9.77188 23.8405 9.15926 24.4595 9.15926ZM24.9944 22.3449C25.9087 22.3449 26.65 23.2499 26.65 24.3662C26.65 25.4825 25.9087 26.3873 24.9944 26.3873C24.08 26.3873 23.3387 25.4824 23.3387 24.3662C23.3387 23.2499 24.08 22.3449 24.9944 22.3449Z" fill="black"/>
<path d="M19.2127 24.5289H18.6145H18.3001H16.5648H16.2504H13.8911C14.2151 24.3692 14.5223 24.0485 14.5233 23.6551C14.5341 19.2552 14.5233 12.1194 14.5233 12.1194L16.0522 13.1282V14.8754C15.6852 14.9705 15.4123 15.3219 15.4123 15.7422V22.7622C15.4123 23.1961 15.7028 23.5574 16.0879 23.6381C16.0389 23.7261 16.0104 23.8285 16.0104 23.9382C16.0104 24.2644 16.2586 24.529 16.5649 24.529C16.8712 24.529 17.1193 24.2645 17.1193 23.9382C17.1193 23.8356 17.0947 23.7392 17.0515 23.6552H17.8135C17.7703 23.7393 17.7457 23.8357 17.7457 23.9382C17.7457 24.2644 17.9939 24.529 18.3002 24.529C18.6065 24.529 18.8547 24.2645 18.8547 23.9382C18.8547 23.8285 18.8261 23.7261 18.7772 23.6381C19.1623 23.5574 19.4528 23.1961 19.4528 22.7622V15.7422C19.4528 15.249 19.0775 14.8493 18.6146 14.8493H17.0775C17.0775 14.6383 17.0775 13.3754 17.0775 13.2086C17.2091 13.1303 17.3249 13.0171 17.4103 12.8712C17.6803 12.4102 17.5484 11.8033 17.1156 11.5157L14.5346 9.79992V6.62982C14.5346 5.88386 13.9669 5.27908 13.2667 5.27908H10.9449C10.2447 5.27908 9.67696 5.88378 9.67696 6.62982V6.80959L10.2432 6.48689L8.32591 8.30129C8.20849 8.41241 8.11957 8.55366 8.06769 8.71159L6.91512 12.2162C6.74651 12.729 7.00001 13.2904 7.48139 13.4701C7.96018 13.6488 8.48886 13.3824 8.65843 12.8668L9.73185 9.60303L11.47 7.95813L10.373 9.63245L9.70936 11.7487C9.72993 24.3235 9.68927 23.5114 9.70936 23.6552C9.7637 24.0445 10.0003 24.3694 10.3241 24.529H6.07067C6.55493 24.3846 6.88136 23.8999 6.86017 23.3702L6.66558 18.5048C6.66223 18.4215 6.65048 18.339 6.63045 18.2585L6.20546 16.5495H6.93734C7.22946 16.5495 7.44859 16.2415 7.39186 15.9113L7.06125 13.9864C7.06125 13.9864 4.53884 11.4148 4.29278 11.1563C4.18746 11.0253 4.01686 10.9312 3.97558 10.6703L3.52318 7.82802L4.60439 10.3664C4.6469 10.4662 4.70616 10.5569 4.77922 10.6342L6.27907 12.2196L6.88792 10.3198L6.08339 9.46935L5.06649 7.08198L6.1095 8.44488L5.72558 6.20962C5.62456 5.62144 5.17688 5.19629 4.65654 5.19629C3.98645 5.19629 3.51511 5.19629 2.77141 5.19629C2.24997 5.19629 1.80359 5.62028 1.70236 6.20962L0.0359515 15.9112C-0.0211881 16.2437 0.201356 16.5494 0.490471 16.5494H1.38823V18.7641L0.412827 23.1535C0.282281 23.7411 0.605571 24.3597 1.17594 24.5289H0V30.0004H18.8414V26.2707H19.2127C19.6642 26.2707 20.0302 25.8808 20.0302 25.3998C20.0302 24.9188 19.6642 24.5289 19.2127 24.5289ZM1.75985 24.5289C2.12565 24.4187 2.42631 24.1069 2.52009 23.6849L2.52672 23.6551L3.52461 19.1644C3.54396 19.0773 3.55373 18.9882 3.55373 18.8987V16.5494H3.96546L4.50726 18.7282L4.69679 23.4684C4.71634 23.9573 5.03013 24.3924 5.48492 24.529H1.75985V24.5289ZM11.2293 24.5289C11.5533 24.3691 11.7896 24.044 11.8438 23.6551C11.8663 23.4941 11.831 14.2404 11.8254 14.1778H12.3574C12.3637 24.0817 12.3459 23.4742 12.3712 23.6551C12.4255 24.0443 12.662 24.3692 12.9859 24.5289H11.2293Z" fill="black"/>
</svg>
