<svg width="31" height="35" viewBox="0 0 31 35" fill="none" xmlns="http://www.w3.org/2000/svg">
<path d="M5.12748 20.6435H3.07644C1.38 20.6435 0 22.0235 0 23.7199C0 25.4163 1.38 26.7963 3.07644 26.7963H11.2804C11.8459 26.7963 12.3057 27.2559 12.3057 27.8217C12.3057 28.3876 11.8459 28.8471 11.2804 28.8471H7.17826C5.48183 28.8471 4.10183 30.2271 4.10183 31.9236C4.10183 33.62 5.48183 35 7.17826 35H21.5351C23.2315 35 24.6115 33.62 24.6115 31.9236V30.214L29.3312 23.922C30.2685 22.6724 30.7644 21.1842 30.7644 19.6181C30.7644 15.6434 27.5467 12.4454 23.5858 12.4414C19.5809 12.4374 16.4084 15.6922 16.407 19.6181C16.4068 21.1714 16.8997 22.6678 17.8407 23.9212L22.5604 30.2138V31.9236C22.5604 32.4894 22.1006 32.949 21.5351 32.949H7.17826C6.61243 32.949 6.15287 32.4894 6.15287 31.9236C6.15287 31.3577 6.61243 30.8982 7.17826 30.8982H11.2804C12.9765 30.8982 14.3565 29.5182 14.3565 27.8217C14.3565 26.1253 12.9765 24.7453 11.2804 24.7453H3.07644C2.5106 24.7453 2.05105 24.2855 2.05105 23.7199C2.05105 23.1541 2.5106 22.6943 3.07644 22.6943H5.12748C6.82392 22.6943 8.20392 21.3142 8.20392 19.6178V17.9086L12.9237 11.5479C13.9026 10.2427 14.3528 8.70863 14.3651 7.27228C14.3984 3.38889 11.3167 -0.0111875 7.17826 2.76668e-05C3.16696 0.0109758 0 3.24362 0 7.17562C0 8.74174 0.495605 10.2983 1.43314 11.5471L6.15287 17.9086V19.6178C6.15287 20.1836 5.69332 20.6435 5.12748 20.6435ZM20.5094 19.6178C20.5094 17.9214 21.8894 16.5414 23.5858 16.5414C25.2823 16.5414 26.6623 17.9214 26.6623 19.6178C26.6623 21.3142 25.2823 22.6943 23.5858 22.6943C21.8894 22.6943 20.5094 21.3145 20.5094 19.6178ZM4.10183 7.17562C4.10183 5.47919 5.48183 4.09918 7.17826 4.09918C8.8747 4.09918 10.2547 5.47919 10.2547 7.17562C10.2547 8.87179 8.8747 10.2521 7.17826 10.2521C5.48183 10.2521 4.10183 8.87205 4.10183 7.17562Z" fill="black"/>
</svg>
