<svg width="17" height="16" viewBox="0 0 17 16" fill="none" xmlns="http://www.w3.org/2000/svg">
<g clip-path="url(#clip0_27_14498)">
<path d="M10.7318 8.02205L11.5953 7.1583C12.1426 7.34064 12.73 7.36636 13.2911 7.23255C13.8522 7.09874 14.3648 6.81074 14.7709 6.40106C16.5865 4.58489 17.0424 2.19493 15.8073 0.960129C14.5723 -0.274669 12.1826 0.180899 10.3664 1.99658C9.95671 2.40268 9.6687 2.91523 9.5349 3.47636C9.40109 4.03748 9.42681 4.62484 9.60915 5.17212L8.7454 6.03562L7.95786 5.24833L7.92928 4.70238C7.89859 4.11477 7.65126 3.55938 7.23506 3.14344L4.48357 0.391951C4.44388 0.352254 4.39675 0.320764 4.34488 0.299281C4.29302 0.277797 4.23743 0.266739 4.18129 0.266739C4.06791 0.266739 3.95917 0.311779 3.879 0.391951C3.79883 0.472122 3.75379 0.580858 3.75379 0.694238C3.75379 0.750378 3.76485 0.805968 3.78633 0.857835C3.80781 0.909701 3.8393 0.956828 3.879 0.996525L5.99489 3.11217L5.21761 3.88945L3.1027 1.7738C3.06294 1.73404 3.01574 1.7025 2.96379 1.68098C2.91184 1.65946 2.85616 1.64839 2.79992 1.64839C2.74369 1.64839 2.68801 1.65946 2.63606 1.68098C2.58411 1.7025 2.53691 1.73404 2.49715 1.7738C2.41685 1.8541 2.37173 1.96301 2.37173 2.07658C2.37173 2.19014 2.41685 2.29905 2.49715 2.37935L4.61304 4.49524L3.83552 5.27154L1.71987 3.15565C1.6397 3.07548 1.53097 3.03044 1.41759 3.03044C1.30421 3.03044 1.19547 3.07548 1.1153 3.15565C1.03513 3.23582 0.990087 3.34456 0.990087 3.45794C0.990087 3.57132 1.03513 3.68005 1.1153 3.76023L3.86679 6.51171C4.28272 6.92791 4.83812 7.17524 5.42573 7.20594L5.97168 7.23451L6.75897 8.02205L1.40061 13.3807C1.13723 13.644 0.989258 14.0013 0.989258 14.3737C0.989258 14.7462 1.13723 15.1035 1.40061 15.3668C1.66399 15.6302 2.02122 15.7782 2.3937 15.7782C2.76618 15.7782 3.12341 15.6302 3.38679 15.3668L8.7454 10.0085L14.1035 15.3666C14.2339 15.497 14.3888 15.6005 14.5592 15.6711C14.7296 15.7417 14.9123 15.778 15.0967 15.778C15.2812 15.778 15.4638 15.7417 15.6343 15.6711C15.8047 15.6005 15.9595 15.497 16.0899 15.3666C16.2204 15.2362 16.3238 15.0813 16.3944 14.9109C16.465 14.7405 16.5013 14.5578 16.5013 14.3734C16.5013 14.1889 16.465 14.0063 16.3944 13.8359C16.3238 13.6654 16.2204 13.5106 16.0899 13.3802L10.7318 8.02205ZM10.4096 5.57932C10.4705 5.51852 10.5116 5.44073 10.5275 5.35617C10.5434 5.27161 10.5334 5.18421 10.4988 5.10543C10.3146 4.68926 10.2612 4.22698 10.3455 3.77976C10.4298 3.33255 10.6479 2.92146 10.971 2.60091C12.3987 1.17313 14.3368 0.698513 15.2027 1.5647C16.0687 2.43089 15.5936 4.36871 14.1665 5.79648C13.8459 6.11977 13.4346 6.33803 12.9871 6.42235C12.5396 6.50667 12.0771 6.45308 11.6608 6.26866C11.582 6.23404 11.4946 6.22403 11.4101 6.23994C11.3255 6.25585 11.2477 6.29694 11.1869 6.35782L10.1272 7.41747L9.34997 6.6402L10.4096 5.57932ZM2.78221 14.7625C2.67911 14.8656 2.53928 14.9235 2.39349 14.9235C2.2477 14.9234 2.10789 14.8655 2.00482 14.7624C1.90174 14.6593 1.84385 14.5195 1.84387 14.3737C1.8439 14.2279 1.90183 14.0881 2.00494 13.985L7.36355 8.62662L8.14082 9.4039L2.78221 14.7625ZM15.4844 14.7625C15.3813 14.8655 15.2415 14.9233 15.0958 14.9233C14.95 14.9233 14.8102 14.8655 14.7071 14.7625L6.46023 6.51415C6.3855 6.43948 6.28579 6.39511 6.18029 6.38958L5.4719 6.3522C5.09453 6.33304 4.73771 6.17443 4.47063 5.90714L4.4396 5.87611L6.59873 3.71699L6.62975 3.74801C6.89661 4.0146 7.05518 4.37064 7.07482 4.74733L7.11219 5.45572C7.11772 5.56122 7.1621 5.66093 7.23677 5.73566L15.4854 13.9847C15.5883 14.0879 15.6461 14.2277 15.6461 14.3734C15.6461 14.5191 15.5883 14.6589 15.4854 14.762L15.4844 14.7625Z" fill="black"/>
</g>
<defs>
<clipPath id="clip0_27_14498">
<rect width="15.6334" height="15.6334" fill="white" transform="translate(0.928711 0.205078)"/>
</clipPath>
</defs>
</svg>
