<svg width="31" height="32" viewBox="0 0 31 32" fill="none" xmlns="http://www.w3.org/2000/svg">
<path d="M29.9099 2.60125H26.9205C26.7677 1.14011 25.5297 0 24.0289 0C22.528 0 21.2931 1.14017 21.1403 2.60125H17.998C17.8451 1.14011 16.6072 0 15.1063 0C13.6085 0 12.3706 1.14017 12.2177 2.60125H9.07544C8.9226 1.14011 7.68464 0 6.18378 0C4.68598 0 3.44802 1.14017 3.29518 2.60125H0.305685C0.137564 2.60125 0 2.73881 0 2.90693V30.8728C0 31.0409 0.137564 31.1785 0.305685 31.1785H29.9099C30.0781 31.1785 30.2156 31.0409 30.2156 30.8728V2.90693C30.2156 2.73881 30.0781 2.60125 29.9099 2.60125ZM24.0289 0.611307C25.1904 0.611307 26.1532 1.47941 26.303 2.60125H21.7577C21.9075 1.47941 22.8673 0.611307 24.0289 0.611307ZM15.1063 0.611307C16.2678 0.611307 17.2306 1.47941 17.3804 2.60125H12.8351C12.9849 1.47941 13.9448 0.611307 15.1063 0.611307ZM6.18372 0.611307C7.34834 0.611307 8.30811 1.47941 8.4579 2.60125H3.91254C4.06239 1.47941 5.02222 0.611307 6.18372 0.611307ZM29.6043 30.5671H0.611369V29.3781H25.976C26.1441 29.3781 26.2816 29.2405 26.2816 29.0724C26.2816 28.9012 26.1441 28.7667 25.976 28.7667H0.611369V27.5777H29.6043V30.5671ZM29.6043 26.9663H0.611369V9.60418H29.6043V26.9663ZM29.6043 8.99281H0.611369V3.21262H3.29512C3.45102 4.67064 4.68592 5.81387 6.18372 5.81387C6.35184 5.81387 6.48941 5.6763 6.48941 5.50818C6.48941 5.33701 6.35184 5.2025 6.18372 5.2025C5.02521 5.2025 4.06544 4.3344 3.9126 3.21262H12.2177C12.3705 4.67064 13.6085 5.81387 15.1063 5.81387C15.2744 5.81387 15.4119 5.6763 15.4119 5.50818C15.4119 5.33701 15.2744 5.2025 15.1063 5.2025C13.9447 5.2025 12.988 4.3344 12.8351 3.21262H21.1402C21.293 4.67064 22.531 5.81387 24.0288 5.81387C24.1969 5.81387 24.3345 5.6763 24.3345 5.50818C24.3345 5.33701 24.1969 5.2025 24.0288 5.2025C22.8672 5.2025 21.9075 4.3344 21.7577 3.21262H29.6043V8.99281Z" fill="black"/>
<path d="M22.2591 18.0558L20.5382 16.8514L21.4277 14.9471C21.4704 14.8554 21.4643 14.7515 21.4154 14.6628C21.3666 14.5773 21.2748 14.5222 21.177 14.513L19.0831 14.3327L18.8997 12.2388C18.8936 12.1379 18.8356 12.0493 18.75 12.0004C18.6644 11.9484 18.5574 11.9454 18.4687 11.9882L16.5644 12.8777L15.357 11.1537C15.2439 10.9917 14.9719 10.9917 14.8557 11.1537L13.6513 12.8777L11.747 11.9882C11.6584 11.9454 11.5514 11.9485 11.4658 12.0004C11.3771 12.0493 11.3221 12.138 11.3129 12.2388L11.1326 14.3327L9.03877 14.513C8.94093 14.5222 8.84926 14.5772 8.80031 14.6628C8.75142 14.7515 8.74531 14.8554 8.78808 14.9471L9.67757 16.8514L7.95665 18.0558C7.87415 18.1138 7.8252 18.2056 7.8252 18.3065C7.8252 18.4073 7.87409 18.499 7.95665 18.5571L9.67757 19.7614L8.78808 21.6657C8.74531 21.7574 8.75142 21.8614 8.80031 21.95C8.8492 22.0356 8.93787 22.0907 9.03877 22.0998L11.1326 22.2802L11.3129 24.374C11.3221 24.4749 11.3771 24.5635 11.4658 24.6124C11.5513 24.6644 11.6553 24.6675 11.747 24.6277L13.6513 23.7382L14.8557 25.4591C14.9137 25.5417 15.0085 25.5906 15.1064 25.5906C15.2073 25.5906 15.2989 25.5417 15.3571 25.4591L16.5645 23.7382L18.4688 24.6277C18.5574 24.6674 18.6644 24.6643 18.75 24.6155C18.8356 24.5635 18.8937 24.4748 18.9029 24.3771L19.0832 22.2802L21.177 22.0998C21.2749 22.0937 21.3665 22.0357 21.4155 21.95C21.4644 21.8644 21.4705 21.7575 21.4277 21.6657L20.5382 19.7614L22.2592 18.5571C22.3417 18.499 22.3906 18.4073 22.3906 18.3065C22.3906 18.2056 22.3417 18.1139 22.2591 18.0558ZM18.4963 18.3065C18.4963 20.1741 16.9771 21.6964 15.1094 21.6964C13.2387 21.6964 11.7195 20.1741 11.7195 18.3065C11.7195 16.4388 13.2387 14.9196 15.1094 14.9196C16.9771 14.9196 18.4963 16.4388 18.4963 18.3065Z" fill="black"/>
</svg>
