<svg width="35" height="35" viewBox="0 0 35 35" fill="none" xmlns="http://www.w3.org/2000/svg">
<g clip-path="url(#clip0_27_7708)">
<path d="M17.5002 3.1498C17.6626 3.1498 17.8184 3.08527 17.9333 2.97041C18.0482 2.85554 18.1127 2.69975 18.1127 2.5373C18.1127 2.37486 18.0482 2.21907 17.9333 2.1042C17.8184 1.98934 17.6626 1.9248 17.5002 1.9248C17.3378 1.9248 17.182 1.98934 17.0671 2.1042C16.9522 2.21907 16.8877 2.37486 16.8877 2.5373C16.8877 2.69975 16.9522 2.85554 17.0671 2.97041C17.182 3.08527 17.3378 3.1498 17.5002 3.1498Z" fill="black"/>
<path d="M28.8149 3.85506H24.4781C24.3532 3.50522 24.1233 3.20246 23.8199 2.98811C23.5165 2.77377 23.1543 2.65828 22.7828 2.65741H20.4149C20.3516 1.92793 20.0171 1.24869 19.4775 0.753807C18.9378 0.258924 18.2322 -0.015625 17.5 -0.015625C16.7678 -0.015625 16.0622 0.258924 15.5225 0.753807C14.9829 1.24869 14.6484 1.92793 14.5852 2.65741H12.3539C11.9824 2.65828 11.6203 2.77377 11.3168 2.98811C11.0134 3.20246 10.7836 3.50522 10.6586 3.85506H6.18517C6.01907 3.85434 5.85447 3.88652 5.70088 3.94975C5.54728 4.01298 5.40773 4.10601 5.29028 4.22346C5.17283 4.34091 5.0798 4.48046 5.01657 4.63405C4.95334 4.78765 4.92116 4.95225 4.92189 5.11834V33.7363C4.92116 33.9024 4.95334 34.067 5.01657 34.2206C5.0798 34.3742 5.17283 34.5138 5.29028 34.6312C5.40773 34.7487 5.54728 34.8417 5.70088 34.9049C5.85447 34.9681 6.01907 35.0003 6.18517 34.9996H28.8149C28.9805 35.0003 29.1446 34.9683 29.2979 34.9054C29.4511 34.8425 29.5904 34.75 29.7078 34.6331C29.8252 34.5163 29.9183 34.3774 29.9819 34.2244C30.0454 34.0714 30.0781 33.9074 30.0781 33.7418V5.11834C30.0789 4.95225 30.0467 4.78765 29.9834 4.63405C29.9202 4.48046 29.8272 4.34091 29.7097 4.22346C29.5923 4.10601 29.4527 4.01298 29.2991 3.94975C29.1456 3.88652 28.981 3.85434 28.8149 3.85506ZM17.5 1.38866C17.7267 1.38974 17.948 1.45788 18.136 1.58448C18.324 1.71109 18.4704 1.8905 18.5566 2.10013C18.6428 2.30975 18.6651 2.54021 18.6206 2.76248C18.5761 2.98474 18.4669 3.18887 18.3066 3.34915C18.1463 3.50943 17.9422 3.6187 17.7199 3.66318C17.4977 3.70767 17.2672 3.68539 17.0576 3.59915C16.8479 3.5129 16.6685 3.36655 16.5419 3.17853C16.4153 2.99051 16.3472 2.76923 16.3461 2.54256C16.3461 2.23653 16.4677 1.94303 16.6841 1.72663C16.9005 1.51023 17.194 1.38866 17.5 1.38866ZM27.8524 32.4512C27.8568 32.6142 27.7966 32.7723 27.685 32.8911C27.5733 33.0099 27.4192 33.0798 27.2563 33.0855H7.73829C7.65713 33.0835 7.57721 33.0651 7.50325 33.0316C7.4293 32.9981 7.36282 32.9501 7.30775 32.8904C7.25268 32.8308 7.21014 32.7607 7.18264 32.6843C7.15515 32.6079 7.14325 32.5268 7.14767 32.4457V6.40897C7.14174 6.24596 7.2005 6.08721 7.31114 5.96735C7.42178 5.84749 7.57533 5.77624 7.73829 5.76913H10.5492V6.491C10.5492 6.70566 10.6345 6.91153 10.7863 7.06332C10.9381 7.2151 11.1439 7.30038 11.3586 7.30038H23.7727C23.881 7.30329 23.9889 7.28455 24.09 7.24524C24.191 7.20594 24.2832 7.14687 24.3611 7.0715C24.439 6.99612 24.5011 6.90595 24.5437 6.80628C24.5864 6.7066 24.6087 6.59941 24.6094 6.491V5.7746H27.2781C27.3591 5.77671 27.4388 5.79484 27.5126 5.82795C27.5865 5.86105 27.6531 5.90847 27.7085 5.96746C27.7639 6.02645 27.8071 6.09584 27.8356 6.17162C27.864 6.24741 27.8771 6.32808 27.8742 6.40897L27.8524 32.4512Z" fill="black"/>
<path d="M26.5834 10.1934H16.0615C15.989 10.1934 15.9195 10.2222 15.8682 10.2734C15.8169 10.3247 15.7881 10.3943 15.7881 10.4668C15.7881 10.5393 15.8169 10.6089 15.8682 10.6601C15.9195 10.7114 15.989 10.7402 16.0615 10.7402H26.5834C26.6559 10.7402 26.7255 10.7114 26.7767 10.6601C26.828 10.6089 26.8568 10.5393 26.8568 10.4668C26.8568 10.3943 26.828 10.3247 26.7767 10.2734C26.7255 10.2222 26.6559 10.1934 26.5834 10.1934Z" fill="black"/>
<path d="M16.0615 13.2402H22.0771C22.1497 13.2402 22.2192 13.2114 22.2705 13.1601C22.3218 13.1089 22.3506 13.0393 22.3506 12.9668C22.3506 12.8943 22.3218 12.8247 22.2705 12.7734C22.2192 12.7222 22.1497 12.6934 22.0771 12.6934H16.0615C15.989 12.6934 15.9195 12.7222 15.8682 12.7734C15.8169 12.8247 15.7881 12.8943 15.7881 12.9668C15.7881 13.0393 15.8169 13.1089 15.8682 13.1601C15.9195 13.2114 15.989 13.2402 16.0615 13.2402Z" fill="black"/>
<path d="M16.0615 16.625H21.1967C21.2692 16.625 21.3387 16.5962 21.39 16.5449C21.4413 16.4936 21.4701 16.4241 21.4701 16.3516C21.4701 16.279 21.4413 16.2095 21.39 16.1582C21.3387 16.1069 21.2692 16.0781 21.1967 16.0781H16.0615C15.989 16.0781 15.9195 16.1069 15.8682 16.1582C15.8169 16.2095 15.7881 16.279 15.7881 16.3516C15.7881 16.4241 15.8169 16.4936 15.8682 16.5449C15.9195 16.5962 15.989 16.625 16.0615 16.625Z" fill="black"/>
<path d="M16.0615 19.1406H24.4779C24.5504 19.1406 24.62 19.1118 24.6713 19.0605C24.7226 19.0093 24.7514 18.9397 24.7514 18.8672C24.7514 18.7947 24.7226 18.7251 24.6713 18.6738C24.62 18.6226 24.5504 18.5938 24.4779 18.5938H16.0615C15.989 18.5938 15.9195 18.6226 15.8682 18.6738C15.8169 18.7251 15.7881 18.7947 15.7881 18.8672C15.7881 18.9397 15.8169 19.0093 15.8682 19.0605C15.9195 19.1118 15.989 19.1406 16.0615 19.1406Z" fill="black"/>
<path d="M26.5837 16.0889H22.6079C22.5354 16.0889 22.4658 16.1177 22.4146 16.169C22.3633 16.2202 22.3345 16.2898 22.3345 16.3623C22.3345 16.4348 22.3633 16.5044 22.4146 16.5557C22.4658 16.6069 22.5354 16.6357 22.6079 16.6357H26.5837C26.6562 16.6357 26.7258 16.6069 26.777 16.5557C26.8283 16.5044 26.8571 16.4348 26.8571 16.3623C26.8571 16.2898 26.8283 16.2202 26.777 16.169C26.7258 16.1177 26.6562 16.0889 26.5837 16.0889Z" fill="black"/>
<path d="M16.0615 22.2793H21.1967C21.2692 22.2793 21.3387 22.2505 21.39 22.1992C21.4413 22.1479 21.4701 22.0784 21.4701 22.0059C21.4701 21.9333 21.4413 21.8638 21.39 21.8125C21.3387 21.7612 21.2692 21.7324 21.1967 21.7324H16.0615C15.989 21.7324 15.9195 21.7612 15.8682 21.8125C15.8169 21.8638 15.7881 21.9333 15.7881 22.0059C15.7881 22.0784 15.8169 22.1479 15.8682 22.1992C15.9195 22.2505 15.989 22.2793 16.0615 22.2793Z" fill="black"/>
<path d="M16.0615 24.7842H24.4779C24.5504 24.7842 24.62 24.7554 24.6713 24.7041C24.7226 24.6528 24.7514 24.5833 24.7514 24.5107C24.7514 24.4382 24.7226 24.3687 24.6713 24.3174C24.62 24.2661 24.5504 24.2373 24.4779 24.2373H16.0615C15.989 24.2373 15.9195 24.2661 15.8682 24.3174C15.8169 24.3687 15.7881 24.4382 15.7881 24.5107C15.7881 24.5833 15.8169 24.6528 15.8682 24.7041C15.9195 24.7554 15.989 24.7842 16.0615 24.7842Z" fill="black"/>
<path d="M26.5837 21.7441H22.6079C22.5354 21.7441 22.4658 21.773 22.4146 21.8242C22.3633 21.8755 22.3345 21.9451 22.3345 22.0176C22.3345 22.0901 22.3633 22.1596 22.4146 22.2109C22.4658 22.2622 22.5354 22.291 22.6079 22.291H26.5837C26.6562 22.291 26.7258 22.2622 26.777 22.2109C26.8283 22.1596 26.8571 22.0901 26.8571 22.0176C26.8571 21.9451 26.8283 21.8755 26.777 21.8242C26.7258 21.773 26.6562 21.7441 26.5837 21.7441Z" fill="black"/>
<path d="M16.0615 27.9346H21.1967C21.2692 27.9346 21.3387 27.9058 21.39 27.8545C21.4413 27.8032 21.4701 27.7337 21.4701 27.6611C21.4701 27.5886 21.4413 27.5191 21.39 27.4678C21.3387 27.4165 21.2692 27.3877 21.1967 27.3877H16.0615C15.989 27.3877 15.9195 27.4165 15.8682 27.4678C15.8169 27.5191 15.7881 27.5886 15.7881 27.6611C15.7881 27.7337 15.8169 27.8032 15.8682 27.8545C15.9195 27.9058 15.989 27.9346 16.0615 27.9346Z" fill="black"/>
<path d="M24.4779 29.9033H16.0615C15.989 29.9033 15.9195 29.9321 15.8682 29.9834C15.8169 30.0347 15.7881 30.1042 15.7881 30.1768C15.7881 30.2493 15.8169 30.3188 15.8682 30.3701C15.9195 30.4214 15.989 30.4502 16.0615 30.4502H24.4779C24.5504 30.4502 24.62 30.4214 24.6713 30.3701C24.7226 30.3188 24.7514 30.2493 24.7514 30.1768C24.7514 30.1042 24.7226 30.0347 24.6713 29.9834C24.62 29.9321 24.5504 29.9033 24.4779 29.9033Z" fill="black"/>
<path d="M26.5837 27.3984H22.6079C22.5354 27.3984 22.4658 27.4272 22.4146 27.4785C22.3633 27.5298 22.3345 27.5994 22.3345 27.6719C22.3345 27.7444 22.3633 27.8139 22.4146 27.8652C22.4658 27.9165 22.5354 27.9453 22.6079 27.9453H26.5837C26.6562 27.9453 26.7258 27.9165 26.777 27.8652C26.8283 27.8139 26.8571 27.7444 26.8571 27.6719C26.8571 27.5994 26.8283 27.5298 26.777 27.4785C26.7258 27.4272 26.6562 27.3984 26.5837 27.3984Z" fill="black"/>
<path d="M11.375 12.2715C10.6828 12.2715 10.0061 12.4768 9.43051 12.8613C8.85493 13.2459 8.40633 13.7926 8.14142 14.4321C7.87652 15.0716 7.8072 15.7754 7.94225 16.4543C8.0773 17.1332 8.41064 17.7569 8.90013 18.2464C9.38961 18.7358 10.0133 19.0692 10.6922 19.2042C11.3711 19.3393 12.0749 19.27 12.7144 19.0051C13.3539 18.7402 13.9006 18.2916 14.2851 17.716C14.6697 17.1404 14.875 16.4637 14.875 15.7715C14.875 14.8432 14.5063 13.953 13.8499 13.2966C13.1935 12.6402 12.3033 12.2715 11.375 12.2715ZM9.14375 15.4051C9.14382 15.2719 9.1831 15.1417 9.25669 15.0307C9.33028 14.9197 9.43493 14.8328 9.55757 14.7809C9.68021 14.729 9.81542 14.7144 9.94633 14.7388C10.0772 14.7633 10.1981 14.8257 10.2937 14.9184C10.3894 15.011 10.4556 15.1298 10.4842 15.2599C10.5128 15.39 10.5024 15.5256 10.4544 15.6498C10.4065 15.774 10.323 15.8814 10.2144 15.9584C10.1057 16.0355 9.97686 16.0789 9.84375 16.0832C9.75268 16.0869 9.66181 16.0721 9.57665 16.0396C9.49148 16.0071 9.41381 15.9577 9.34835 15.8942C9.28288 15.8308 9.23099 15.7548 9.19582 15.6707C9.16065 15.5866 9.14293 15.4962 9.14375 15.4051ZM12.425 16.7504C12.3752 16.9892 12.2469 17.2046 12.0606 17.3621C11.8743 17.5197 11.6407 17.6104 11.3969 17.6199H11.3586C11.1045 17.6141 10.8585 17.5294 10.6547 17.3775C10.4508 17.2256 10.2993 17.0141 10.2211 16.7723C10.2055 16.7373 10.1976 16.6995 10.1978 16.6612C10.1981 16.623 10.2065 16.5853 10.2226 16.5505C10.2387 16.5158 10.262 16.485 10.2909 16.46C10.3199 16.4351 10.3539 16.4166 10.3906 16.4059C10.4239 16.393 10.4595 16.387 10.4952 16.3883C10.5309 16.3897 10.566 16.3983 10.5982 16.4137C10.6305 16.429 10.6593 16.4508 10.6828 16.4777C10.7064 16.5045 10.7242 16.5359 10.7352 16.5699C10.7819 16.7083 10.8698 16.829 10.9871 16.916C11.1044 17.003 11.2455 17.0521 11.3914 17.0566C11.5226 17.0525 11.6484 17.0036 11.7479 16.9181C11.8474 16.8325 11.9146 16.7154 11.9383 16.5863C11.9471 16.5523 11.9627 16.5203 11.9841 16.4924C12.0055 16.4645 12.0324 16.4412 12.063 16.4239C12.0936 16.4065 12.1274 16.3955 12.1623 16.3915C12.1973 16.3874 12.2327 16.3905 12.2664 16.4004C12.3336 16.4261 12.3879 16.4773 12.4175 16.5428C12.4472 16.6083 12.4499 16.6829 12.425 16.7504ZM12.9336 16.0832C12.7995 16.0832 12.6684 16.0434 12.5568 15.9689C12.4453 15.8944 12.3584 15.7885 12.3071 15.6646C12.2558 15.5407 12.2423 15.4043 12.2685 15.2728C12.2947 15.1412 12.3593 15.0204 12.4541 14.9256C12.5489 14.8307 12.6698 14.7661 12.8013 14.74C12.9328 14.7138 13.0692 14.7272 13.1931 14.7786C13.317 14.8299 13.4229 14.9168 13.4974 15.0283C13.5719 15.1398 13.6117 15.271 13.6117 15.4051C13.6124 15.4943 13.5954 15.5828 13.5616 15.6654C13.5278 15.748 13.4778 15.8231 13.4147 15.8862C13.3516 15.9493 13.2766 15.9992 13.194 16.0331C13.1114 16.0669 13.0229 16.0839 12.9336 16.0832Z" fill="black"/>
<path d="M11.375 23.1934C10.6828 23.1934 10.0061 23.3986 9.43051 23.7832C8.85493 24.1678 8.40633 24.7144 8.14142 25.354C7.87652 25.9935 7.8072 26.6972 7.94225 27.3762C8.0773 28.0551 8.41064 28.6787 8.90013 29.1682C9.38961 29.6577 10.0133 29.9911 10.6922 30.1261C11.3711 30.2612 12.0749 30.1918 12.7144 29.9269C13.3539 29.662 13.9006 29.2134 14.2851 28.6379C14.6697 28.0623 14.875 27.3856 14.875 26.6934C14.8736 25.7655 14.5043 24.8761 13.8483 24.2201C13.1922 23.564 12.3028 23.1948 11.375 23.1934ZM9.14375 26.3324C9.14382 26.1992 9.1831 26.069 9.25669 25.958C9.33028 25.8471 9.43493 25.7602 9.55757 25.7083C9.68021 25.6564 9.81542 25.6417 9.94633 25.6662C10.0772 25.6906 10.1981 25.7531 10.2937 25.8457C10.3894 25.9384 10.4556 26.0572 10.4842 26.1872C10.5128 26.3173 10.5024 26.4529 10.4544 26.5771C10.4065 26.7014 10.323 26.8087 10.2144 26.8858C10.1057 26.9629 9.97686 27.0063 9.84375 27.0105C9.75288 27.0135 9.66234 26.9981 9.57752 26.9653C9.49271 26.9326 9.41535 26.8831 9.35004 26.8198C9.28474 26.7566 9.23282 26.6808 9.19738 26.5971C9.16194 26.5134 9.1437 26.4233 9.14375 26.3324ZM12.2336 28.3996C12.1995 28.4087 12.1639 28.4109 12.1289 28.4062C12.094 28.4015 12.0602 28.3899 12.0298 28.3721C11.9993 28.3543 11.9726 28.3307 11.9513 28.3025C11.9299 28.2744 11.9144 28.2424 11.9055 28.2082C11.8857 28.0778 11.8195 27.9589 11.719 27.8735C11.6185 27.7881 11.4905 27.7419 11.3586 27.7434C11.2118 27.7447 11.0692 27.7926 10.9513 27.88C10.8334 27.9675 10.7463 28.09 10.7023 28.2301C10.684 28.2819 10.6499 28.3267 10.6048 28.3581C10.5596 28.3895 10.5058 28.4059 10.4508 28.4051C10.42 28.4103 10.3886 28.4103 10.3578 28.4051C10.292 28.3793 10.2386 28.329 10.2091 28.2648C10.1795 28.2005 10.176 28.1273 10.1992 28.0605C10.2826 27.8149 10.4409 27.6016 10.6518 27.4505C10.8627 27.2995 11.1156 27.2183 11.375 27.2184C11.6181 27.2276 11.8511 27.3175 12.0373 27.474C12.2235 27.6305 12.3522 27.8446 12.4031 28.0824C12.4168 28.1468 12.4073 28.2139 12.3763 28.272C12.3453 28.33 12.2947 28.3752 12.2336 28.3996ZM12.9336 27.0105C12.7995 27.0105 12.6684 26.9708 12.5568 26.8963C12.4453 26.8217 12.3584 26.7158 12.3071 26.5919C12.2558 26.468 12.2423 26.3317 12.2685 26.2001C12.2947 26.0686 12.3593 25.9478 12.4541 25.8529C12.5489 25.7581 12.6698 25.6935 12.8013 25.6673C12.9328 25.6412 13.0692 25.6546 13.1931 25.7059C13.317 25.7572 13.4229 25.8442 13.4974 25.9557C13.5719 26.0672 13.6117 26.1983 13.6117 26.3324C13.6117 26.5123 13.5403 26.6848 13.4131 26.8119C13.2859 26.9391 13.1134 27.0105 12.9336 27.0105Z" fill="black"/>
</g>
<defs>
<clipPath id="clip0_27_7708">
<rect width="35" height="35" fill="white"/>
</clipPath>
</defs>
</svg>
