<svg width="18" height="15" viewBox="0 0 18 15" fill="none" xmlns="http://www.w3.org/2000/svg">
<path d="M0.929415 5.55127C0.929415 4.53667 1.82475 3.71135 2.92542 3.71135H4.32453C5.25508 3.71135 6.0388 4.30118 6.25905 5.09679C6.3068 5.07974 6.35694 5.06598 6.40887 5.05663C6.89593 4.96474 7.29227 4.83654 7.46895 4.71494C7.71069 4.54768 7.79903 4.36335 7.88558 4.06018C8.08315 3.37021 8.31892 2.24226 8.33384 1.33716C8.34518 0.624626 8.93312 0.107422 9.73236 0.107422C9.79384 0.107422 9.8577 0.110173 9.92097 0.116225C10.4988 0.169046 11.03 0.444155 11.4162 0.889831C11.8477 1.38723 12.0447 2.04584 11.9576 2.6962C11.8818 3.25852 11.8036 3.81699 11.7606 4.11686C12.0943 4.07614 12.4691 4.04093 12.7675 4.04093H15.6965C16.2074 4.04093 16.707 4.2346 17.0669 4.57299C17.4227 4.90752 17.6137 5.34549 17.6042 5.80712C17.5934 6.31828 17.3379 6.77771 16.9422 7.08913C17.1971 7.39725 17.3314 7.77195 17.3248 8.16646C17.3141 8.7772 16.9482 9.31421 16.4086 9.61463C16.5859 9.88809 16.6778 10.2028 16.6718 10.5302C16.6593 11.2152 16.2009 11.8072 15.5514 12.0774C15.6899 12.3267 15.7604 12.6056 15.7556 12.8945C15.7389 13.8337 14.8829 14.5979 13.8479 14.5979H11.332C10.9118 14.5979 10.5006 14.5275 10.1102 14.3883L7.39314 13.4227C7.14006 13.3324 6.87325 13.2868 6.60107 13.2868C6.48766 13.2868 6.37903 13.2686 6.27755 13.2351C6.08834 14.0697 5.28433 14.6986 4.32393 14.6986H2.92482C1.82415 14.6986 0.928816 13.8733 0.928816 12.8587V5.55127H0.929415ZM6.23995 12.4037C6.23995 12.5875 6.40171 12.7366 6.60107 12.7366C6.94547 12.7366 7.2863 12.7949 7.60802 12.9093L10.3251 13.875C10.6462 13.9894 10.9876 14.0477 11.3326 14.0477H13.8485C14.5534 14.0477 15.1479 13.5349 15.1599 12.8857C15.1659 12.5511 15.0214 12.248 14.7844 12.0295C14.5522 11.816 14.2311 11.6834 13.8772 11.6834H14.7647C15.4697 11.6834 16.0642 11.1706 16.0755 10.5214C16.0815 10.1869 15.937 9.88369 15.7001 9.66525C15.4679 9.45176 15.1473 9.31916 14.7928 9.31916H15.4165C16.1215 9.31916 16.716 8.80636 16.7273 8.1571C16.7333 7.82257 16.5888 7.5194 16.3519 7.30096C16.1197 7.08748 15.7992 6.95488 15.4446 6.95488H15.7245C16.4247 6.95488 16.9935 6.43822 17.0067 5.79612C17.0204 5.13311 16.4145 4.59114 15.6959 4.59114H12.7669C12.1354 4.59114 11.0986 4.76886 11.0634 4.77657C11.0634 4.77657 11.1052 4.48825 11.1637 4.07504C11.2222 3.66238 11.2974 3.12536 11.3643 2.62907C11.4974 1.63648 10.7835 0.748975 9.86069 0.664242C9.24112 0.607019 8.93551 0.959158 8.92954 1.34541C8.91342 2.28078 8.67526 3.45274 8.46158 4.20104C8.35593 4.57024 8.21566 4.88661 7.82529 5.15622C7.49044 5.38731 6.88579 5.52926 6.52705 5.59694C6.35933 5.62885 6.23876 5.76476 6.23876 5.92322V12.4048L6.23995 12.4037ZM2.92542 14.1484H4.32453C5.0969 14.1484 5.72364 13.5712 5.72364 12.8587V5.55127C5.72364 4.83929 5.0975 4.26156 4.32453 4.26156H2.92542C2.15304 4.26156 1.5263 4.83874 1.5263 5.55127V12.8587C1.5263 13.5707 2.15244 14.1484 2.92542 14.1484Z" fill="black"/>
</svg>
