<svg width="227" height="213" viewBox="0 0 227 213" fill="none" xmlns="http://www.w3.org/2000/svg">
<path fill-rule="evenodd" clip-rule="evenodd" d="M187.716 107.263C189.309 107.266 190.866 106.797 192.191 105.917C193.516 105.037 194.549 103.786 195.16 102.32C195.771 100.855 195.932 99.2417 195.623 97.685C195.314 96.1284 194.548 94.6981 193.423 93.5752C192.298 92.4522 190.864 91.6871 189.303 91.3765C187.741 91.066 186.122 91.2241 184.651 91.8307C183.18 92.4373 181.922 93.4652 181.037 94.7844C180.152 96.1036 179.679 97.6547 179.679 99.2416C179.68 101.367 180.526 103.405 182.033 104.909C183.54 106.413 185.584 107.26 187.716 107.263ZM187.716 83.6732C190.807 83.6713 193.828 84.5829 196.398 86.2926C198.969 88.0023 200.973 90.4333 202.157 93.2781C203.34 96.1229 203.651 99.2537 203.049 102.275C202.447 105.295 200.96 108.07 198.776 110.249C196.591 112.427 193.807 113.911 190.776 114.512C187.746 115.113 184.604 114.806 181.749 113.627C178.893 112.449 176.453 110.453 174.736 107.893C173.019 105.332 172.103 102.321 172.103 99.2416C172.105 95.1146 173.75 91.157 176.677 88.238C179.605 85.3189 183.575 83.6771 187.716 83.6732ZM211.513 101.313C210.772 101.432 210.082 101.766 209.531 102.274C208.98 102.782 208.592 103.441 208.415 104.168C207.901 106.35 207.039 108.436 205.862 110.346C205.469 110.983 205.273 111.721 205.299 112.469C205.325 113.216 205.572 113.939 206.008 114.547L208.457 117.92L206.469 119.914L203.078 117.469C202.468 117.031 201.741 116.781 200.989 116.752C200.238 116.722 199.494 116.914 198.851 117.304C196.938 118.486 194.846 119.354 192.655 119.874C191.929 120.05 191.271 120.436 190.765 120.984C190.258 121.531 189.926 122.216 189.809 122.952L189.16 127.067H186.314L185.644 122.946C185.528 122.211 185.195 121.527 184.688 120.98C184.182 120.433 183.524 120.048 182.798 119.874C180.6 119.358 178.501 118.49 176.582 117.304C175.942 116.915 175.202 116.723 174.453 116.752C173.705 116.782 172.982 117.031 172.375 117.469L168.985 119.913L166.975 117.919L169.445 114.546C169.886 113.94 170.136 113.217 170.162 112.469C170.188 111.72 169.989 110.981 169.591 110.346C168.413 108.437 167.55 106.351 167.038 104.168C166.857 103.439 166.465 102.78 165.91 102.272C165.355 101.764 164.663 101.43 163.919 101.312L159.796 100.657V97.8311L163.919 97.1784C164.663 97.0606 165.355 96.7272 165.91 96.2198C166.464 95.7123 166.857 95.0534 167.038 94.3251C167.55 92.1397 168.413 90.0508 169.591 88.1386C169.989 87.5053 170.188 86.7678 170.162 86.021C170.135 85.2743 169.886 84.5524 169.445 83.9482L166.975 80.5696L168.985 78.5714L172.375 81.0241C172.982 81.4613 173.706 81.7094 174.455 81.7373C175.203 81.7651 175.943 81.5714 176.582 81.1806C178.501 79.9967 180.6 79.1316 182.798 78.6191C183.524 78.4418 184.181 78.0549 184.688 77.5069C185.194 76.9589 185.527 76.2742 185.644 75.5385L186.314 71.421H189.16L189.809 75.5385C189.923 76.2755 190.255 76.9619 190.762 77.5105C191.269 78.059 191.928 78.445 192.655 78.6191C194.845 79.1356 196.937 80.0005 198.851 81.1806C199.493 81.5717 200.236 81.7654 200.988 81.7375C201.74 81.7097 202.467 81.4615 203.078 81.0241L206.469 78.5714L208.457 80.5696L206.008 83.942C205.572 84.5494 205.325 85.2717 205.299 86.0183C205.273 86.7649 205.469 87.5025 205.862 88.1386C207.042 90.05 207.905 92.1392 208.415 94.3251C208.592 95.0519 208.98 95.7106 209.531 96.2183C210.082 96.7259 210.772 97.06 211.513 97.1784L215.657 97.8311V100.657L211.513 101.313ZM157.243 157.911C154.573 161.144 152.775 165.001 152.017 169.119C151.258 173.237 151.566 177.48 152.91 181.447L163.312 213H75.4924L66.828 181.833C66.6818 181.325 66.4314 180.853 66.0927 180.446C65.754 180.04 65.3343 179.708 64.8602 179.471C64.3892 179.237 63.8742 179.102 63.3481 179.077C62.822 179.052 62.2964 179.136 61.805 179.325L32.8594 190.475C31.7003 190.92 30.447 191.065 29.2166 190.896C27.9862 190.727 26.8188 190.25 25.8237 189.509C24.8285 188.769 24.0381 187.789 23.5262 186.661C23.0143 185.533 22.7977 184.294 22.8967 183.061L23.9017 170.671C23.9507 170.032 23.8362 169.392 23.5689 168.81C23.3016 168.228 22.8903 167.723 22.3736 167.342L15.5718 162.301L18.8365 156.43C19.0814 155.979 19.2318 155.483 19.2785 154.972C19.3253 154.461 19.2674 153.946 19.1085 153.458C18.9546 152.968 18.7003 152.514 18.3617 152.127C18.023 151.74 17.6074 151.427 17.1412 151.207L10.3811 147.983L16.7645 134.06C16.9719 133.603 17.0861 133.109 17.1003 132.608C17.1146 132.106 17.0286 131.607 16.8475 131.139C16.6664 130.671 16.3937 130.244 16.0452 129.882C15.6968 129.52 15.2796 129.23 14.818 129.031L0.146418 122.725C0.112876 122.707 0.077856 122.691 0.041707 122.678C0.039039 122.645 0.0320273 122.612 0.0208535 122.581C0.00954929 122.55 0.00253562 122.517 0 122.483C0 122.479 0.0208535 122.448 0.041707 122.391L22.7925 92.2376C23.7533 90.9729 24.2103 89.3985 24.0754 87.8179C23.9406 86.2374 23.2234 84.7625 22.0621 83.6776L11.4064 73.7327C19.2553 45.1618 23.0014 31.9917 47.5518 15.481C60.3452 6.85706 75.1939 1.74686 90.6009 0.665552C106.008 -0.415756 111.381 -1.01244 125.261 5.73946C124.906 6.61143 125.261 6.2709 125.261 11.0538V12.6482C125.261 11.5853 125.261 13.0552 125.444 13.1798C125.262 14.2425 125.444 13.711 125.444 16.8997L125.261 28.06C125.263 28.9619 125.261 30.1858 125.262 30.9062C125.444 31.2487 125.262 30.9062 125.262 32.843V37.219C125.86 39.1435 124.512 42.6127 125.444 44.4003H132.608C139.857 44.4003 165.91 43.4715 165.479 45.0658C165.552 45.9597 168.296 45.5973 167.615 50.3802H177.653H196.398C196.398 51.4431 196.398 61 196.398 61C196.398 61 196.398 61.4371 196.398 62.5C196.088 62.4074 196.478 62.5201 196.398 62.5C196.466 62.5373 226.896 63.6352 226.896 63.6739L196.398 62.5C196.246 62.5 227.204 63.7207 226.896 63.6739C226.867 63.6661 227.101 63.6933 226.896 63.6739C226.362 63.6739 227.294 63.7007 226.896 63.6739C226.896 63.6739 196.464 62.5196 196.398 62.5C196.398 62.5 184.162 63.1347 184.069 63.7568L178.57 71.9826C177.307 72.3982 176.076 72.9064 174.887 73.5032L170.827 70.5725C170.095 70.0442 169.198 69.7932 168.296 69.8643C167.395 69.9354 166.549 70.3241 165.909 70.9607L159.336 77.5102C158.701 78.1473 158.314 78.989 158.245 79.8845C158.176 80.78 158.429 81.6707 158.959 82.397L161.91 86.4327C161.311 87.6197 160.794 88.8459 160.361 90.1028L155.422 90.8867C154.532 91.0262 153.722 91.479 153.138 92.1629C152.555 92.8467 152.236 93.7165 152.241 94.6143V103.881C152.237 104.778 152.556 105.647 153.14 106.33C153.723 107.013 154.533 107.465 155.422 107.604L160.361 108.387C160.784 109.646 161.301 110.872 161.91 112.054L158.959 116.1C158.429 116.824 158.176 117.713 158.245 118.607C158.314 119.501 158.701 120.341 159.336 120.976L165.907 127.533C166.547 128.169 167.394 128.557 168.295 128.627C169.197 128.698 170.094 128.446 170.825 127.917L174.887 124.986C175.577 125.334 176.289 125.649 177.021 125.945C172.689 136.499 166.619 146.268 157.243 157.911ZM49.1216 40.4332L54.7933 46.0669C55.1401 46.418 55.554 46.6964 56.0106 46.8856C56.4671 47.0748 56.957 47.1709 57.4515 47.1683C58.2006 47.1696 58.9332 46.9491 59.5564 46.535C60.1797 46.1209 60.6656 45.5317 60.9525 44.8421C61.2394 44.1525 61.3145 43.3935 61.1681 42.6613C61.0218 41.9292 60.6606 41.2568 60.1305 40.7294L54.4792 35.0979C53.7692 34.3899 52.8061 33.9919 51.8018 33.9916C50.7974 33.9912 49.834 34.3884 49.1236 35.0959C48.4131 35.8034 48.0138 36.7632 48.0134 37.7641C48.013 38.7651 48.4116 39.7251 49.1216 40.4332ZM44.7681 82.9935C44.77 81.9951 44.3744 81.0367 43.6681 80.3285C42.9618 79.6203 42.0026 79.2203 41.0007 79.2161H32.9849C31.9876 79.2268 31.0348 79.6292 30.3334 80.3358C29.632 81.0424 29.2386 81.9963 29.2386 82.9902C29.2386 83.9842 29.632 84.938 30.3334 85.6446C31.0348 86.3512 31.9876 86.7536 32.9849 86.7644H41.0007C42.0015 86.7605 42.96 86.3615 43.6662 85.6547C44.3723 84.9479 44.7686 83.9909 44.7681 82.9935ZM60.1309 119.922C59.4168 119.213 58.4497 118.814 57.4415 118.814C56.4333 118.814 55.4662 119.213 54.752 119.922L49.1216 125.547C48.7655 125.897 48.4823 126.313 48.2885 126.772C48.0947 127.231 47.994 127.724 47.9922 128.222C47.9905 128.72 48.0877 129.214 48.2783 129.674C48.4689 130.135 48.7491 130.553 49.1027 130.905C49.4563 131.257 49.8764 131.536 50.3386 131.726C50.8009 131.915 51.2962 132.011 51.7961 132.009C52.2959 132.007 52.7903 131.906 53.2508 131.712C53.7113 131.519 54.1288 131.236 54.4792 130.881L60.1309 125.255C60.4839 124.906 60.764 124.491 60.9551 124.033C61.1463 123.575 61.2447 123.084 61.2447 122.589C61.2447 122.093 61.1463 121.602 60.9551 121.144C60.764 120.687 60.4839 120.271 60.1309 119.922ZM145.251 125.547L139.599 119.922C138.888 119.223 137.928 118.833 136.929 118.837C135.93 118.84 134.973 119.237 134.266 119.941C133.559 120.644 133.16 121.598 133.156 122.593C133.151 123.588 133.541 124.545 134.242 125.255L139.893 130.881C140.242 131.235 140.659 131.516 141.119 131.706C141.579 131.897 142.073 131.993 142.572 131.99C143.32 131.989 144.052 131.768 144.674 131.353C145.297 130.938 145.782 130.349 146.068 129.66C146.355 128.97 146.43 128.212 146.285 127.48C146.139 126.748 145.779 126.076 145.251 125.547ZM93.3874 26.9925C93.3874 27.9937 93.7865 28.954 94.4969 29.662C95.2074 30.37 96.1709 30.7677 97.1756 30.7677C98.1803 30.7677 99.1439 30.37 99.8543 29.662C100.565 28.954 100.964 27.9937 100.964 26.9925V19.0334C100.964 18.0321 100.565 17.0719 99.8543 16.3639C99.1439 15.6559 98.1803 15.2581 97.1756 15.2581C96.1709 15.2581 95.2074 15.6559 94.4969 16.3639C93.7865 17.0719 93.3874 18.0321 93.3874 19.0334V26.9925ZM117.875 115.169C124.859 110.711 130.205 104.117 133.113 96.3759C136.02 88.6346 136.332 80.1629 134.001 72.2301C131.671 64.2974 126.824 57.3308 120.186 52.3744C113.549 47.4179 105.478 44.7385 97.1841 44.7376C88.89 44.7367 80.8189 47.4144 74.1803 52.3694C67.5416 57.3245 62.693 64.29 60.3609 72.2223C58.0288 80.1545 58.3388 88.6263 61.2445 96.3682C64.1502 104.11 69.4951 110.705 76.4783 115.165C79.7546 117.223 82.1826 120.383 83.3222 124.072H93.3896V94.8782C90.5425 93.9772 88.1128 92.091 86.5393 89.5605C84.9658 87.0301 84.3524 84.0222 84.8098 81.0804C85.2673 78.1385 86.7655 75.4568 89.0338 73.5196C91.302 71.5825 94.1907 70.5177 97.1778 70.5177C100.165 70.5177 103.054 71.5825 105.322 73.5196C107.59 75.4568 109.088 78.1385 109.546 81.0804C110.003 84.0222 109.39 87.0301 107.816 89.5605C106.243 92.091 103.813 93.9772 100.966 94.8782V124.071H111.033C112.186 120.391 114.61 117.238 117.875 115.169ZM103.998 146.959C104.102 146.969 104.205 146.939 104.286 146.875C104.368 146.811 104.422 146.719 104.438 146.617L104.71 145.6H89.6409L89.9128 146.617C89.9314 146.718 89.9864 146.808 90.0675 146.871C90.1485 146.934 90.2499 146.965 90.3525 146.959H103.998ZM97.1756 87.918C98.154 87.9191 99.1107 87.6308 99.9247 87.0898C100.739 86.5488 101.373 85.7793 101.748 84.8787C102.123 83.9781 102.222 82.9869 102.031 82.0305C101.841 81.0742 101.37 80.1956 100.678 79.506C99.9865 78.8164 99.1051 78.3468 98.1455 78.1566C97.1859 77.9665 96.1912 78.0643 95.2874 78.4376C94.3836 78.811 93.6112 79.4432 93.068 80.2542C92.5249 81.0652 92.2353 82.0185 92.236 82.9935C92.2427 84.2972 92.7652 85.5457 93.69 86.4677C94.6149 87.3898 95.8675 87.9109 97.1756 87.918ZM110.298 131.618H84.0734V137.588C84.0735 137.71 84.1219 137.827 84.2081 137.914C84.2942 138.001 84.4113 138.051 84.534 138.053H109.817C109.942 138.052 110.061 138.003 110.151 137.916C110.241 137.83 110.293 137.712 110.298 137.588V131.618ZM97.1756 37.219C87.2505 37.2218 77.5933 40.4283 69.6497 46.3584C61.7062 52.2885 55.9037 60.6233 53.1111 70.1148C50.3184 79.6063 50.6858 89.7439 54.1582 99.01C57.6306 108.276 64.0212 116.172 72.3733 121.516C73.6622 122.296 74.7219 123.402 75.4458 124.721C76.1696 126.04 76.532 127.526 76.4965 129.028V137.588C76.4992 139.209 76.9946 140.791 77.9174 142.126C78.8401 143.462 80.147 144.487 81.6659 145.067L82.5866 148.532C83.0226 150.25 84.025 151.772 85.433 152.855C86.841 153.937 88.573 154.517 90.3512 154.501H103.997C105.775 154.517 107.507 153.937 108.915 152.855C110.323 151.772 111.326 150.25 111.762 148.532L112.682 145.067C114.206 144.492 115.518 143.468 116.446 142.132C117.373 140.797 117.871 139.212 117.873 137.588V129.028C117.833 127.528 118.191 126.043 118.912 124.725C119.632 123.406 120.689 122.301 121.975 121.52C130.328 116.176 136.718 108.28 140.191 99.0135C143.663 89.7471 144.031 79.6092 141.238 70.1173C138.445 60.6254 132.643 52.2903 124.699 46.3598C116.756 40.4292 107.098 37.2223 97.173 37.219H97.1756Z" fill="white"/>
</svg>
