<svg width="95" height="94" viewBox="0 0 95 94" fill="none" xmlns="http://www.w3.org/2000/svg">
<path d="M93.9674 32.0522H90.0644V28.5823L89.0317 27.5497H81.4211C83.3751 23.6074 84.796 19.1617 84.796 14.5681C84.796 6.52187 78.2741 0 70.2279 0C62.1816 0 55.6597 6.52187 55.6597 14.5681C55.6597 19.1617 57.0806 23.6074 59.0346 27.5497H48.4875C48.3234 25.8881 47.6622 24.4794 46.4987 23.3597C42.0087 19.0387 31.0136 19.7426 19.375 20.4888C16.8656 20.6491 14.271 20.8155 11.81 20.9214L10.8217 21.953V27.5497H5.96826L4.93565 28.5823V32.0522H1.03261L0 33.0848V88.5775L1.03261 89.6101H35.749C36.945 89.6101 38.0638 90.2494 38.6689 91.279C39.6435 92.9368 41.4445 93.9674 43.3696 93.9674H51.6304C53.5555 93.9674 55.3565 92.9368 56.3306 91.279C56.9362 90.2494 58.055 89.6101 59.251 89.6101H93.9674L95 88.5775V33.0848L93.9674 32.0522ZM70.2279 6.39696C74.7424 6.39696 78.399 10.0536 78.399 14.5681C78.399 19.0827 74.7424 22.7476 70.2279 22.7476C65.7133 22.7476 62.0567 19.0827 62.0567 14.5681C62.0567 10.0536 65.7133 6.39696 70.2279 6.39696ZM70.2279 42.4716C70.2279 42.4716 76.0407 37.2026 80.323 29.6149H87.9991V83.0423H48.5326V29.6149H60.1328C64.415 37.2026 70.2279 42.4716 70.2279 42.4716ZM12.8869 22.9392C15.0671 22.8344 17.3194 22.6902 19.5071 22.55C30.1872 21.8643 41.2317 21.1584 45.0667 24.8482C46.0489 25.793 46.5072 27.0061 46.4679 28.5561L46.4674 78.8262C46.4543 78.813 46.4412 78.8009 46.4276 78.7888C43.6186 76.1539 38.3512 75.4208 31.9942 75.4208C28.0846 75.4208 23.7621 75.6981 19.3473 75.9814C17.2105 76.1186 15.0116 76.2598 12.8869 76.3646V22.9392ZM7.00086 29.6149H10.8217V77.4457L11.8987 78.4772C14.3728 78.3704 16.969 78.204 19.4794 78.0426C30.1231 77.3579 41.1299 76.652 45.0148 80.2954C45.8015 81.033 46.2472 81.9436 46.3974 83.0423H7.00086V29.6149ZM92.9348 87.5448H59.251C57.3264 87.5448 55.5254 88.5744 54.5503 90.2323C53.9452 91.2628 52.8264 91.9022 51.6304 91.9022H43.3696C42.1736 91.9022 41.0548 91.2628 40.4492 90.2323C39.4746 88.5744 37.6736 87.5448 35.749 87.5448H2.06522V34.1174H4.93565V84.0749L5.96826 85.1075H89.0317L90.0644 84.0749V34.1174H92.9348V87.5448Z" fill="white"/>
<path d="M68.6128 49.8232H84.7958V51.8882H68.6128V49.8232Z" fill="white"/>
<path d="M53.6328 49.8232H62.0568V51.8882H53.6328V49.8232Z" fill="white"/>
<path d="M53.6328 56.5918H84.7958V58.6568H53.6328V56.5918Z" fill="white"/>
<path d="M79.2192 63.3594H84.7962V65.4244H79.2192V63.3594Z" fill="white"/>
<path d="M53.6328 63.3594H72.2488V65.4244H53.6328V63.3594Z" fill="white"/>
<path d="M53.6328 70.1279H65.4808V72.1929H53.6328V70.1279Z" fill="white"/>
<path d="M31.9171 37.8062L41.7839 32.5666L40.8148 30.7434L32.0911 35.376L30.0713 27.9229L28.0776 28.4634L30.4358 37.1649L31.9171 37.8062Z" fill="white"/>
<path d="M32.0972 43.2969L33.8069 49.6045V66.1766H35.8721V49.4673L34.3061 43.552L44.6897 38.038L43.7216 36.2148L32.6099 42.115L32.0972 43.2969Z" fill="white"/>
<path d="M27.6114 66.1772H29.6766V61.2279L28.644 60.1953H17.2964V62.2605H27.6114V66.1772Z" fill="white"/>
<path d="M29.6766 55.0315V50.292L24.0915 29.542L22.0979 30.0825L27.6114 50.4291V53.9989H17.2964V56.0641H28.644L29.6766 55.0315Z" fill="white"/>
</svg>
