<svg width="124" height="124" viewBox="0 0 124 124" fill="none" xmlns="http://www.w3.org/2000/svg">
<mask id="mask0_1_8750" style="mask-type:luminance" maskUnits="userSpaceOnUse" x="0" y="0" width="124" height="124">
<path fill-rule="evenodd" clip-rule="evenodd" d="M28.1894 0.0608978C25.424 0.159195 21.8599 0.375549 20.24 0.702507C17.7672 1.20187 15.4319 1.95898 13.4899 2.94878C11.2082 4.11161 9.16319 5.59525 7.39739 7.35828C5.62755 9.12473 4.13797 11.1716 2.97046 13.4567C1.98342 15.3884 1.22674 17.7094 0.725259 20.1682C0.391716 21.8045 0.171124 25.3951 0.0711247 28.1783C0.030573 29.3158 0.00976637 30.788 0.00976637 31.467L0 92.523C0 93.1992 0.0205943 94.6718 0.0609337 95.8106C0.159234 98.5758 0.375581 102.14 0.702754 103.76C1.2019 106.232 1.95922 108.568 2.94881 110.51C4.11185 112.792 5.59528 114.836 7.35832 116.602C9.12476 118.372 11.1719 119.862 13.4568 121.029C15.3886 122.016 17.7096 122.773 20.1682 123.274C21.8045 123.608 25.3953 123.829 28.1785 123.928C29.3157 123.969 30.7881 123.99 31.467 123.99L92.523 124C93.1994 124 94.672 123.979 95.8104 123.939C98.5758 123.84 102.14 123.624 103.76 123.297C106.233 122.798 108.568 122.04 110.51 121.051C112.792 119.888 114.837 118.404 116.602 116.641C118.372 114.875 119.862 112.828 121.029 110.543C122.016 108.611 122.773 106.29 123.275 103.832C123.608 102.195 123.829 98.6042 123.929 95.8212C123.969 94.6839 123.99 93.2117 123.99 92.5327L124 31.4768C124 30.8003 123.979 29.3277 123.939 28.1891C123.84 25.424 123.624 21.8599 123.297 20.2399C122.798 17.7671 122.041 15.4319 121.051 13.4899C119.888 11.2079 118.404 9.16316 116.642 7.39715C114.875 5.62773 112.828 4.13794 110.543 2.97043C108.611 1.98339 106.29 1.22649 103.832 0.725227C102.195 0.391685 98.6045 0.171089 95.8215 0.0713043C94.6839 0.0303268 93.2117 0.00973511 92.5328 0.00973511L31.4768 -3.05176e-05C30.8004 -3.05176e-05 29.3278 0.0203476 28.1894 0.0608978Z" fill="white"/>
</mask>
<g mask="url(#mask0_1_8750)">
<path d="M28.1894 0.0608978C25.424 0.159195 21.8599 0.375549 20.24 0.702507C17.7672 1.20187 15.4319 1.95898 13.4899 2.94878C11.2082 4.11161 9.16319 5.59525 7.39739 7.35828C5.62755 9.12473 4.13797 11.1716 2.97046 13.4567C1.98342 15.3884 1.22674 17.7094 0.725259 20.1682C0.391716 21.8045 0.171124 25.3951 0.0711247 28.1783C0.030573 29.3158 0.00976637 30.788 0.00976637 31.467L0 92.523C0 93.1992 0.0205943 94.6718 0.0609337 95.8106C0.159234 98.5758 0.375581 102.14 0.702754 103.76C1.2019 106.232 1.95922 108.568 2.94881 110.51C4.11185 112.792 5.59528 114.836 7.35832 116.602C9.12476 118.372 11.1719 119.862 13.4568 121.029C15.3886 122.016 17.7096 122.773 20.1682 123.274C21.8045 123.608 25.3953 123.829 28.1785 123.928C29.3157 123.969 30.7881 123.99 31.467 123.99L92.523 124C93.1994 124 94.672 123.979 95.8104 123.939C98.5758 123.84 102.14 123.624 103.76 123.297C106.233 122.798 108.568 122.04 110.51 121.051C112.792 119.888 114.837 118.404 116.602 116.641C118.372 114.875 119.862 112.828 121.029 110.543C122.016 108.611 122.773 106.29 123.275 103.832C123.608 102.195 123.829 98.6042 123.929 95.8212C123.969 94.6839 123.99 93.2117 123.99 92.5327L124 31.4768C124 30.8003 123.979 29.3277 123.939 28.1891C123.84 25.424 123.624 21.8599 123.297 20.2399C122.798 17.7671 122.041 15.4319 121.051 13.4899C119.888 11.2079 118.404 9.16316 116.642 7.39715C114.875 5.62773 112.828 4.13794 110.543 2.97043C108.611 1.98339 106.29 1.22649 103.832 0.725227C102.195 0.391685 98.6045 0.171089 95.8215 0.0713043C94.6839 0.0303268 93.2117 0.00973511 92.5328 0.00973511L31.4768 -3.05176e-05C30.8004 -3.05176e-05 29.3278 0.0203476 28.1894 0.0608978Z" fill="url(#paint0_linear_1_8750)"/>
<path fill-rule="evenodd" clip-rule="evenodd" d="M83.4951 70.1614C82.3907 69.6087 76.9608 66.9376 75.9483 66.5693C74.936 66.2009 74.1999 66.0166 73.4636 67.1219C72.7273 68.2272 70.6107 70.714 69.9664 71.451C69.3222 72.1877 68.6781 72.28 67.5736 71.7272C66.4692 71.1747 62.9106 70.0087 58.6922 66.2472C55.409 63.3198 53.1924 59.7039 52.5481 58.5986C51.9039 57.4933 52.4795 56.8959 53.0326 56.3454C53.5291 55.8509 54.1368 55.056 54.689 54.4112C55.2412 53.7664 55.4253 53.3059 55.7935 52.5692C56.1616 51.8322 55.9775 51.1874 55.7013 50.6348C55.4253 50.0821 53.2166 44.6478 52.2962 42.4372C51.3999 40.2844 50.4893 40.5756 49.8113 40.5419C49.1678 40.5098 48.4309 40.503 47.6946 40.503C46.9583 40.503 45.7619 40.7795 44.7494 41.8846C43.7371 42.9898 40.884 45.6612 40.884 51.0953C40.884 56.5296 44.8415 61.7797 45.3938 62.5166C45.946 63.2536 53.1816 74.4055 64.2605 79.1878C66.8955 80.3254 68.9528 81.0046 70.5566 81.5137C73.2024 82.3538 75.6101 82.2354 77.513 81.9511C79.6349 81.6341 84.0474 79.28 84.9677 76.701C85.8879 74.1221 85.8879 71.9115 85.6119 71.451C85.3359 70.9905 84.5996 70.714 83.4951 70.1614ZM63.3435 97.6672H63.3286C56.7363 97.6647 50.2706 95.8944 44.6301 92.5482L43.2885 91.752L29.3839 95.3985L33.0953 81.8459L32.2217 80.4566C28.5442 74.609 26.602 67.8505 26.6047 60.9111C26.6128 40.6616 43.0936 24.1872 63.3581 24.1872C73.1708 24.191 82.3949 28.0162 89.3312 34.958C96.2674 41.9 100.085 51.1275 100.081 60.9408C100.073 81.1918 83.5926 97.6672 63.3435 97.6672ZM94.6103 29.683C86.2651 21.3308 75.1671 16.7289 63.343 16.7243C38.9802 16.7243 19.1517 36.5451 19.1419 60.9082C19.1388 68.696 21.174 76.2981 25.0419 82.9986L18.7712 105.896L42.2029 99.7518C48.6589 103.272 55.9276 105.127 63.3254 105.13H63.3435H63.3437C87.7042 105.13 107.534 85.3067 107.544 60.9434C107.549 49.1367 102.956 38.0349 94.6103 29.683Z" fill="white"/>
</g>
<defs>
<linearGradient id="paint0_linear_1_8750" x1="-0.000133038" y1="124" x2="-0.000133038" y2="-0.000172989" gradientUnits="userSpaceOnUse">
<stop stop-color="#25CF43"/>
<stop offset="1" stop-color="#61FD7D"/>
</linearGradient>
</defs>
</svg>
